<?xml version="1.0" encoding="utf-8"?>
<!-- Generator: Adobe Illustrator 26.2.1, SVG Export Plug-In . SVG Version: 6.00 Build 0)  -->
<svg version="1.1" id="图层_1" xmlns="http://www.w3.org/2000/svg" xmlns:xlink="http://www.w3.org/1999/xlink" x="0px" y="0px"
	 viewBox="0 0 64 64" style="enable-background:new 0 0 64 64;" xml:space="preserve">
<style type="text/css">
	.st0{fill:#FFFFFF;}
	.st1{fill:#FB7299;}
</style>
<path class="st0" d="M31.9,0c17.6,0,31.9,14.3,31.9,31.9c0,17.6-14.3,31.9-31.9,31.9S0,49.6,0,31.9S14.3,0,31.9,0z"/>
<path class="st1" d="M31.9,5.8c14.4,0,26.1,11.7,26.1,26.1S46.4,58.1,31.9,58.1c-14.4,0-26.1-11.7-26.1-26.1
	C5.8,17.5,17.5,5.8,31.9,5.8z"/>
<g>
	<path class="st0" d="M44.8,34.3c0,2.9-0.6,4.9-1.8,5.8c-0.9,0.7-2.3,1-4.1,1c-1.1,0-1.7-0.6-1.7-1.7c0-1,0.8-1.6,2.4-1.6
		c1.1,0,1.7-0.2,2-0.7c0.1-0.2,0.2-0.5,0.3-0.7c0.1-0.5,0.2-1.3,0.2-2.4V23.4c0-1.1-0.5-1.7-1.5-1.8H23.4c-0.6,1.3-1.6,2.9-2.8,4.7
		c-1.2,1.8-2.1,2.7-2.6,2.7c-0.9,0-1.3-0.5-1.3-1.6c0-0.4,0.2-1,0.7-1.5c2.5-3.2,4.3-6.6,5.5-10.2c0.3-0.8,0.8-1.2,1.5-1.2
		c0.9,0,1.3,0.4,1.3,1.3c0,0.4-0.3,1.3-1,2.8h16.9c2.3-0.2,3.4,1,3.2,3.7V34.3z M36.3,34c0,2-0.7,3-2,3.2c-0.2,0-0.5,0-0.7,0H23.3
		v6.7c0,0.7,0.3,1.2,0.8,1.4s3.3,0.3,8.4,0.3c6,0,9.4-0.1,10.2-0.3c0.7-0.3,1.1-0.8,1.2-1.7l0.2-1.3c0.1-1,0.6-1.5,1.4-1.5
		c1,0,1.5,0.5,1.5,1.6c0,1.6-0.3,3-0.9,4.2c-0.6,1.2-2.4,1.8-5.4,1.8H26.6c-2.1,0-3.5-0.1-4.1-0.3c-1.2-0.4-1.8-1.3-1.8-2.8V29.3
		c0-2.1,0.9-3.2,2.7-3.2h10.1c1.6,0,2.5,0.7,2.7,2c0.1,0.4,0.1,0.8,0.1,1.2V34z M32.5,34.4c0.7-0.1,1.1-0.5,1.2-1.4v-2.8
		c0-0.9-0.4-1.3-1.2-1.4h-9.2v5.6H32.5z"/>
</g>
</svg>
