<?xml version="1.0" encoding="utf-8"?>
<!-- Generator: Adobe Illustrator 26.2.1, SVG Export Plug-In . SVG Version: 6.00 Build 0)  -->
<svg version="1.1" id="图层_3_xA0_图像_00000059277196175717090580000012262248620197312421_"
	 xmlns="http://www.w3.org/2000/svg" xmlns:xlink="http://www.w3.org/1999/xlink" x="0px" y="0px" viewBox="0 0 334 334"
	 style="enable-background:new 0 0 334 334;" xml:space="preserve">
<style type="text/css">
	.st0{fill:#F0851C;}
	.st1{fill:#D75012;}
	.st2{fill:#F7D772;}
	.st3{fill:#E28918;}
	.st4{fill:#EBB630;}
	.st5{fill:#EBB730;}
	.st6{fill:#E18516;}
	.st7{fill:#ECBF34;}
	.st8{fill:#F7D783;}
	.st9{fill:#F9E89A;}
	.st10{fill:#E6A82C;}
	.st11{fill:#E7A92D;}
	.st12{fill:#F6CD6C;}
	.st13{fill:#E66216;}
	.st14{fill:#E7AB2A;}
	.st15{fill:#CA1B3D;}
	.st16{fill:#E67F1A;}
	.st17{fill:#E59A21;}
	.st18{fill:#F9E685;}
	.st19{fill:#C75216;}
	.st20{fill:#F5C755;}
	.st21{fill:#FB5107;}
	.st22{fill:#F6D655;}
	.st23{fill:#C55407;}
	.st24{fill:#F8E28D;}
	.st25{fill:#E8AC2B;}
	.st26{fill:#F7E278;}
	.st27{fill:#F16A19;}
	.st28{fill:#CC620A;}
	.st29{fill:#F5C656;}
	.st30{fill:#FC8115;}
	.st31{fill:#F6B94D;}
	.st32{fill:#DF1D3D;}
	.st33{fill:#FDCD29;}
	.st34{fill:#D3110F;}
	.st35{fill:#D6700A;}
	.st36{fill:#DF7B17;}
	.st37{fill:#DE7B17;}
	.st38{fill:#F9DC9A;}
	.st39{fill:#FCCB28;}
	.st40{fill:#F8EB64;}
	.st41{fill:#FDCB29;}
	.st42{fill:#F6E5CF;}
	.st43{fill:#F8EC63;}
	.st44{fill:#DC641A;}
	.st45{fill:#F18430;}
	.st46{fill:#EFC254;}
	.st47{fill:#F2C93C;}
	.st48{fill:#E7A52C;}
	.st49{fill:#ECB72C;}
	.st50{fill:#DA5B20;}
	.st51{fill:#E7382A;}
	.st52{fill:#FCAA20;}
	.st53{fill:#FDB6AE;}
	.st54{fill:#F9ECC9;}
	.st55{fill:#F2550A;}
	.st56{fill:#E59D28;}
	.st57{fill:#EEBB2A;}
	.st58{fill:#F78B0C;}
	.st59{fill:#F7850A;}
	.st60{fill:#D37111;}
	.st61{fill:#D3382E;}
	.st62{fill:#FB4807;}
	.st63{fill:#EF2B25;}
	.st64{fill:#FAA41E;}
	.st65{fill:#F66124;}
	.st66{fill:#FBA520;}
	.st67{fill:#D26C0C;}
	.st68{fill:#FDF7DF;}
	.st69{fill:#EEB124;}
	.st70{fill:#F7AA6C;}
	.st71{fill:#DB540F;}
	.st72{fill:#FEFBF0;}
	.st73{fill:#FEFCF4;}
	.st74{fill:#ECE6C0;}
	.st75{fill:#EAE2BE;}
	.st76{fill:#E14920;}
	.st77{fill:#ECAD60;}
	.st78{fill:#F6BC43;}
	.st79{fill:#DF8731;}
	.st80{fill:#E15F11;}
	.st81{fill:#EEA325;}
	.st82{fill:#BA370F;}
	.st83{fill:#E98E1F;}
	.st84{fill:#CB420F;}
	.st85{fill:#A2310F;}
	.st86{fill:#F8DF9A;}
	.st87{fill:#F8E08C;}
	.st88{fill:#DD8C4D;}
	.st89{fill:#F8E8B8;}
	.st90{fill:#DD6D09;}
	.st91{fill:#D67815;}
	.st92{fill:#F3E35E;}
	.st93{fill:#FDE26F;}
	.st94{fill:#FDE072;}
	.st95{fill:#F8EF6A;}
	.st96{fill:#E9BB53;}
	.st97{fill:#FAECB5;}
	.st98{fill:#B83C07;}
	.st99{fill:#EFBF55;}
	.st100{fill:#F0D4B2;}
	.st101{fill:#8A0D20;}
	.st102{fill:#A4112C;}
	.st103{fill:#DF7D17;}
	.st104{fill:#B21431;}
	.st105{fill:#E07D16;}
	.st106{fill:#D9892B;}
	.st107{fill:#E47719;}
	.st108{fill:#D3490D;}
	.st109{fill:#E5CEEE;}
	.st110{fill:#C4D0F9;}
	.st111{fill:#FB7014;}
	.st112{fill:#CA0706;}
	.st113{fill:#F6CC39;}
	.st114{fill:#B62F09;}
	.st115{fill:#C53D10;}
	.st116{fill:#D27311;}
	.st117{fill:#FD9C26;}
	.st118{fill:#F8600B;}
	.st119{fill:#F5DA62;}
	.st120{fill:#FCB339;}
	.st121{fill:#FECD50;}
	.st122{fill:#D9430C;}
	.st123{fill:#FEAC34;}
	.st124{fill:#FDCA4D;}
	.st125{fill:#D2D3F7;}
	.st126{fill:#D8EEFA;}
	.st127{fill:#FEEEEF;}
	.st128{fill:#FEF9FC;}
	.st129{fill:#E06013;}
	.st130{fill:#FAE7A8;}
	.st131{fill:#F2DEA1;}
	.st132{fill:#FCF6DB;}
	.st133{fill:#F2D375;}
	.st134{fill:#E59B33;}
	.st135{fill:#E7B752;}
	.st136{fill:#F2DE9F;}
	.st137{fill:#FCF5D9;}
	.st138{fill:#EBB140;}
	.st139{fill:#F1D170;}
	.st140{fill:#FEE702;}
	.st141{fill:#FEC802;}
	.st142{fill:#FE9305;}
	.st143{fill:#FEE104;}
	.st144{fill:#FDE207;}
	.st145{fill:#FECD02;}
	.st146{fill:#FE9108;}
	.st147{fill:#F9ECC3;}
	.st148{fill:#FCD223;}
	.st149{fill:#EBC78A;}
	.st150{fill:#F3DD7C;}
	.st151{fill:#D8EBFA;}
	.st152{fill:#A5122C;}
	.st153{fill:#5D0510;}
	.st154{fill:#F5D89E;}
	.st155{fill:#AEC1F1;}
	.st156{fill:#E662CD;}
	.st157{fill:#9B3433;}
	.st158{fill:#78173D;}
	.st159{fill:#F87914;}
	.st160{fill:#FBB018;}
	.st161{fill:#F9C732;}
	.st162{fill:#E63B07;}
	.st163{fill:#FAA41F;}
	.st164{fill:#FDEF66;}
	.st165{fill:#EFCF6B;}
	.st166{fill:#ECBD46;}
	.st167{fill:#F2D775;}
	.st168{fill:#F98420;}
	.st169{fill:#F3B24B;}
	.st170{fill:#E3A138;}
	.st171{fill:#FCB237;}
	.st172{fill:#FCE676;}
	.st173{fill:#FEBF41;}
	.st174{fill:#FE8B20;}
	.st175{fill:#FEC947;}
	.st176{fill:#ACB6F2;}
	.st177{fill:#FAB396;}
	.st178{fill:#F8AF5F;}
	.st179{fill:#F8861A;}
	.st180{fill:#F88C2B;}
	.st181{fill:#7C202E;}
	.st182{fill:#831939;}
	.st183{fill:#FAEA91;}
	.st184{fill:#E70B13;}
	.st185{fill:#E70F13;}
	.st186{fill:#ED4825;}
	.st187{fill:#E54236;}
	.st188{fill:#FDE04D;}
	.st189{fill:#FDED78;}
	.st190{fill:#FE5517;}
	.st191{fill:#FEB949;}
	.st192{fill:#FB88AB;}
	.st193{fill:#FEE2B8;}
	.st194{fill:#FEA651;}
	.st195{fill:#FAC55E;}
	.st196{fill:#FAD83D;}
	.st197{fill:#F1560F;}
	.st198{fill:#FDDDA8;}
	.st199{fill:#BA0919;}
	.st200{fill:#F12709;}
	.st201{fill:#E06160;}
	.st202{fill:#F0290B;}
	.st203{fill:#BE101F;}
	.st204{fill:#FA1D06;}
</style>
<path class="st0" d="M239.9,50.2c6.2,1.7,11.1,5.8,16,9.6c6,4.7,12.4,8.3,20.1,9.2c1.8,2.3,0.4,4.4-0.4,6.5
	c-1.3,3.2-3.6,5.9-4.1,9.4c-0.9,2.2-3.1,2.9-4.9,4c-4,3.3-6-0.5-8.4-2.5c-13.5-13.4-29.5-22.9-47.4-29.3c-2-0.7-4.3-1.1-5.3-3.3
	c-0.3-3.9,0.7-7.3,3.5-10.1c2.4-0.9,4.5,0.3,6.7,1.1c6.3,2.1,12.5,4.1,19,5.4C236.3,50.4,238.1,50.8,239.9,50.2z"/>
<path class="st1" d="M328.9,104.1c-0.3,0.3-0.6,0.6-0.9,1c-6.5,9.1-14.1,17-24.2,22.2c-0.5,2.2,0.4,4.3,0.8,6.4
	c2.7,14.4,5.9,28.7,4.8,43.5c-1,13-3.9,25.6-6.6,38.3c-1,4.7-2,9.4-2.8,14.2c-3.4,4.3-7.6,7-13.3,6.5c-1.1-1.8-0.4-3.5,0.4-5.2
	c5.4-11.9,8.7-24.4,10-37.4c1-4.3,0.3-8.6,0.5-12.9c0.1-2.1-0.3-4.3,0.9-6.3c2-1,2.2,0.6,2.3,1.9c0.2,2.6,0.3,5.1,0,7.7
	c0.4-17.7-0.7-35.3-4.6-52.7c-0.5-2.2-1.5-4.4-0.7-6.8c6.4-3.3,13.2-6.1,17.9-12c1-1.3,2.4-2.3,3-3.9c2.7-3.4,6.9-4.3,10.5-6.4l0,0
	C329.1,101.2,329.8,101.9,328.9,104.1z"/>
<path class="st2" d="M54.1,69c7.6,0.3,14.5-1.8,20.9-5.9c1.1,0.5,1.7,1.5,2.4,2.4c1.7,2.3,3.7,2.6,6,0.9c4.2-3,8.1-6.2,12-9.6
	c2.7-2.4,2.2-5.7,2.6-8.7c1.8-1.5,3.7-2.6,6-2.9c7.9,4.6,16.5,3,24.9,2.6c1.3,0.8,1.9,1.9,1.3,3.4c-6.1,2.8-12.6,3.8-19.2,2.5
	c-2.6-0.5-4.9-0.9-6.2,2.1c-3.9,9.5-9.7,17.5-18.6,23.1c-3.1,2.8-6.2,3.4-9.8,0.8c-2.5-1.7-3.6-0.2-4,2.2c-0.2,1.2-0.1,2.3-0.1,3.5
	c0.2,5.7-0.8,6.8-6.7,7.1c-3.1,0.1-6.3,0-9.4,0.2c-3.1-0.3-6.4,0.9-9.1-1.5c-4.3-5.6-8.6-11.1-10.1-18.2c2.3-0.1,3,1.8,3.8,3.3
	c1.4,2.6,3.2,5,4.8,7.5c2.4,3.9,5.7,5.8,10.3,5.1c3.1,0.1,6.3-0.2,9.3,0.3c0.6,0.5,0.6-0.7,0.3-0.2c0,0.1-0.2,0-0.5-0.2
	c-0.7-0.4-1.3-1-1.9-1.6c-1.6-2.1-3.8-3.6-5.4-5.7c-1.7-2.2-3.1-4.7-4.1-7.3C53.1,72.3,52.5,70.6,54.1,69z"/>
<path class="st3" d="M312.1,217.7c2.3,6.5,0.9,12.8-0.4,19.2c-8.2,4.7-14.1,11.9-19.5,19.4c-3,4.2-6.8,7.7-10.7,11
	c-1.2,1-2.4,1.8-2.3,3.5c-2.6,2.1-5.9,2.1-9,2.3c-4.9,0.2-9.5,0.9-13.9,3.1c-1.8,0.9-4.2,1.7-5.3-0.5c-1.2-2.2,1-3.6,2.6-4.7
	c5-3.2,10.2-6.2,15.5-8.9c8.1-4.1,14.1-10.4,19.4-17.5c0.6-0.8,1-1.7,0.9-2.7c-0.1-2,1.3-3.5,1.9-5.2c1-1.5,2.4-2.4,4.3-2.2
	c1,0.4,1.6,1.1,1.7,2.2c5.1-5.1,10.5-9.9,12.9-17C310.5,218.7,311,218,312.1,217.7z"/>
<path class="st4" d="M81,303.5c-1.6,0.5-3.2,0.9-4.8,1.4c-0.8-0.1-1.4-0.4-1.9-1c-2.6-3.1-3.7-7-5.3-10.6c-0.8-1.8-0.8-3.5,1.4-4.5
	c-1.5,0.7-3,1.4-4.7,0.9c-5.3-1.2-11.3-0.2-15.6-4.8c-4.4-3.7-9.3-6.8-12.6-11.7c-1.1-1.6-1.6-3.6-2.4-5.4c-1.2-4.8,1.8-3.4,3.7-2.1
	c3.8,2.5,7.5,4.7,11.9,6.1c5.9,1.9,11.7,2.4,17.6,1.2c5.7-1.3,10.3,2.5,15.5,3.5c1.2,1.6-0.2,2-1.2,2.4c-1.4,0.5-2.9,0.4-4.4,0.5
	c-3.6,0.1-4.7,1.7-3.3,5.1c1.6,4,2.2,8.3,3.5,12.4c0.6,1.8,1.4,3.4,2.8,4.6C81.5,302.2,81.6,302.9,81,303.5z"/>
<path class="st5" d="M300.2,266c-1.4,6.5-5.3,11.2-10.7,14.8c-1.7,1.2-3.3,2.7-4.9,4.1c-4.1,3.9-9.4,4-14.6,4
	c-1.4,0-2.8-0.8-4.3-0.4c1.3,6.5-1.9,11.4-6,15.9c-2,0.1-3.2-1.1-4.2-2.6c0.6-6.2,3.1-11.8,4.6-17.8c0.9-3.4,0.5-5-3.4-4.9
	c-1.6,0-3.8,0.4-3.8-2.5c4.6-1.3,8.6-4.4,13.8-3.6c10.3,2,19.5-1.2,28-6.7C298,264.3,298,264.3,300.2,266z"/>
<path class="st6" d="M22.3,233.9c-1.2-5.2-1.4-10.6-1.1-15.9c2.6-1.1,2.6,1.2,3.5,2.5c2.3,4.8,5.1,9.2,8.9,12.9
	c3.1,4.2,8.6,5.4,12,9.3c5.8,9,13.7,15.6,23.3,20.4c4.9,2.4,9.5,5.4,14.1,8.3c1.4,0.9,2.9,2.2,2.2,4.1c-0.7,1.8-2.9,1.4-3.9,0.9
	c-6-2.8-12.2-3.7-18.7-3.4c-0.8,0-1.5-0.6-1.8-1.5c0.2-0.7,0.7-1.1,1.4-1.1c0.5,0,1,0.1,1,0.1c-3.2-2.6-7.8-4-11.2-7.2
	c-4.3-4-8.1-8.3-11.5-13C35.8,243.4,30.2,237.3,22.3,233.9z"/>
<path class="st7" d="M65.8,288.8c1.8-0.2,3.5-0.4,5.3-0.7c-3.4,6.5,2.9,10.4,3.9,15.7c-3.6,3-7.8,2.5-11.8,1.9
	c-5.8-0.8-11.1-3.4-16-6.5c-3.4-2.5-6.8-5.1-9.8-8.1c-1.1-1.1-2.7-2-2.3-4c4.9-0.2,9.8,2.4,14.6-0.2
	C55.1,287.5,60.4,288.6,65.8,288.8z"/>
<path class="st8" d="M47.3,91c3.3,0,6.6,0.1,10,0.1c2.3,0.9,4.6,0.3,6.9,0.4c1.6,0.1,3.1,0.4,3.3,2.2c0.2,1.8-1.1,2.7-2.6,3.2
	c-1.9,0.6-3.9,0.7-5.8,1.4c-9.3,3.1-11.2,7.1-7.6,16.2c0.5,1.4,1.5,2.6,1.1,4.2c-1,1.8-2.5,2.7-4.6,2.6c-2.8-1.9-7.4-0.1-9.1-4.3
	c2.7-2.5,5.4,0.4,8.1,0.4c-11-3.1-21.4-7.8-32.4-10.7c-0.5,0-1-0.1-1.4-0.2c-1-0.5-2.4-0.9-2-2.5c2,0,4,0,6,0.1
	c6.7,0.2,12.5,4.2,19.4,5.3c0.2-3-3.7-4.4-2.4-7.3C39.3,99.4,43.7,95.7,47.3,91z"/>
<path class="st7" d="M260,303.9c1.2-2.5,2.8-4.8,3.6-7.4c0.8-2.5,4.2-5.6-0.8-7.8c-0.3-0.1,0.7-0.7,1.3-0.8c7.1,1.5,14-0.4,20.9-0.9
	c5,2.5,9.9-0.2,14.9,0.1c-1.5,5-6.5,6.7-9.8,10c-1.2,1.3-3,2.1-4.6,2.9c-6,3.7-12.4,6.4-19.7,5.9C263.7,305.8,261.6,305.4,260,303.9
	z"/>
<path class="st9" d="M26.2,130c0.3-1.1,0.6-2.2,0.9-3.3c1.8-1.3,3.8-1.6,6-1.3c2.7,1,3.3,3.2,3.1,5.6c-0.7,8.6-0.9,17.3-5.8,24.9
	c-1,1.5-1.6,3.1-0.4,4.6c3.5,4.8,2,9.6-0.1,14.2c-1.5,3.2-1.6,5.4,1.5,8.2c3.6,3.1,1.5,7.4,0.2,11.1c-0.6,1.7-2.4,2.8-2.3,5.3
	c2.9,1,6.3-3.2,8.9,0.5c0.8,1.2,0.8,2.5-0.2,3.7c-2.2,1.3-4.6,2-7,2.5c-5.6,1.2-7.9-0.7-8.1-6.6c0.1-0.5,0.2-1,0.4-1.5
	c0.5-1.4,1.2-2.7,2-3.9c1.8-2.7,1.7-5.2-0.2-7.7c-1.6-2.2-2.6-4.6-2.1-7.4c0.9-3,1.8-6.1,2-9.2c0.1-2.1-0.1-4-1.4-5.6
	c-2.9-3.5-2.4-6.4,0-10.3c4-6.5,3.8-14.3,4-21.7C27.7,131.1,26.9,130.5,26.2,130z"/>
<path class="st10" d="M248.8,306.3c-7.6,5.3-15.6,9.7-24.4,12.7c-1.4-0.1-2.3-0.9-3.2-1.9c-1.3-1.7-1.9-3.7-2.3-5.7
	c-0.8-5.1,0.3-9.6,4.6-12.9c1.2-0.8,2.6-1.2,3.7-2.4c3.3-3.5,3.3-3.5,5.8,1c2.4,2.8,6.5,0.8,9.1,3.1
	C244.2,302.3,247,303.7,248.8,306.3z"/>
<path class="st11" d="M110,318.8c-8.6-3-16.4-7.4-23.9-12.4c1.2-2.9,3.7-4.4,6.1-6.1c3.2-1.1,6.4-1.6,9.7-1.8c0.8-0.2,0.9-0.8,1-1.5
	c0.5-3.7,2-3.9,4-1c0.9,1.4,2.4,1.7,3.7,2.3c5,4,6.7,8.9,4.4,15c-0.3,0.9-0.8,1.8-1.3,2.6C112.9,317.2,111.7,318.3,110,318.8z"/>
<path class="st12" d="M24,221c-1.2-0.7-0.7-3-2.7-2.9c0-1.3-0.1-2.7-0.1-4c3.5-4.3,10.6-6.5,15.7-4.8c2,0.7,3.6,1.8,4.3,3.9
	c2.6,7.9,5.9,15.5,8.2,23.4c-2.4,2.4-4.7,0.5-6.7-0.4c-6.5-3.1-11.9-7.7-16.8-13C25.2,222.5,24.6,221.7,24,221z"/>
<path class="st13" d="M287.9,91.8c3.7,3.8,7.5,7.6,12.2,10.2c0.2,0.4,0.3,0.9,0.3,1.4c-2.9,5.3-7.7,8.9-12.1,12.8
	c-1,0.9-2.4,1.9-3.9,0.4c-0.5-1.3-0.1-2.6,0.2-3.9c1.4-7.3,0.6-9.1-5.7-13.1c-2.9-1.9-6.2-3.3-8.8-5.6c-2.4-2.1-2.8-4.2,1.1-5.2
	c3.9-0.1,7.9-0.6,11.8-0.6C285,89,286.7,90.2,287.9,91.8z"/>
<path class="st14" d="M278.9,270c-2.4-0.4-1.3-1.5-0.3-2.1c8.3-5.8,13.7-14.1,19.9-21.8c3.4-4.2,7.3-8.1,13.1-9.1
	c-1.3,8.8-7.2,15.6-10.7,23.4c-0.4,0-0.8,0-1.2,0.1c-5.2,4.9-11.5,7.9-18.2,10.2C280.6,270.9,279.7,270.7,278.9,270z"/>
<path class="st15" d="M113,315.8c0-0.8,0.1-1.6,0.9-2.1c5.7,1.2,10.7,4.2,16.2,6.2c8.8,3.1,17.9,4.7,27,6.4c2.2,0.4,4.3,0.2,6.1-1.3
	c3.8-0.5,8.1,0.5,10.5-3.9c1.7-1.1,2.8-3.9,5.6-1.9c0.2,2.6-2.6,3.7-3.5,6.4c6.1,0.6,11.7-0.6,17.3-1.8c8.4-1.8,16.8-3.6,24.9-6.8
	c1.4-0.6,2.8-1,4.3-0.2c0.7,0.7,1.4,1.5,2.1,2.2c-20.9,8.8-42.6,12.8-65.3,11c-9.5-1.1-18.8-2.6-28-5.5c-4.9-1.6-9.7-3.4-14.4-5.3
	C115.1,318.5,112.9,318.4,113,315.8z"/>
<path class="st16" d="M312.1,217.7c-0.4,0.7-0.7,1.3-1.1,2c-0.4,0.6-0.9,0.7-1.5,0.3c-2.2-1.9-1.4-4.2-0.9-6.5
	c2.9-12.9,4.4-25.9,3.8-39.1c-0.6-13.3-1.1-26.6-4.8-39.5c-0.5-1.8-1-3.5-0.2-5.3c0.2-0.2,0.4-0.4,0.6-0.6c4.9,11.1,7.2,23,8.6,34.9
	c1.8,15.6,1,31.1-2.1,46.5C314,212.9,312.9,215.3,312.1,217.7z"/>
<path class="st17" d="M22.3,233.9c7.3,0.4,11.2,5.8,15.4,10.6c3.7,4.2,6.9,8.8,10.5,13.1c3.7,4.3,8,7.8,13.3,10.1
	c1.2,0.5,2.4,1.1,2.7,2.6c-1,1-2.2,0.4-3.3,0.6c-1.1,1.1-2.4,1.1-3.7,0.9c-2.6-0.9-5.6-0.9-7.7-3.1c-8.3-9.4-14.2-21-25.4-27.8
	C23,238.8,22.2,236.5,22.3,233.9z"/>
<path class="st18" d="M26.2,130c2.6-1.5,3.5-0.2,3.2,2.2c-0.8,6.4-0.1,13.7-3,18.9c-3.4,6-3.5,9.8-0.3,15.6c1.9,3.5-0.2,8.3-2,12.3
	c-0.9,2.2-1.3,4.9,0.1,6.5c3.7,4.4,2.1,8.3-0.1,12.5l0,0c-1,1.4-0.2,3.2-1,4.6c-0.9,1.6-1.8,2.9-3.4,0.7c0.4-2.8,1.3-5.4,2.1-8.1
	c0.5-1.8,0.7-3.7-0.4-5.2c-2.5-3.3-1.9-6.6-0.8-10.3c1.8-6.1,2.7-12.3-2.3-17.6C19.9,151.1,22.2,140.4,26.2,130z"/>
<path class="st19" d="M284,89.1c-4.3,0.9-8.7,1.2-13,1c-0.7-0.7-1.4-1.3-1.4-2.4c3.1-4.3,8.1-6.3,12.1-9.4
	c6-4.6,10.6-10.4,15.7-15.9c1.3-1.4,2.1-3.5,4.5-3.2c-1,3.3-2,6.6-3,9.9c-2.5,6.6-5.7,12.9-10.6,18.2
	C287.2,88.4,286.3,90.4,284,89.1z"/>
<path class="st20" d="M300,102.9c0-0.3,0-0.7,0.2-1c8.9,3.2,17.8,2.7,26.8,0.1c-2.7,3.3-7,4.2-10.1,6.9c-7,5.8-15.4,8.5-24.2,10.2
	c-4.7-1-4.9-1.6-1.8-4.9c2.5-2.6,5.1-5.1,7.6-7.7C299.3,105.6,301,104.8,300,102.9z"/>
<path class="st21" d="M198.9,34.1c3.1-1.8,5.4-4.1,4.2-8.1c2.1-1.1,3.3,0.8,5,1.2c2,0.8,3.7-0.2,5.4-1.1c1.3-0.6,2.4-2.4,4.2-0.9
	c-1.1,3.7-3.1,6.4-7.3,6.9c-2.1,0.2-3,1.8-3.4,3.7c1.5,2.9-1.3,4.7-1.8,7.1c-2.5,7.6-4.2,15.4-7.6,22.7c-0.3,0.5-0.8,0.7-1.4,0.7
	c-2-1.3-1.7-3.4-1.8-5.4c-0.2-5.1,1-10.2,1.6-15.2c0.3-2.8,1-5.6-0.4-8.2c-0.2-0.5-0.4-1-0.3-1.5C196,34.2,196.9,33,198.9,34.1z"/>
<path class="st22" d="M98.1,48.1c2.2,3.6,1.2,6.9-1.5,9.4c-4.1,3.8-8.6,7.3-13.1,10.6c-3.5,2.6-5.7,1.1-8.3-5
	C81.9,56.8,89.8,52.1,98.1,48.1z"/>
<path class="st23" d="M64,86.6c1.4,0.9,2.7,1.9,5.1,3.5c-5,0-9,0-13.1,0c-6.1-5.2-13.1-9.4-17.3-16.7c-2.1-3.6-2.2-7.9-4.7-11.3
	c-0.3-1-0.6-2-1-3c3.5,0.5,4.9,3.6,7,5.7c4.7,4.6,9,9.8,14.3,13.7C57.5,81.4,60.8,84,64,86.6z"/>
<path class="st24" d="M20.1,203c1.8,1.6,1.9-0.3,2.5-1.2c0.8-1.2,0-2.9,1.5-3.8c0,7.5,2,8.8,9.2,5.8c1.6-0.6,3.1-0.9,4.7-0.8
	c0.7,0.8,1.7-0.9,2.4,0.3c2.7,7.7,3.8,15.8,7.3,23.2c1.1,3.8,3.2,7.1,3.9,11c-0.1,0.8-0.4,1.4-1.2,1.7c-1.1-0.3-1.7-0.9-1.5-2.1
	c-3.2-6.7-5.7-13.7-8-20.7c-1.9-6-5-7.8-11.2-6.1c-3,0.8-5.7,2.4-8.6,3.7c-1.1-3.6-2-7.2-2-11C19.5,202.5,19.8,202.5,20.1,203z"/>
<path class="st25" d="M24.2,240.9c5.4,0.1,8,4.4,10.9,7.7c5,5.6,9.1,12,14.4,17.4c0.4,0.4,0.4,1.2,0.6,1.8c-0.5,0.6-1.2,0.7-1.9,0.6
	c-5.2-1.6-9.1-5.5-13.7-7.9c-0.4-0.1-0.8-0.4-1.1-0.7C30.7,253.3,25.6,248,24.2,240.9z"/>
<path class="st26" d="M20.1,203c-0.3,0-0.6,0-0.9,0c-2.9-13.6-2.2-27.2-1-40.9c4.9,2.4,6.7,7.6,4.5,15.3c-1.4,4.8-2.4,8.8,0.6,13.8
	C25.2,194.6,22.2,199.3,20.1,203z"/>
<path class="st27" d="M239.9,50.2c-3.5,4-7.2,0.7-10.5,0c-6.9-1.6-13.7-4-20.5-6.1c-1.3-2.5-0.6-4.8,1-6.9
	C220.9,39.5,230.4,44.8,239.9,50.2z"/>
<path class="st28" d="M33.1,126.1c-2,0.2-3.9,1.1-6,0.6c-8.7-6.4-16.1-14.1-21.7-23.4c2.1-1.2,3.6,1.3,5.6,0.8
	c0.7,0.6,1.4,1.3,2.1,1.9c0.3,0.4,0.5,0.7,0.7,1.1c3.9,5.2,9.3,8.4,14.8,11.4c3,1.7,6.2,3,8.6,5.7C36.7,126.6,34.8,126.1,33.1,126.1
	z"/>
<path class="st29" d="M270.8,85c-1.2-1.7,0-2.9,0.8-4.4c1.8-3.7,4.6-7,4.4-11.5c6.3-0.6,12.5-1.3,17.9-5.1c1.3-0.2,1.5,0.7,0.9,1.4
	c-6.5,7.9-13.8,15-23,19.9C271.5,85.4,271.1,85.2,270.8,85z"/>
<path class="st30" d="M132,29c1.8,1.9,3.3,4,5.9,5c0.4,0.4,0.6,0.8,0.7,1.4c-0.2,7.7,2.9,14.7,5.1,21.9c0.6,1.8,1.8,3.6,0.8,5.6
	c-3.6,1.9-4.2-1.1-5.1-3.2c-3.3-8-6.1-16.2-9.5-24.1c-0.4,0-0.8-0.1-1.2-0.3c-0.2-0.4-0.3-0.7-0.4-1.2c-0.5-0.6-0.9-1.3-1.4-1.9
	C127.5,29.2,128.1,26.6,132,29z"/>
<path class="st31" d="M129,48.1c-8.6,1.9-17.3,4.2-24.9-3c3.1-1.8,6.3-3.5,9.9-4.1c2.3,2.5,5.3,2.9,8.5,2.8c1.9,0,3.9-0.8,5.7,0.5
	c0.8,0.6,1.3,1.4,1.4,2.5C129.5,47.4,129.3,47.8,129,48.1z"/>
<path class="st32" d="M113,315.8c13.9,6.3,28.1,11.7,43.4,13.1c1,0.1,2,0.2,2.6,1.1c-17.1-0.6-33.4-4.3-49-11.2
	C111,317.8,112,316.8,113,315.8z"/>
<path class="st33" d="M159.2,13.2c-0.4-2.9,0-5.5,2.9-7.1c1.1,0.7,1,2.5,2.8,2.9c0.9-2-1.2-2.7-1.8-3.9c5.8-2.5,8.2-1.9,11.9,3
	c-1.8,5.1-5.6,7.8-10.7,8.9C161.5,17.2,160.4,15,159.2,13.2z"/>
<path class="st34" d="M149.6,29.3c2.8-2.5,6.1-4,9.5-5.2c1.1-0.8,1.7-0.4,2.2,0.7c-0.5,2.2-2.5,3.4-3.8,5c-4.1,3.6-7.2,8.1-11.9,11
	c-2.8,0.4-4.4-0.9-5.3-3.4c-0.2-1.3,0.1-2.5,1.2-3.3C144.2,32.5,145.7,28.9,149.6,29.3z"/>
<path class="st35" d="M34.1,62c1.6,0.6,2.3,2,2.6,3.4c2.2,9.4,8.8,15.3,16.2,20.5c1.5,1.1,3.1,2,3.1,4.1c-4.7,0.8-7.9-0.8-10.8-4.9
	c-2.9-4-4.6-8.7-8.1-12.3C35.8,69.3,34.4,65.8,34.1,62z"/>
<path class="st36" d="M260,303.9c8.2,2.2,15.6,0.5,22.7-3.8c1-0.6,2.2-0.8,3.2-1.2c0.7-0.6,1.5-0.6,1.9,0.1c0.5,0.8-0.2,1.4-0.9,1.7
	c-8.5,7.1-17.9,8.4-28.2,4.6c-1.8-0.7-3.5-1.8-5.6-1.7c-0.7-0.7-0.6-1.4,0-2.1c1.1-0.6,2.1-0.5,2.9,0.4
	C257.4,302.6,258.2,304.1,260,303.9z"/>
<path class="st37" d="M47.1,297.9c4.8,2.4,9.5,5,14.9,6.3c4.5,1.1,8.7,0.6,13.1-0.4c0.4,0.4,0.8,0.7,1.2,1.1
	c-11.2,5.3-21,1.9-30.3-4.7C45.5,299.1,45.2,297.9,47.1,297.9z"/>
<path class="st38" d="M34.1,102.1c0.9,1.4,1.7,2.8,2.7,4.1c0.9,1.3,3,2.3,1.8,4.1c-1,1.4-2.7,0.5-4.1,0c-5.8-2.1-11.6-4.1-17.4-6.2
	C22.9,104.1,28.6,104.3,34.1,102.1z"/>
<path class="st39" d="M121.1,19.1c3.4-1.6,6.8-2.4,10,0.6c0.1,4.4-2.1,7.1-7.6,9.4c-3,0.2-4.5-2-6.3-3.8c-0.1-2.3-0.8-5,2.9-5.3
	c0.6,0.1,1.2,0.9,1.6,0.6C122.1,20.1,121.2,19.6,121.1,19.1z"/>
<path class="st40" d="M33.3,259.9c0.2,0,0.5,0.1,0.7,0.2c4.9,2.1,8.5,6.4,13.5,8.4c2.7,1.1,5.4,2.3,8.3,2.9
	c3.8,2.2,8.4,0.5,12.2,2.7c-10.8,2.6-20.2-0.6-29-6.6c-1-0.7-3.3-5.1-3.9,0.4C33.7,265.4,33.1,262.7,33.3,259.9z"/>
<path class="st41" d="M208,28.1c-1.6-0.7-3.2-1.4-4.8-2.1c0.6-2-2.1-5.1,1.9-6.1c0.6,0.2,1.2,1,1.5,0.6c0.5-0.4-0.4-0.9-0.5-1.5
	c3.5-1.3,6.9-2.4,10,0.9C215.8,24.7,213,27.6,208,28.1z"/>
<path class="st42" d="M270.8,85c9.4-4.7,16.4-12.3,23.5-19.9c0.4-0.4,0.1-0.9-0.4-1.2c2.4-2.2,4.8-4.4,7.2-6.6
	c0.4-0.4,1.1-1.1,1.6-0.3c0.5,0.8,0,1.5-0.8,2c-1.4,0.1-1.9,1.2-2.6,2.1c-8,11-18.1,19.7-29.6,26.8c-0.6,1.2-1.6,1.7-2.9,1.6
	c-0.7-0.3-1.3-0.6-0.8-1.5C267.6,87,269.2,86,270.8,85z"/>
<path class="st43" d="M300.2,266c-2-1.9-2.8,0.4-4,1.2c-7.9,5.3-16.4,8.3-26,7.8c-1.1-0.1-2.3,0.1-3.2-0.9
	c4.9-1.7,10.3-1.6,15.1-3.7c7.2-2,12.9-6.6,18.8-10.8c0.1,0.3,0.1,0.6,0.1,0.9C300.9,262.3,301.4,264.2,300.2,266z"/>
<path class="st44" d="M210,37.2c0.3,2.4-0.5,4.6-1,6.9c-1.3,3.2-2.7,6.4-3.1,9.9c-0.1,0.8-0.6,1.4-1.4,1.7c-1.1,0.3-2,0.2-2.9-0.6
	c-0.4-4.5,3-8.3,2.5-12.8c1-2.2,2-4.4,2.9-6.6C208.1,36.2,209,36.7,210,37.2z"/>
<path class="st16" d="M303,125c5.5-0.6,9.2-4.3,13-7.7c4.3-3.9,8.1-8.2,12.1-12.3c-4.3,8-10.4,14.4-17.8,19.7
	c-1.6,1.2-3,2.1-2.2,4.3c0,0-0.3,0.2-0.3,0.2C305.1,129,302.2,129.1,303,125z"/>
<path class="st45" d="M128,45.1c-3.9-0.9-8,0.9-11.9-0.8c-1.6-0.7-3.2-1-2.1-3.2c2.5-1.4,5.1-2.6,8.1-2.8
	C125.5,39.2,129.4,39.8,128,45.1z"/>
<path class="st46" d="M54.1,69c-0.5,5,3,8.4,5,12.4c-2.8,1.1-3.4-2-5.2-2.8c-3.1-1.6-5.1-4.3-7.3-6.9c-0.3-1.5-0.1-3,0.5-4.4
	C49.4,67.8,51.8,68.4,54.1,69z"/>
<path class="st47" d="M284,89.1c5.4-3.5,8.2-9.1,11.5-14.2c1.2-1.9,1.6-4.3,3.4-5.9c-0.9,6.8-4.5,12.3-8.2,17.8
	c-1.1,1.6-2.9,2.8-2.8,5.1C286.7,90.9,284.2,91.6,284,89.1z"/>
<path class="st48" d="M47.1,297.9c-0.9,0.5-1,1.4-1.2,2.3c-4.8-2.5-8.3-6.5-12.1-10.2c-0.8-0.7-1.6-1.8-1-2.9c0.4-0.7,1.5-0.5,2.3,0
	C38.5,291.3,43.1,294.3,47.1,297.9z"/>
<path class="st49" d="M142.3,16.2c2.6-0.5,4.6,0.6,5.6,3c0.8,2,0.6,3.9-1.8,4.9c-1.6,1.3-3.2,0.8-4.9,0c-2.3-1.7-4.1-3.4-1.2-6.1
	C141.8,18.7,142.5,18,142.3,16.2z"/>
<path class="st50" d="M128,45.1c0.2-4.2-4-4.5-6-6.9c1.6-2.1,5.7-0.4,6.3-4.1c0.3,0.2,0.5,0.4,0.7,0.6c2,3.5,3.8,7,3.4,11.3
	c-0.9,1.2-1.8,2.2-3.3,1C128.8,46.3,128.4,45.7,128,45.1z"/>
<path class="st51" d="M198.9,34.1c-1.4,0.1-2.5,0.7-3,2c-1.8,0.7-3.5,0.1-4.6-1c-3.8-3.8-9.1-5.1-13.5-7.8c-0.7-0.2-1.3-0.4-1.9-0.8
	c-0.7-0.6-1.1-1.5-1.2-2.4c0.1-0.8,0.3-1.4,1.2-1.1c4.7,1.5,8.6,4.5,13.1,6.5c2.6,0,3.4,3.2,5.9,3.5
	C196.3,33.2,197.9,32.7,198.9,34.1z"/>
<path class="st52" d="M163.9,16.1c5-0.8,7.5-5.2,11.1-8.1c1.3,1.8,2.4,3.7,1,6c-2.4,2.4-4.8,5.1-8.8,4.3
	C165.8,18.1,164.1,18.2,163.9,16.1z"/>
<path class="st53" d="M172,20.8c0.4,0.4,0.7,0.9,1.1,1.3c1.1,3.7,1.9,7.3,0.2,11c-1.1,0.6-2,0.4-2.7-0.5c-1.4-2,0-4.7-1.9-7.5
	c-0.7,2.5,0,4.5-0.9,6.2c-0.5,0.7-1,1.2-1.9,0.7c-0.9-1.1-1-2.5-1.1-3.9c0.1-2.4-0.3-5,1.6-7.1C168.1,19.9,170,18.8,172,20.8z"/>
<path class="st54" d="M47,71.6c2.3,2.2,4.7,4.4,7,6.6c0.4,0.5,0.4,1-0.1,1.4c-5.9-4.4-10.8-9.8-15.5-15.4c-1.6-1.9-2.8-4.2-5.3-5.1
	c0.3-1.8,0.4-1.9,1.3-1.1c2.3,1.9,4.5,4,6.7,6C42.3,67.1,46.7,67.7,47,71.6z"/>
<path class="st55" d="M117.2,25.3c2.4-0.1,3.4,2.9,5.8,2.8c2.3,1.3,3.5-1.1,5.2-1.7c1.5-0.6,2.7-2.7,4.7-1.3
	c-0.3,1.3-0.6,2.6-0.9,3.9c-3.2-1.3-3.6,1.7-5,3.2c-1.1-0.3-2.2-0.9-3.2-0.9C119.4,31.6,117.6,29.2,117.2,25.3z"/>
<path class="st56" d="M286.9,300.8c0.6-1.1,0.6-1.9-1-1.9c4.9-3.7,9.7-7.5,14-11.8c0.6,0.1,1.2,0.1,1.8,0.2
	c-0.3,0.5-0.5,1.1-0.8,1.6c-1.6,2.3-3.6,4.3-6,6C292.3,296.9,290.9,300.6,286.9,300.8z"/>
<path class="st57" d="M188.2,22c-0.2-1.3-0.8-2.7,0.7-3.8c1.7,0.4,2.5-0.2,2.4-2c2.6-0.5,4.3,0.7,5.7,2.7
	C196.5,24.6,193.5,25.6,188.2,22z"/>
<path class="st58" d="M141.2,24.1c1.6,0,3.2,0,4.9,0c0,2.5,0.6,4.7,3.5,5.2c-2.5,1.6-5.1,3.3-7.6,4.9c-0.3-0.2-0.3-0.5-0.2-0.7
	c0.1-0.2,0.2-0.4,0.3-0.4C143.5,29.9,144,26.9,141.2,24.1z"/>
<path class="st59" d="M194.9,33c-2.2,0.5-2.2,0.5-5.9-3.5c0.6-1.7,2.9-3,1.1-5.2c1.8-0.7,3.7-1.7,5,0.8
	C193.8,27.7,193.9,30.3,194.9,33z"/>
<path class="st60" d="M285,287c-6.9,2.5-13.9,2.6-20.9,0.9c2.7-2.3,5.4,0.4,8.1,0c4.3-0.6,8.4-1.6,12.5-3
	C284.8,285.6,284.9,286.3,285,287z"/>
<path class="st61" d="M252.9,302c0.1,0.5,0.1,1.1,0.2,1.6c-1.4,0.9-2.9,1.8-4.3,2.7c-3.1-0.7-5-3-6.7-5.4
	C245.9,298.5,249.4,300.1,252.9,302z"/>
<path class="st62" d="M163.9,16.1c4.6,2.9,8.2-0.3,12.1-2.1c-0.4,0.6-0.7,1.2-1.1,1.9c-3,4.6-7.2,4.8-11.8,3.3
	c-2.2-1.4-4-3.1-3.9-6.1C160.9,14,161.9,15.9,163.9,16.1z"/>
<path class="st63" d="M92,301c-1.4,2.5-3.3,4.3-5.9,5.4c-1.7-0.9-3.4-1.9-5.1-2.8c0.1-0.5,0.1-0.9,0.2-1.4
	C84.6,300,88.2,299.7,92,301z"/>
<path class="st64" d="M132.9,25.1c-3.4,0.6-5.6,5.4-9.9,3c3.9-1.7,6.9-4.2,8.1-8.5C132.8,21.1,133.5,22.9,132.9,25.1z"/>
<path class="st65" d="M166.9,21c-0.3,2.3-0.6,4.6-0.9,6.9c-2.7,0.9-4-0.6-4.9-2.8c-0.6-0.3-1.2-0.7-1.9-1c1.1-2.5,5.1-0.8,5.8-3.9
	C166,19.4,166.4,20.2,166.9,21z"/>
<path class="st66" d="M208,28.1c3.9-1.6,6.6-4.2,8.1-8.2c1.2,1.5,1.9,3.2,1.8,5.2C214.4,25.8,212.2,30.5,208,28.1z"/>
<path class="st67" d="M65.8,288.8c-5.4-0.1-11,0.9-16.1-1.9c0.1-0.7,0.2-1.3,0.3-2C55,287.3,60.6,287.1,65.8,288.8z"/>
<path class="st68" d="M163.1,5c2.1,0.4,4.4,0.7,4,3.7c-0.2,1.4-1.4,2.4-2.8,2c-2.6-0.6-2.3-2.7-2.2-4.7C162.4,5.7,162.7,5.4,163.1,5
	z"/>
<path class="st52" d="M166.9,21c-0.6-0.3-1.3-0.5-1.9-0.8c-0.7-0.2-1.5-0.1-1.9-1c4.3,0,8.5,0.1,11.8-3.3c0.8,2.7-3,2.7-2.9,4.9
	C170.3,20.9,168.6,20.9,166.9,21z"/>
<path class="st69" d="M47,71.6c-1.9-2.6-5.9-3.5-5.9-7.6c2,1.1,4,2.2,5.9,3.3C48.3,68.7,47.6,70.1,47,71.6z"/>
<path class="st70" d="M172.7,33.2c1.1-3.7-1.1-7.4,0.4-11.1c1.1-0.1,2.2-0.3,2.9,0.8c-0.2,0.4-0.5,0.8-0.7,1.2
	c0,0.3-0.1,0.5-0.1,0.8c-0.1,3.3,0.9,6.7-0.6,9.9c-0.6,0.7-1.5,0.9-2.1,0.3C171.5,34.5,172.1,33.8,172.7,33.2z"/>
<path class="st71" d="M195.1,25.1c-1.4-1.6-3.3-0.8-5-0.9c-1.1-0.4-1.7-1.1-1.9-2.2c3.7,1.2,7.4,2.5,8.8-3
	C199.1,21.9,197.1,23.5,195.1,25.1z"/>
<path class="st72" d="M206.1,19.1c1.6-0.1,3.1-0.1,2.9,2.1c0,0.8,0,1.8-1.1,1.9c-2.3,0.2-2.6-1.5-2.9-3.1
	C205.4,19.6,205.7,19.3,206.1,19.1z"/>
<path class="st73" d="M121.1,19.1c1.6-0.1,3,0,2.9,2.1c0,0.9-0.2,1.7-1.2,1.8c-2.3,0.2-2.7-1.3-2.7-3.1
	C120.4,19.7,120.7,19.4,121.1,19.1z"/>
<path class="st74" d="M142.3,16.2c-0.2,1.3,2.7,1.4,1.2,2.9c-1.5,1.5-2.8,0.9-3.5-1.1C140.4,17,141.1,16.2,142.3,16.2z"/>
<path class="st75" d="M191.3,16.3c0.1,1.1,2.5,1.4,1.4,2.8c-1.3,1.5-2.9,1.1-3.8-0.8C189.3,17,190,16.2,191.3,16.3z"/>
<path class="st76" d="M142,33.1c0,0.4,0,0.7,0,1.1c-0.3,1-0.7,2-1,2.9c-0.9,0.5-1.5,0-2.2-0.5c-0.4-0.4-0.7-1-0.7-1.6
	c-0.1-0.3-0.2-0.7-0.2-1C139,32.7,140.6,33.3,142,33.1z"/>
<path class="st7" d="M294.9,294.9c1.6-2.4,3.6-4.4,6-6C299.9,291.9,297.9,293.9,294.9,294.9z"/>
<path class="st77" d="M328.9,104.1c0.1-1.4-0.6-2-1.9-2c1.2-1.4,2.9-1.8,5.1-2.8C331.2,101.5,330.3,102.9,328.9,104.1z"/>
<path class="st78" d="M204.9,55.1c0.4-0.4,0.7-0.8,1.1-1.1c14.4,5.1,28.3,11.3,40.5,20.8c4.4,3.5,9.1,6.6,12.5,11.3
	c-0.4,0.3-0.8,0.5-1.3,0.5c-3.2-0.9-5.2-3.5-7.6-5.5c-12.1-10.1-25.8-17.5-40.6-22.7C207.6,57.7,205.3,57.7,204.9,55.1z"/>
<path class="st79" d="M257.9,86.1c0.3,0,0.7-0.1,1-0.1c2.3,0.8,3.6,5.4,7.1,2c0.3,0.3,0.6,0.7,0.9,1c-0.1,2.9,1.5,4.9,3.3,6.9
	c3.1,3.6,5.9,7.5,8.5,11.5c1,1.6,2.5,3.2,1.5,5.4c-0.4,0.3-0.8,0.4-1.3,0.4c-3-2-4.2-5.4-6.3-8.2c-2.3-3-4.7-5.9-7.4-8.6
	c-1.1-2.4-3.2-4.1-4.9-6C259.2,89.3,257.4,88.3,257.9,86.1z"/>
<path class="st80" d="M303,125c0.3,2.9,3.4,2.5,4.8,4.1c3.8,11.9,4.8,24.3,5.9,36.7c0.7,8.1,0.6,16.2-0.2,24.4
	c-0.8,9.1-1.8,18.1-4.3,26.9c-0.2,0.8,0.5,1.9,0.8,2.8c0.4,2.2-1.1,3.4-2.2,4.9c-2.8,1.8-4.7,5.4-8.7,5.2c-0.4-6.2,1.9-12,3.1-18
	c3-14.2,6-28.4,6.3-42.9c0.1-2.6,0-5.3-0.5-7.8c-2.2-10-2.4-20.3-5.4-30.1C301.8,129,301.2,126.9,303,125z"/>
<path class="st81" d="M298,194c-0.4,12.9-4.3,24.9-9.4,36.7c-0.7,1.7-1.8,3.2-1.8,5.1c0,0.9-0.4,1.5-1.1,1.9
	c-3.1,0.6-5.6,4.4-9.2,1.3c-0.2-2.1,0.9-3.8,1.7-5.6c10-21.1,13.1-43.3,10.8-66.4c-0.2-1.8-0.5-3.7,0.9-5.2c5.3,0.8,9.8,5.3,9.1,9.9
	c-1,6.6-0.3,13.3-0.6,19.9C298.4,192.4,298.5,193.3,298,194z"/>
<path class="st82" d="M291.9,118.2c8.9-1.5,16.8-5.6,24.9-9.3c-0.1,3.7-3.5,5-5.6,7.1c-3.9,4-8.5,7.2-14.3,8
	c-3.5-0.2-2.5,2.1-2.2,3.9c0.8,3.9,2.4,7.6,2.3,11.6c0,2.1,0.7,5-3.1,4.8c-1.2-0.8-1.7-2-2.1-3.2c-1.6-5.4-3.9-10.5-6.2-15.6
	c-2.8-6.3-2-7.5,4.8-6.9C291,118.6,291.5,118.4,291.9,118.2z"/>
<path class="st83" d="M292.8,141c0.4,1,0.8,2,1.2,3c4.3,5.8,4.3,12.8,5.2,19.5c0.4,3.4,2.4,7.1-0.2,10.6c-0.6,6.6,1,13.4-1,20
	c0-6.2-0.4-12.3,0-18.4c0.5-6.6-2.3-10.8-7.9-13.5c-0.6-0.3-1.3-0.7-1.4-1.3c-1.9-8.1-5.2-15.9-6.2-24.2
	C287.2,135,289.9,138.3,292.8,141z"/>
<path class="st84" d="M299,174c-0.6-10.2-2.4-20.2-5-30c3.4-1.8,1.9-4.9,1.5-7.4c-0.5-3.2-1.7-6.4-2.4-9.6c-0.3-1.2-1.7-2.6-0.2-3.6
	c1.2-0.8,2.9-0.8,4,0.6c-1.4,3.2,0.6,6,1.2,8.9c2.2,10.2,2.9,20.6,3.9,30.9c0.6,5.8-0.2,11.5-0.1,17.2c0,1.8,0.1,3.6-1.5,5.2
	C299,182.1,301.2,177.8,299,174z"/>
<path class="st85" d="M285.8,236.9c0.3-0.4,0.7-0.8,1-1.1c4.5-0.9,8.4-3.2,12.1-5.8c2.9-2,5.8-4,8.6-6c-2,5.6-5.6,9.6-11.7,11
	c-1.6,0.1-2.9,0.9-4.1,1.9c-0.9,1.1-1.9,2.2-3.5,2.5C286.5,239.6,285,239.5,285.8,236.9z"/>
<path class="st86" d="M52.1,119c-1.6-3.4-2.9-6.8-3.5-10.6c-0.7-4.2,0.6-6.7,4-8.5C56,98,59.4,96,63.6,96c1.4,0,2.9-0.2,3-1.8
	c0.1-2-1.7-2-3.2-2.2c-2.1-0.3-4.3,0.8-6.2-0.9c3.3,0,6.6,0,9.9-0.1c2.9-0.1,5.4-0.6,4-4.6c-0.4-1-0.1-2.3-0.1-3.5
	c-0.1-2.4,0.1-4.9,2.2-6.2c2.1-1.3,3.2,1.2,4.4,2.2c3.3,2.8,5.6-0.2,8.4-0.9c0.1,0.2,0.1,0.5,0.2,0.7c-0.4,1.9-1.8,3.1-3.1,4.4
	c-10.8,10.2-20.7,21.1-27.9,34.2c-0.7,1.2-1.3,2.8-3.1,2.9c-0.3-0.2-0.4-0.5-0.3-0.8C51.9,119.1,52,119,52.1,119z"/>
<path class="st87" d="M86.1,78.1c0.5-1.3,1.5-2.2,2.6-2.9c7.4-4.7,11.5-11.8,14.7-19.7c1.3-3.3,3.2-5.4,7.1-3.5
	c5.2,2.5,10.4-0.2,15.5-0.5c1.3-0.1,2.6-0.3,3.9-0.5c1.2,0.8,1.8,1.9,1,3.3c-4.5,2.8-9.6,1.8-14.5,1.8c-4.5,0-7.7,1-8.9,5.8
	c-0.6,2.3-2.7,3.7-4,5.6c-4.3,4.3-9.9,6.9-14.7,10.5C88.1,78.7,87.1,78.9,86.1,78.1L86.1,78.1z"/>
<path class="st88" d="M131.2,54c-0.4-1-0.8-1.9-1.2-2.9c-0.3-1-0.7-2-1-2.9c0.1-0.4,0.1-0.8,0.2-1.2c0.8-0.3,1.7-0.6,2.5-0.9
	c4.2,1.1,3.3,4.5,3.4,7.4c-0.3,1.2-1,2-2.3,2.1C131.8,55.4,131.3,54.9,131.2,54z"/>
<path class="st89" d="M53.9,79.6c0-0.5,0.1-0.9,0.1-1.4c1.7,1,3.4,2.1,5,3.1c1.8,1.7,4.2,2.7,4.9,5.3C60.3,84.7,56.9,82.5,53.9,79.6
	z"/>
<path class="st90" d="M282.9,270.9c-5.1,1.8-10.3,3.8-15.9,3.1c-5.2-1.4-9.3,2.2-14,3.2c-4.4,2.6-8.7-0.2-13.1-0.1
	c-0.5-0.1-1-0.3-1.5-0.5c-1.7-1.5-0.5-3,0.3-4.3c1.9-3,3.7-6.1,6.3-8.6c0.8-0.8,1.7-1.7,2.5-2.5c4.4-3.6,9.2-6.7,14.1-9.5
	c8.6-4.4,18-6.4,26.8-10.1c0.5-0.1,1,0.1,1.4,0.4c2.5,0.3,0.9,1.3,0.4,2.2c-7.1,11.3-17.8,18-29.3,23.8c-2.9,1.5-5.7,3.3-8.5,5.1
	c-0.6,0.4-1.4,1.1-0.9,2.1c0.4,0.9,1.5,1,2.1,0.6c7.7-5,17.1-2.7,25.3-5.8c1,0,2,0,3-0.1C282.9,269.5,283.1,270,282.9,270.9z"/>
<path class="st91" d="M289.9,242c-0.3,0-0.7,0-1,0c-4,1.2-7.6,3.4-11.8,3.8c-2.9-1.4-2.1-3.3-0.9-5.4c0.2-0.2,0.4-0.3,0.7-0.5
	c3.1-0.6,5.7-2.8,8.9-2.9c2.1,4,4.1-0.6,6.1,0C292.6,239.1,290,240,289.9,242z"/>
<path class="st92" d="M295.9,234.9c4.7-2.8,8.7-6.4,11.7-11c0.8-1.3,1.5-2.7,2.3-4c0.4-0.1,0.7-0.2,1.1-0.2
	c-2,8.6-8.8,13.5-15.3,19.7C295.6,237.4,297.4,236.1,295.9,234.9z"/>
<path class="st90" d="M68,274.1c-4.4-0.4-8.9,0.6-13-2c-0.1-1.9,0.9-1.7,2.1-1.1c1.3,0,2.7,0,4,0.1c2.5,1.9,5.5,0.6,8.2,1
	c3.8,0.5,7.4,1.7,10.8,3.4c1.4,0.7,3.6,1.4,4.4-0.4c0.7-1.5-1.3-2.4-2.6-3.1c-6.4-3.7-12.8-7.6-19.4-11.1
	c-7.5-4.1-12.6-10.5-17.8-17c-0.1-0.1,0.3-0.5,0.4-0.8c0.4-0.4,0.8-0.6,1.4-0.6c9.2,2.3,18.1,5.5,26.7,9.4
	c5.1,3.4,10.4,6.5,15.2,10.4c0.9,0.8,1.7,1.7,2.4,2.7c2,3.6,5.9,6.1,5.7,10.8c-0.3,0.5-0.6,0.9-1.1,1.1c-3.8,0.6-7.5,2.8-11.3,0.4
	c-3.8,0.6-6.8-1.8-10.2-2.7C72,273.9,69.9,274.1,68,274.1z"/>
<path class="st93" d="M84,277.1c4-0.4,8-0.7,12-1.1c0.5,0.7,0.6,1.3-0.1,1.9c-5,1.7-10.3,1.9-15.5,2.3c-5.2,0.4-5.4,0.7-3.9,5.6
	c0.5,1.6,0.8,3.2,1.3,4.8c0.3,1.1,0.7,2.3,1,3.4c1.4,5.4,1.4,5.4,9.2,4.6c1.4-0.1,2.9-0.2,4.2-0.6c7.4-0.8,7.2-0.8,5.3-8.1
	c-1-3.9-3.8-7.5-1.8-11.9c0.4-0.4,0.9-0.5,1.4-0.2c3.2,6.7,5.8,13.6,5.8,21.1c-3.5,1.4-7.4,1.4-11,2.1c-3.6,0.4-7.2,0.7-10.8,1.1
	c-1.9,0.1-2.9-0.8-3.5-2.7c-1.6-5.9-3.3-11.8-5.2-17.6c-0.8-2.4,0.6-2.7,2.3-3.3C77.8,277.4,81.2,278.8,84,277.1z"/>
<path class="st94" d="M238.9,275.9c4.7,0.4,9.4,0.9,14,1.3c0.4,0.2,0.9,0.6,1.3,0.6c8.7,1,8.7,1,6.3,9.5c-1.4,4.9-3,9.8-4.6,14.7
	c-1,0-2.1,0-3.1,0.1c-3.6-0.4-7.2-0.7-10.9-1.1c-3.1-2-7.6,0.7-10.2-3.1c0.1-7.3,2.9-13.8,5.3-20.5
	C237.6,276.7,238.3,276.4,238.9,275.9z"/>
<path class="st95" d="M24,221c0.6,0.3,1.2,0.6,1.8,1c3.2,3.8,7.1,7,9.6,11.4c-0.5,1.2-1.2,1.5-2.3,0.7C28.8,230.5,25.9,226.1,24,221
	z"/>
<path class="st96" d="M33.1,234c0.6-0.3,1.3-0.6,1.9-0.9c3.9-0.7,3.5,4.5,6.7,4.8c1.8,1.3,4.3,1.4,5.6,3.5c0.1,0.8-0.4,1.2-1.1,1.5
	c-0.3,0-0.7,0.1-1,0.1C41.2,239.9,35.9,238.5,33.1,234z"/>
<path class="st97" d="M52.1,119c0,0.4,0.1,0.8,0.1,1.2c0.2,0.3,0.5,0.6,0.4,0.9c-2.9,8.2-5.7,16.4-9.8,24.1c-0.5,0.4-0.2-0.6-0.5,0
	c-1.5,2.6-0.9,5.9-2.6,8.4c-1.8,2.7-3.5,5-1.9,8.6c1.2,2.6-0.5,5.1-2,7.4c-1.6,2.4-3.2,4.8,0.2,7.2c1.6,1.2,1.2,3.3,1.3,5.1
	c0.3,4.3-0.8,8.6,0.2,12.9c0.5,2,0.9-1.2,1.4,0c2.1,2.5,1.9,5.1,0.3,7.8c-0.2,0.5-0.5,1-0.7,1.4c-0.2-0.4-0.4-0.7-0.5-1.1
	c0-4.6-2.3-4.6-5.4-2.7c-1.5,0.9-3,2.8-4.7,0.7c-1.8-2.2-0.3-3.9,1.2-5.6c4.3-5.1,3.9-9.8-1.2-13.5c-1.9-1.4-1.5-2.5-0.7-4.2
	c1.2-2.7,2.1-5.6,3.3-8.3c1.3-3,0.8-5.7-1.4-7.8c-2.6-2.6-2-4.5,0.4-6.6c1.4-1.2,2.3-2.9,2.6-4.7c0.9-6.5,3.1-12.8,3-19.5
	c0-2-0.5-3.5-2-4.8c1.4-0.7,2.7-1.3,4.1-2c3.1-2.4,6.3-4.7,10.6-3.2C49.5,120.8,50.3,118.8,52.1,119z"/>
<path class="st98" d="M47.9,120.9c-3.5,1.1-7.1,2.2-10.6,3.2c-8.9-4.1-17.6-8.5-24.4-15.9c-0.2-0.2,0.1-0.8,0.2-1.2
	c2.3-0.6,4.1,0.8,6,1.7c5.2,2.6,10.5,4.9,16,6.5c1.4,0.5,3,0.6,4,1.9C41.3,120,46,117.3,47.9,120.9z"/>
<path class="st99" d="M39.1,117c-1.4-0.1-2.8,0.4-4-0.7c-5.6-2.8-11.6-4.4-17-7.6c-1.4-0.8-3.2-1-3.9-2.8c5.2-1,9.1,2.6,13.7,3.8
	c6.9,1.8,13.5,5,20.9,7.9C45,118.6,42.1,116.3,39.1,117z"/>
<path class="st100" d="M14.2,106c7,3.4,14,6.9,20.9,10.3c-7.8-1.9-15-5.6-22-9.3c0-0.3,0.1-0.7,0.1-1C13.5,106,13.8,106,14.2,106z"
	/>
<path class="st24" d="M24.1,198c1.2-4.2,2.4-8.2-1.3-12.2c-1.6-1.7,0.2-4.6,1.3-6.8c0,1.7-0.3,3.5,1,4.8
	C30.2,188.9,27.9,193.5,24.1,198z"/>
<path class="st101" d="M224.2,299c-3.5,3.6-5.2,7.8-4.2,12.9c-6.6,3.7-14,5.1-21.1,7c-4,1.1-8,2.2-12.2,2.4c-2,0.1-4.2,0.2-5.1-2.1
	c-0.8-2.1,0.5-3.5,2.1-4.6c1.9-1.3,2.8-3.2,4-5c2.9-2.2,6.6-2,9.9-3c4.2-0.6,8.3-1.6,12.1-3.6c0.6-0.3,1.2-0.6,2.1-0.8
	c-2.3-0.2-4.3,0.1-6.3-0.2c-1.5-0.2-3.4,0.1-3.6-2.3c7.5-3.7,15.6-6.3,23.3-9.5c3.2,0.2,2.5,2.4,2,4.3
	C226.8,296.5,225.7,297.9,224.2,299z"/>
<path class="st102" d="M188.1,310.1c0.1,3-1.9,4.4-4,5.8c-1.2,0.8-2.4,1.6-1.7,3.1c0.6,1.3,2,1.3,3.4,1.2c8.2-1,16.2-3.3,24.1-5.7
	c3.3-1,6.7-1.7,10.1-2.6c0.8,1.6,1.5,3.3,2.3,4.9c-14.4,5.4-29.3,9.1-44.7,10.5c-1.6,0.1-3.2,0.3-4-1c-0.8-1.5,1-2.2,1.7-3.2
	c1.2-1.5,3.2-2.4,3.5-4.6c0.5-3.2,3.5-4.5,5.3-6.8c0.8-0.8,1.6-1.5,2.7-1.9C187.3,309.6,187.7,309.7,188.1,310.1z"/>
<path class="st103" d="M224.2,299c0.3-2.8,4.3-5.1,1.3-8.4c1.5-3.9,2.4-8.1,5-11.5c1.3-0.8,2.9-1.6,4.1-0.3c1.3,1.5-0.4,2.8-0.7,3.9
	c2.2-1.1,0.4-5.6,4.3-5.8c-2.1,7-4.1,14-6.2,20.9c-1.4-0.8-0.5-2.5-1.9-3.8C228.5,296.3,227.6,299.4,224.2,299z"/>
<path class="st104" d="M164,324.8c-0.1,2.4-1.5,3.3-3.6,3c-16.3-2.1-32.2-5.3-46.4-14.1c2.2-5.8,0.6-10.7-3.8-14.8
	c-0.7-0.6-0.6-1.3-0.2-2.1c4.1,0.2,8,1.1,11.3,3.6c0.6,0.4-1.7,0.4-0.1,1.1c6.2,2.8,12.8,4.5,19.4,5.9c1.4,0.3,3,0.3,3.7,1.9
	c-1.4,3.6-5.4,3.3-8.5,5.5c6.4,4.1,12.8,6.9,20,8.1c1.4,0.2,2.5-0.5,3.6-1.3c0.4-0.2,0.9-0.3,1.3-0.4
	C162.4,322,163.5,323.1,164,324.8z"/>
<path class="st105" d="M109.9,297c0.1,0.6,0.2,1.3,0.2,1.9c-3.3,0.7-4-2.2-5.5-4.2c-1.2,1.3-0.2,2.9-0.8,4.2
	c-0.1,0.1-0.3,0.2-0.4,0.2c-0.1,0-0.3-0.1-0.4-0.2c-2-7-4.1-14-6.1-20.9c1.9-0.8,2.9-3.4,5.5-2.6c3.8,3.8,3.8,9.2,5.9,13.7
	C108.8,291.7,110.5,294.1,109.9,297z"/>
<path class="st106" d="M41.2,238.8c-3.4-0.4-3-5-6.2-5.7c-3.6-3.3-6.8-6.9-9.2-11.2c3.6,3,7.2,6.2,10.9,9.1c3.7,2.8,7.7,5,12.3,6.1
	c0.4,0.6,0.8,1.2,1.2,1.8C47.1,240.8,44.2,237.6,41.2,238.8z"/>
<path class="st107" d="M292.8,141c-3.3-1.7-6.5-3.3-9.8-5c-0.3-0.1-0.8-0.1-0.9-0.3c-3.9-6.9-8.2-13.6-10.7-21.2
	c2.2-2.1,5.3,0.6,7.5-1.5c0.3,0,0.7,0,1,0c3-0.4,2.9,3.1,4.9,4c6.3-3.4,10.4-9,15.1-14.1c3.3,1.1,1,2.4,0,3.4c-3,3.1-6,6.2-9.2,9.2
	c-2.2,2-1.2,2.6,1.1,2.7c-7,2.1-6.8,2-3.9,9.3C289.8,131.9,292.4,136.1,292.8,141z"/>
<path class="st108" d="M284.9,117c-3.6,1.1-2.4-3.7-4.9-4c-2.8-7.6-8.5-13.4-13.4-19.6c-1.6-2-1.4-3,0.3-4.3
	c0.9-0.6,1.7-1.3,2.8-1.1c0.9,0.4,1.1,1.2,1.2,2.1c-4.1,1.5-0.6,2.8,0.3,3.5c2.6,1.8,5.4,3.1,8.1,4.7c7.5,4.5,8.5,7,6.5,15.4
	C285.6,114.8,285.2,115.9,284.9,117z"/>
<path class="st3" d="M282.9,270.9c-0.3-0.3-0.7-0.7-1-1c6.3-3.3,13.2-5.7,18.1-11.3c0.3-0.4,0.7,0.4,0.8,0.9
	C295.8,264.7,290,268.8,282.9,270.9z"/>
<path class="st109" d="M164,324.8c-1-1-2-1.9-3-2.9c-0.8-0.6-1.6-1.1-1.5-2.2c0.5-1.6,1.7-2.2,3.2-2.4c2,0,3.1,1.7,4.6,2.6
	c1.6,1.1,3-0.6,4.5-0.3c1,0.5,1.7,1.3,2.1,2.3C171.5,325.5,168.5,328.1,164,324.8z"/>
<path class="st110" d="M174.1,322c-1.4-0.1-2.1-0.9-2.2-2.3c0.4-4,4.4-5.3,6.2-8.3c0.5-0.5,1-0.9,1.7-1c2-0.2,4.1-1,5.3,1.6
	c-2.1,2.2-4.2,4.3-6.3,6.5C177.3,319.6,175.7,320.8,174.1,322z"/>
<path class="st6" d="M57.1,270.9c-0.9,0.1-1.7,0.2-2.1,1.1c-2.9-0.3-5.4-1.7-8-3c-0.2-1,0-1.4,1.1-1.2c0.7,0,1.3,0,2,0.1
	C52,270,55.1,269.2,57.1,270.9z"/>
<path class="st111" d="M196.9,66c0.3,2.5-1.3,3.5-3.4,3.8c-3.9,0.5-7.7,0.9-11.6,1.4c-0.5-0.6-0.6-1.3-0.4-2
	c0.5-0.9,1.4-1.1,2.3-1.5c1.2-0.4-0.6-0.6-0.2-1c0.9-2.4,2.9-0.6,4.3-1.2c-0.8-0.1-1.7,0.1-2.3-0.6c0-0.8,0.5-1.3,1.2-1.7
	c0.9-0.4,1.9-0.6,2.9-0.8c2.9-1.8,2.2-4.9,2.8-7.5c1.2-5.5,0.7-11.3,2.4-16.7c0.2-0.5,0.6-0.9,1-1.2c2.2-0.9,1.9,0.7,2,2
	c0.2,5.1-1.1,10-1.5,15.1C196.1,58.1,195.1,62.1,196.9,66z"/>
<path class="st112" d="M196,37.1c-0.1,0.2-0.1,0.5-0.1,0.7c-0.6,1.8-1.8,2.7-3.7,3c-0.5,0-0.9-0.1-1.4-0.2
	c-4.6-3.5-8.2-7.9-12.3-11.9c-0.6-0.7-1.1-1.5-0.9-2.5c3.8,2,8.3,3,11.5,5.9c2,1.8,4.2,3.1,6.7,4.1C196,36.4,196,36.7,196,37.1z"/>
<path class="st113" d="M199.8,62.1c-1.1,0.8-0.3,3.2-2.5,3.1c2.3-7.6,4.6-15.2,6.9-22.8c1.4,4.6-1.9,8.4-2.2,12.7
	C202.7,57.9,201.9,60.2,199.8,62.1z"/>
<path class="st114" d="M137.8,61.9c-25,5.7-45.8,18.6-62.4,37.8c-27.2,31.4-36.2,67.9-27.9,108.6c0.3,1.5,0.5,2.9,0.8,4.4
	c0.6,4.9-0.1,9.8-1.2,14.6c-3.8-6.6-5-14-6.8-21.2c-0.3-1.1-0.6-2.2-0.9-3.3c-0.1-2.7-0.1-5.4-1.1-8c-0.5-0.5-1-1.1-1-1.7
	c0.7-9.2-1.3-18.3,0.3-27.6c1-5.6,1.5-11.2,3-16.7c0.4-1.3,0.8-2.5,1.7-3.5c2.9-8.5,6.1-16.9,10-25c8.5-15.1,18.9-28.5,32.2-39.7
	c0.7-0.6,1.2-1.6,1.8-2.3c6.1-3,11.2-7.5,17.1-11c8.3-7,18.2-10.4,28.7-12.2c0.8,0.1,1.6,0,2.1-0.8
	C138.5,55.2,138.1,58.6,137.8,61.9z"/>
<path class="st115" d="M47,227.2c-1.7-5,0.4-9.7,1.2-14.6c3.1,9.4,6.4,18.7,11.1,27.4c0.4,1.1,0.1,2-1.2,2.3
	c-3.1-0.3-6.2-0.5-7.1-4.4C49.7,234.4,47.3,231.2,47,227.2z"/>
<path class="st116" d="M51.1,238c1.5,2.8,4.7,2.4,7,3.8c-0.8,1.8-2,2.9-4.1,2.9c-2.4-0.8-5-1-7-2.9c-2-1-3.9-2.1-5.9-3.1
	c3-3.4,6,0.2,9,0.1C50.5,238.6,50.8,238.3,51.1,238z"/>
<path class="st17" d="M48.1,267.9c-0.4,0.4-0.7,0.8-1.1,1.2c-4.9-2.2-9.1-5.4-13-9c0.5-0.8,1.3-1.2,2-0.5
	C39.4,263.3,44.1,265,48.1,267.9z"/>
<path class="st117" d="M138.1,35c0.3,0.3,0.6,0.7,1,1c4.6,4.7,4.5,11.2,6,17c0.9,3.7,3.6,7.2,2.1,11.4c-1.4,0.6-2.7,0.9-3.2-1.2
	c-1.7-7.5-5.2-14.5-6.5-22.1C137.1,38.9,136.3,36.8,138.1,35z"/>
<path class="st118" d="M144,63.1c0.8,1.1,2,0.9,3.1,0.9c0.6-0.5,1.3-0.6,2.1-0.5c0.7,0.3,1.2,0.8,1,1.7c-0.8,0.9-1.9,1.2-3,1.7
	c-1.7,0.3-2.2,2.8-4.3,2.4c-0.3,0-0.5-0.1-0.7-0.2c-3.4-4.5-4.4-10-6.2-15.1c-2.1-6.2-5.5-12-6-18.7c0.3-1.5,0.6-1.8,1.3-0.1
	c3.2,8.3,6.5,16.5,9.6,24.8C141.4,61.5,141.9,63,144,63.1z"/>
<path class="st119" d="M129.9,35.2c4.1,11.3,8.1,22.5,12.2,33.8c-4.1-0.8-2.9-4.7-4.3-7.1c-1.5-2.4-1-5.8-3.7-7.7
	c0-2.9-0.1-5.9-2.4-8.1c-0.1-4-2.7-7.3-2.7-11.3C129.3,34.9,129.6,35,129.9,35.2z"/>
<path class="st120" d="M149,64c-0.7,0-1.3-0.1-2-0.1c-3.6-9.1-4.3-19-8-28c0.6,0.4,1.3,0.8,1.9,1.2c1.3,1.5,2.3,3.8,5,2.8
	c1.7,3.1,4.2,3.3,7,1.7c1.4-0.8,2.4-2.2,3.6-3.3c4.7-4.7,4.7-4.7,0.4-9.2c0.9-1.7,2.4-2.9,4-4c1.6,0.9,3.3,1.8,4.9,2.8
	c0.1,1.4,0.3,2.8,0.4,4.2c-0.2,3.2-3,4.5-4.8,6.5c-2.7,3.1-5.9,5.6-8.5,8.9c-0.6,4.2,4,4.4,5.5,7c2.8,3.4,6.7,5.8,8.8,9.8
	c0,1.1-0.6,1.8-1.5,2.4c-1,0.4-1.9,0.4-2.9-0.1c-2.5-2.8-5.4-5.2-8.6-7.4c-2.5-1.7-4.3-2-4.1,2C150.5,62.4,150.4,63.5,149,64z"/>
<path class="st121" d="M157,29.1c1.2,0.5,2.5,0.8,3.7,1.5c2.1,1.2,2.8,2.7,0.7,4.7c-2.5,2.4-4.9,5-7.4,7.3c-2.5,2.3-7.3,1.7-9-1
	c-0.1-0.2,0.6-1,1-1.6C149.4,36,153.1,32.4,157,29.1z"/>
<path class="st122" d="M199.8,62.1c0.7-2.3,1.5-4.7,2.2-7c1,0,1.9,0,2.9,0c10.1,4,20.3,7.8,29.7,13.4c8.4,5.1,16,11.1,23.3,17.6
	c2.1,3.8,6.8,5.5,8.1,10c-2.7,0.7-5.5,0.9-8.3,0.1c-14.4-14-30.6-25.2-49.9-31.6C205.2,63.7,202.5,62.9,199.8,62.1z"/>
<path class="st123" d="M177.7,26.1c0.4,0.6,0.9,1.3,1.3,1.9c-1.2,3.8-1.5,7.3,1.6,10.5c2.6,2.7,4.9,5.1,8.5,1.4c0.5-0.5,1.3,0,1.9,0
	c0.3,0.1,0.6,0.3,1,0.4c0.9,0.2,1.7,0.8,1.7,1.6c-0.4,7.5,0.3,15.2-3.8,22c-1,0-1.9,0.1-2.9,0.1c-1.3-1.2-0.9-2.7-0.7-4.2
	c0.4-3.5-1.2-3-3.5-1.9c-2.6,1.3-3.5,4.9-6.9,5.2c-0.7-0.8-0.8-1.7-0.6-2.7c1.8-4.1,6.5-5.8,8.2-10.1c1.2-2.9-0.9-4.5-2.5-6.3
	c-2.3-2.6-5.8-4.4-6-8.5c0.6-3.2-1-6.6,1.2-9.6C176.6,26,177.2,26.1,177.7,26.1z"/>
<path class="st124" d="M176.1,26c-0.1,3.8-0.2,7.6-0.4,11.4c-1.5-0.5-1.4-1.6-1.2-2.8c0.3-3.4-0.6-6.9,0.5-10.3c0,0,0.2-0.1,0.2-0.1
	C175.5,24.8,175.8,25.4,176.1,26z"/>
<path class="st125" d="M174.7,35.1c0.4,0.8,0.7,1.5,1.1,2.3c2.7,2.8,5.2,5.8,8.1,8.4c2.1,1.9,1.8,3.4,0.1,5.2
	c-2.3,3.4-5.4,6.1-8.5,8.8c-1.5,1.5-2.9,3-4.7,4.2c-1.3,0.6-2.6,1.4-4.1,0.4c-2.9-2.9-5.9-5.9-8.8-8.8c-0.7-1.2-0.3-2.3,0.5-3.3
	c4.3-0.9,5.2,4,8.3,5c1.3,0.2,2.3-0.5,3.4-1.1c8.8-6.9,8.8-7.2,1-14.6c-0.8-0.8-1.7-1.6-2.7-2.2c-0.4-0.3-0.7-0.6-1-0.9
	c-1.2-2.6-0.5-5.1,0.5-7.6c1.4-0.6,2.3,0,2.8,1.3c0.4,0.8,1,1.1,1.8,1.2c-0.4,1.6,0.2,2.2,1.8,1.9L174.7,35.1z"/>
<path class="st126" d="M168,31.1c0,2.2,0,4.4-0.1,6.6c0,0.5-0.2,0.9-0.5,1.3c-3.7,3.2-6.7,7-10.5,10c-2.2,0.5-4.5,1.4-4.9-2.2
	c4.8-4.9,9.5-9.8,14.3-14.7c0.3-0.3,0.5-0.7,0.8-1C167.4,30.8,167.7,30.8,168,31.1z"/>
<path class="st127" d="M168,31.1c-0.3,0-0.6,0-0.8,0c0.5-2.1-2.1-6,1.9-6c4,0,1.3,3.9,1.9,6c0.1,0.3-0.1,0.6-0.1,1
	C169.9,31.7,168.9,31.4,168,31.1z"/>
<path class="st128" d="M174.7,35.1c0,0-0.2,0.1-0.2,0.1c-0.5-3.7-1.4-7.3,0.5-10.9C175.2,27.9,175.8,31.5,174.7,35.1z"/>
<path class="st129" d="M257.7,96.2c2.7-0.8,5.5-2,8.3-0.1c5.8,4.5,9.3,10.8,13,17c0.4,1.2,1.2,2.7-1.2,2.4c-2-0.3-4-0.8-6-1.3
	C267,108.1,262.4,102.2,257.7,96.2z"/>
<path class="st130" d="M131.9,55c-9.8,3.4-19.5,7.2-28.7,12.2c1.8-3.7,3.6-7.5,5.6-11.1c0.8-1.5,2.7-1,4.2-1
	c6.1,0,12.1-0.1,18.2-1.1C131.4,54.3,131.7,54.6,131.9,55z"/>
<path class="st131" d="M242.8,259.7c5.7-6.6,13-10.9,21.2-13.7c0.7,1.4,0,2.5-0.6,3.7c2.3-1.7,5.1-2.3,7.6-3.5
	c1.9-0.9,4-1.1,6.1-1.1c4-1.1,7.9-2.1,11.9-3.2c-4.4,3.1-9.6,4.1-14.5,6c-4.2,1.6-8.3,3.3-12.5,4.9c-6.6-1.3-12.2,2.4-13.8,9.2
	c-0.7,0.7-1.3,1.3-2,2C243,264.1,243,261.9,242.8,259.7z"/>
<path class="st132" d="M248,262c-2.1-1.9-1-3.6,0.5-5.1c2.4-2.6,5.5-4.2,8.5-6c2.6-1.5,3.4,0.9,4.9,1.9
	C257.3,255.9,252.7,259,248,262z"/>
<path class="st133" d="M242.8,259.7c1.6,1,1,3.7,3.3,4.3c-3.1,3.7-5.8,7.6-8.1,11.9c-1.5,0.3-1.5-0.7-1.6-1.7
	c0.3-1.8,1.4-3.2,2.4-4.6c1.4-1.8,0.5-2.9-1.1-3.8C238.6,263.1,240.8,261.6,242.8,259.7z"/>
<path class="st134" d="M237.1,274c-0.1,0.8,0.1,1.6,0.9,2c0.3,0,0.6,0,1,0c-0.3,0.3-0.6,0.7-0.9,1c-2.5,1.8-2.3,5.3-3.9,7
	c-3.9,0.4,4.6-6.8-3.2-4.1c0.2-2.7,1.3-5,2.7-7.1C235.2,272,236.4,272.4,237.1,274z"/>
<path class="st135" d="M277,245.1c-1.8,1.3-3.9,1.6-6,1.9c-2.3-0.3-1.8-1.6-1-3c2.4-1.1,5.1-1.8,6.8-4.2
	C277.3,241.6,274.8,243.5,277,245.1z"/>
<path class="st136" d="M47.1,241.9c2.3,0.7,4.6,1.4,6.9,2.1c2,0.8,4.3-0.4,6.1,1c2.1,1,4.4,1.5,6.5,2.4c1.8,0.8,2.8,0.1,3.5-1.5
	c8.8,3.2,17,7.4,23,14.9c-0.8,1.7-1.5,3.3-3.1,4.4c-0.7-0.7-1.3-1.3-2-2c-1.9-3.9-3.8-7.5-8-9.6c-2.4-1.2-4.5-1.8-7-0.8
	c-8.6-4.2-18.1-6.3-26.9-10.1C46.5,242.5,46.8,242.2,47.1,241.9z"/>
<path class="st137" d="M73,252.9c1.8-2.7,3.5-2.7,6.4-1c4.6,2.7,8.6,5.3,8.6,11.4C83,259.8,78,256.4,73,252.9z"/>
<path class="st138" d="M98.2,267.8c1.8,2.5,3.4,5,3.9,8c-2.1-0.1-2.9,2.8-5.2,2.1c0,0-0.5,0-0.5,0l-0.5,0l0,0c0-0.6,0-1.3,0-1.9
	c0-0.4,0.1-0.8,0.1-1.2c0.3-1.7-0.7-2.8-1.6-4c-1-1.4-1.9-3-0.3-4.5C96.2,264.6,97,267,98.2,267.8z"/>
<path class="st139" d="M98.2,267.8c-1.2,0.1-2-2.2-3.4-0.9c-1.4,1.3-0.2,2.5,0.5,3.8c0.7,1.2,2.6,2.4,0.8,4.1
	c-2.1-3.2-4.1-6.4-6.2-9.6c0.4-1.9,0.6-4,3.1-4.4C95.2,262.9,97.1,265,98.2,267.8z"/>
<path class="st140" d="M77,290.9c-0.1-0.1-0.3-0.2-0.3-0.4c-3.8-10.8-3.8-10.7,7.6-11.8c3.9-0.4,7.7-1.6,11.7-0.9c0,0,0,0,0,0
	c0.4,5.5,2.4,10.6,4.1,15.7c1.4,4.4,0.3,5.8-4.1,5.3c-1.3-0.1-2.6,0.1-4,0.1c-1.3-2.9,1-3,2.7-3.3c2.7-0.5,2.1-2,1.2-3.6
	c-0.6-1-0.9-2.1-1.4-3.2c-1-2.4-0.5-6.6-2.8-7c-3.7-0.7-7.9,0.1-11.7,1.3c-2.3,0.7-0.9,2.4-1.1,3.7C78.9,288.6,78.5,290,77,290.9z"
	/>
<path class="st141" d="M77,290.9c0.4-1.4,0.8-2.8,1.1-4.2c2.7,0.6,2.8,3.1,3.3,5c0.8,3.2,2.7,4.2,5.8,3.8c3.6-0.4,7.3-0.2,9.7-3.7
	c2.2,3,3.1,5.3-2.2,5c-1.5-0.1-2.6,0.4-2.7,2.1c-1.2,1.1-2.7,0.7-4.2,0.7c-0.4-0.2-0.9-0.5-1.4-0.3c-5.1,1.6-7.5-0.9-8.6-5.5
	C76.9,293.1,77.1,292,77,290.9z"/>
<path class="st142" d="M77.9,293.9c2.8,3.6,2.8,3.6,10,5.8c-0.7,0.1-1.3,0.1-2,0.2C78.9,301.3,78.9,301.3,77.9,293.9z"/>
<path class="st143" d="M244,299c-11.4-0.3-11.1,1.1-7.8-10.4c0.3-1.1,0.6-2.2,0.9-3.3c2.1-7.7,2.1-7.7,9.9-7.2
	c0.6,0.6,0.5,1.3,0.1,2c-4.6,0.8-6.1,4.1-6.8,8.2c-0.4,2.1-1.3,4-1.6,6.1c0.4,1.8,2.1,1.1,3.1,1.5C243.4,296.4,245.2,296.7,244,299z
	"/>
<path class="st144" d="M246.9,280.1c0-0.7,0-1.4,0-2.1c1.8,0.2,3.6,0.5,5.3,0.7c10,1.5,10.1,1.6,5.7,11.2c-1.1,0-1.9-0.3-2.5-1.2
	c-0.4-0.9-0.5-1.9-0.2-2.8c0.8-2.5-0.5-3-2.6-3.5C250.7,281.9,248,283.1,246.9,280.1z"/>
<path class="st145" d="M255.9,288.9c0.9,0,1.6,0.2,2.1,1.1c-0.1,1.1,0.1,2.2-0.9,3c-1,4.9-3.8,7.5-9.1,6.8c-1.4,0.1-2.9,0.4-4.1-0.8
	c-0.4-3-2.9-1.7-4.5-2.1c-1-0.3-3.7,1.2-2.5-2c2.8-0.5,5.6-0.4,8.4,0.2c4,1,7.2,0.8,8.2-4.2C253.8,289.9,254.4,288.7,255.9,288.9z"
	/>
<path class="st146" d="M248.1,299.8c4.5-0.3,7.2-3,9.1-6.8C256,300.8,256,300.8,248.1,299.8z"/>
<path class="st147" d="M42.2,145.2c-4.2,14.4-4.7,29.1-4.2,44c0.1,1.8,0.2,3.7,0.2,5.5c-0.1,0.7-0.2,1.3-0.3,2
	c-3.9-4.4-1.3-9.5-1.9-14.3c-0.3-2.3,0.9-4.8-2.8-5.9c-2.1-0.6-1.4-3.1-0.4-4.7c2.5-3.9,6.4-7.5,2.4-12.7c-0.3-0.4,0-1.9,0.5-2.3
	c3.7-3.1,3.8-7.8,5.2-11.9C41.7,142.7,41.9,144.4,42.2,145.2z"/>
<path class="st148" d="M195,299.3c2.3,0.2,4.6,0.4,6.9,0.7c4.3,1.9,8.9,0.8,13.6,1.7c-1.7,0.8-3.3,1.5-5,2.3
	c-4.1,1.1-8.2,2.5-12.3,3.4c-3.6,0.5-7.2,1.3-10.8,1.9c-2.3-0.5-3.6-2-3.9-4.3c0.8-2.8,3.4-2.8,5.5-3.5
	C191,300.7,193.2,300.5,195,299.3z"/>
<path class="st149" d="M198,306.9c4.1-1.2,8.1-3.1,12.5-3c-3.8,2.4-8.1,3.4-12.6,3.9c-0.3-0.2-0.4-0.4-0.3-0.6
	C197.8,307,197.9,306.9,198,306.9z"/>
<path class="st150" d="M198,306.9c0,0.3-0.1,0.6-0.1,0.9c-3.3,0.8-6.6,1.5-9.9,2.3c-0.4-0.1-0.7-0.1-1.1-0.2c0,0-0.3-0.4-0.3-0.4
	c-0.1-0.4,0-0.6,0.3-0.8C190.7,308.1,194.3,307.5,198,306.9z"/>
<path class="st151" d="M185.2,312c-1.5-1.4-3.6-0.4-5.2-1c-3.9-1.8-6.3-5.4-9.2-8.2c-2-1.9-3.4-1.9-5.4,0c-3.1,3-5.7,6.5-9.4,8.9
	c-1.4,0.5-2.8,0.6-4.3,0.4c-0.5-0.1-0.9-0.3-1.4-0.5c-0.4-0.3-0.6-0.8-0.6-1.3c0.1-0.7,0.5-1.3,1-1.9c3.8-3.9,7.7-7.8,11.6-11.6
	c5.2-5.2,5.9-5.2,11.3-0.3c0.7,0.7,1.6,1.2,2.4,1.8c0.9,0.7,1.7,1.4,2.5,2.2c0.5,0.5,1,0.9,1.5,1.4c2.6,2.6,4.8,5.4,7.1,8.2
	c0,0-0.1-0.1-0.1-0.1C186.3,310.6,185.8,311.3,185.2,312z"/>
<path class="st152" d="M150,309.9c0,0.3,0,0.7,0.1,1c3.5,3.5,7.6,6.4,10,11c-0.7,2.7-2.5,3-5,2.5c-6.9-1.4-13.1-4.4-19.3-7.7
	c-1-0.5-2.3-1.2-2.1-2.5c0.2-1.4,1.8-1.1,2.9-1.4c2.6-0.9,5.2-2,7.8-3.1C146.3,308.4,148.1,308.3,150,309.9z"/>
<path class="st153" d="M107.2,289.7c8.7,3.4,17,7.8,26.1,10.2c-3,4.3-7.1,2-10.8,1.9c-0.6-0.2-1.1-0.6-1.5-1.1
	c-3.7-1.1-7.6-1.8-11.1-3.7C108.4,294.8,108,292.1,107.2,289.7z"/>
<path class="st154" d="M120.9,300.7c0.3,0.1,0.7,0.2,1,0.3c0.8,0.5,1.8,0.3,2.7,0.7c3.9,1,7.7,2.7,11.7,3.3c4.4,1.1,9,1.5,13.4,2.9
	c0.5,0.2,0.8,0.6,1.1,1.1c-0.3,0.3-0.6,0.5-0.9,0.8c-1.9-0.1-3.8-0.1-5.6-0.2c-7-2.2-14.4-2.5-21-6.1c-1.2-0.6-2.6-1-3.5-1.9
	C119.2,301,120.5,301,120.9,300.7z"/>
<path class="st15" d="M160,321.9c-3.6-3.4-8-6.1-10-11c0.2,0,0.4,0,0.6,0c4.3,1.7,7.2,5,9.5,8.8c0.3,0.7,0.7,1.4,1,2.1
	C160.7,321.9,160.3,321.9,160,321.9z"/>
<path class="st155" d="M160,319.8c-3.4-2.7-6.8-5.4-9.4-8.8c1.8,0,3.7-0.1,5.5-0.1c1-0.4,1.8,0.1,2.5,0.6c1.4,2.1,4.9,2.8,4.1,6.3
	C161.8,318.5,160.9,319.2,160,319.8z"/>
<path class="st156" d="M162.8,317.9c-1.6-1.8-3.2-3.7-4.8-5.5c-0.3-0.9-0.8-1.9,0.3-2.7c0.8-0.2,1.4,0.1,2,0.5
	c2.6,2.7,5.7,4.8,7.4,8.3c0.2,0.7,0.1,1.4-0.3,2.1c-0.2,0.1-0.4,0.3-0.6,0.4C165.5,319.9,164.1,318.9,162.8,317.9z"/>
<path class="st157" d="M178.8,311.9c-2.3,2.6-4.6,5.2-6.9,7.8c-1.7,0.4-2.6,4-5.1,1.3c0,0,0.2,0,0.2,0c3.4-3.3,6.1-7.4,10.5-9.5
	C178,311.4,178.5,311.6,178.8,311.9z"/>
<path class="st158" d="M178.8,311.9c-0.4,0-0.8,0-1.3,0c-0.6-0.6-1-1.3-1.6-1.9c-1.4-1.5-2.8-2.9-4.4-4.1c-1.2-0.8-2-2.1-3.1-2.9
	c-0.9-0.3-1.5,0.2-2.1,0.7c-2.5,1.9-4,5.1-7.4,6c-1.2,0.5-0.6,1.8-1,2.6c-0.6-0.5-1.2-1-1.9-1.5c0.5-0.7,0.9-1.4,1.5-1.9
	c11.1-12,12.8-11.8,22.4,2C179.5,311.3,179.2,311.6,178.8,311.9z"/>
<path class="st159" d="M178,301.5c-0.7-0.7-1.3-1.3-2-2c-7.2-7.5-7.2-7.5-15.3-0.8c-0.5,0.4-1.1,0.7-1.8,0.7
	c-1.8-0.9-4.7-0.9-3.9-4.2c3.7-1.7,7.5-3.3,11.1-5.3c1.6-0.9,2.8-0.4,4.1,0.3c3.6,1.7,7.2,3.4,10.8,5
	C180.9,297.7,179.4,299.6,178,301.5z"/>
<path class="st160" d="M178,301.5c-0.4-2.8,1.5-4.4,3-6.3c4.7,1.4,9.4,2.7,14.1,4.1c-0.3,2-1.8,2.3-3.5,2.8
	c-2.6,0.8-5.7,0.4-7.6,2.9c-2.5,0.2-3.2-2.8-5.5-3.1C178.2,301.9,178,301.8,178,301.5z"/>
<path class="st161" d="M124,301.9c-0.7-0.3-1.4-0.6-2.1-0.9c3.8-0.4,7.7,0.6,11.3-1.2c3.6-0.3,7.1-0.7,10.7-1
	c2.2,0.7,4.5,0.4,6.7,0.9c2.3,0.5,4.1,1.3,4.1,4c-0.5,1.4-1.2,2.5-2.9,2.5c-3.7-1.4-7.4-1.8-11.5-1.5
	C134.8,305.2,129.4,303.1,124,301.9z"/>
<path class="st162" d="M163,65.9c1.1,0,2.2,0,3.3,0c1.8-0.9,3.7-1.2,5.7-1.2c1.1-0.1,2.2-0.1,3.3,0c3.5,0.6,7.1-2,10.6,0.2
	c1.1,0.1,2.1,0.3,3.6,0.5c-1.9,1.3-4.1,0-5.5,1.5c-2.5,1.7-5.2,2.4-8.1,1.2c-3,0-6,0.1-9,0.1c-4.3,2.6-8.7-0.1-13,0.1
	c-0.5,0-1.1-0.1-1.6-0.3c-1.7-0.7-3.8-0.4-5.1-2c0.8-1.1,2.1-0.8,3.1-1.1C154.6,62.8,158.8,64.3,163,65.9z"/>
<path class="st163" d="M154,303.9c-0.2-2.7-2.1-3.1-4.3-3c-2.2,0.1-4.3-0.2-5.9-2.1c3.7-1.2,7.4-2.5,11.1-3.7
	c0.2,2.4,3.2,2.1,4.1,3.9C158.4,301.7,156.9,303.5,154,303.9z"/>
<path class="st164" d="M153.1,67.1c4.6,0.4,9.2,0.7,13.7,1.1c-0.3,5-3.7,4-6.9,3.6C157.4,70.7,153.5,71.5,153.1,67.1z"/>
<path class="st165" d="M70,246c0.4,1,1.4,2.1,0.6,3.2c-0.9,1.2-2,0.4-3.1,0c-2.5-1.1-5.1-2.1-7.6-3.2c0.3-1.1,0.3-2.3,1.2-3.2
	C64.4,243.3,67.2,244.5,70,246z"/>
<path class="st166" d="M237.1,274c-1.1-0.4-2.3-0.8-3.4-1.2c0.9-2.6,2.1-5,4.1-6.9c1.2-0.2,2.5-1.4,3.6,0.2c0.9,1.3-0.3,2.1-0.9,3
	C239.3,270.7,238.2,272.3,237.1,274z"/>
<path class="st167" d="M269.9,244c0,1.1-0.1,2.3,1,3c-2.2,2.2-5.5,2-8,4c-0.6-2.2,0.3-3.6,1-5C265.9,245.2,267.8,244.2,269.9,244z"
	/>
<path class="st168" d="M147.1,66c1.7,0.3,3.6-0.3,5.1,0.9c0.6,4.8-2.5,3.7-5.2,3.3c-1.4-0.2-2.9,0.3-4-1
	C144.3,68.1,144.4,65.4,147.1,66z"/>
<path class="st169" d="M146.9,70.2c2.7-0.2,2.6-0.2,3.4-2.9c0.1-0.3,1.2-0.2,1.9-0.4c0.3,0,0.6,0.1,0.9,0.2c1.5,2.8,4.9,2.6,6.9,4.7
	C155.5,72,151.2,71.5,146.9,70.2z"/>
<path class="st170" d="M61.2,242.8c0.2,1.3,1.5,2.9-1.2,3.2c-2-0.6-4.2-0.7-6-2c1.4-0.7,2.8-1.5,4.1-2.2c0.9-0.3,1-1.1,1.2-1.8
	C60,241,60.6,241.9,61.2,242.8z"/>
<path class="st171" d="M182.1,69.2c0,0.7-0.1,1.3-0.1,2c-1.6,1.1-3.5,0.8-5.2,0.7c-2.5-0.1-1.9-1.5-1-2.9
	C177.9,68.5,180,67.3,182.1,69.2z"/>
<path class="st172" d="M182.1,69.2c-2.1-0.1-4.2-0.2-6.3-0.2c0-0.3,0-0.6,0-0.8c2.7-0.4,5.4-0.8,8.1-1.2c0.4,0.2,1.2,0.6,1.1,0.6
	C184.6,68.9,183.2,68.9,182.1,69.2z"/>
<path class="st173" d="M185.9,64.9c-3.6,0.1-7.2,1.5-10.8,0.9c-0.4-1.2,0-2.1,1-2.8c2-2.4,3.9-4.9,6.7-6.4c1.3-0.7,2.4-2.1,4-0.9
	c1.5,1,1.2,2.5,0.9,4c-0.3,1.4-0.5,2.9-0.7,4.4C186.6,64.3,186.2,64.6,185.9,64.9z"/>
<path class="st174" d="M189.9,64c1.9-6.3,1.7-13,3-19.4c0.3-1.5,0-3-0.9-4.2c1.3-0.9,2.6-1.7,3.9-2.6c-1,7.7-2,15.5-2.9,23.2
	C192.8,62.9,191.9,64,189.9,64z"/>
<path class="st124" d="M191,40c-0.4,0.2-0.8,0.4-1.2,0.7c-2.1,1.6-3.3,5.3-7,1.8c-5.4-5-7.4-9.7-5.1-13.9c0.2-0.3,0.9-0.4,1.3-0.5
	C183.3,31.8,187.4,35.7,191,40z"/>
<path class="st175" d="M163,65.9c-4.4,1-8.5-1-12.8-1c-0.4-0.3-0.8-0.6-1.2-0.8c1.4-2.4-2-6.3,1.3-7.5c3.2-1.2,5.4,2.3,7.9,4.1
	C160.2,62,162.6,63,163,65.9z"/>
<path class="st176" d="M152,46.8c1.2,2,2.8,2.1,4.8,1.3c1.5,0.7,2.4,1.9,2.2,3.6c-0.4,1.2-0.7,2.5-1.1,3.7c-1.8-1.6-3.7-3.1-5.4-4.8
	C151.4,49.6,150,48.4,152,46.8z"/>
<path class="st177" d="M171.8,65.9c-1.9,0-3.7,0-5.6,0c0.2-0.5,0.4-1.1,0.5-1.6c1.4-0.4,2.8-0.9,4.1-1.3
	C172.2,63.6,173.1,64.4,171.8,65.9z"/>
<path class="st178" d="M171.8,65.9c-0.3-1-0.6-2-0.9-2.9c1.1-1.5,2.4-2.8,4.1-3.7c0.5,0.1,0.8,0.4,0.9,0.8c0,1,0.1,1.9,0.1,2.9
	c-0.3,0.9-0.7,1.9-1,2.8C174,65.8,172.9,65.9,171.8,65.9z"/>
<path class="st179" d="M176,60.1c-0.3-0.3-0.6-0.6-0.9-0.8c3-2.8,6-5.6,9-8.3C182.9,55.4,178.9,57.3,176,60.1z"/>
<path class="st180" d="M170.4,57.2c-0.9,1.2-2.2,1.4-3.5,1.6c-1.9-2.9-4.7-4.9-7-7.4c-1.4-1.5-2.2-2.9,0.3-4.2c1-0.3,2-0.4,3-0.5
	c1.8,0,3.6,0,5.3,0c0.7,0,1.5,0,2.2,0c1.4,0.1,2.9-0.2,4.3-0.2c3.2,1,2.5,2.9,1,4.8C174.4,53.5,172.1,55.1,170.4,57.2z"/>
<path class="st181" d="M159.8,48.1c-1.8,1.8,0.5,2.4,1.1,3.4c1.8,2.6,5.2,3.9,5.9,7.4c-2.6-2.4-5.2-4.7-7.8-7.1
	c-0.5-1.3-2.2-2-2.2-3.6c3.5-3.4,6-7.8,10.6-10c0.8,2-0.6,3.1-1.6,4.4C163.8,44.3,162,46.5,159.8,48.1z"/>
<path class="st182" d="M170.4,57.2c0.7-2.5,3.3-3.5,4.5-5.5c0.8-1.4,3.3-2.8,0.5-4.7c-1.8-0.5-2.5-2.3-4-3.2
	c-1.2-1.1-2.2-2.3-2.8-3.8c-0.2-0.7-0.1-1.4,0.2-2c4.4,1.9,6.6,6.1,9.9,9.2c0.8,0.8,0.9,1.8,0,2.6C175.8,52.3,174.2,56,170.4,57.2z"
	/>
<path class="st183" d="M168.7,38c0.3,0.7,0.6,1.4,0.9,2.1c-0.6,2.6,0.5,5.4-0.5,8c-2,0-4,0-6,0c-0.2-2.2,2.4-3.7,1.6-6
	c0.9-1.3,1.8-2.6,2.7-4c0.2-0.1,0.4-0.3,0.5-0.4C168.1,37.9,168.4,38,168.7,38z"/>
<path class="st184" d="M97,291.9c0.5,2.6,0.2,4.3-3.3,4.3c-3.7,0-7.9,2-11.1,0.4c-3.3-1.7-2.2-6.9-4.4-9.9c-1.9-3.1-1.4-4.8,2.6-5.1
	c4.1-0.3,9-2.5,12.1-0.9C96.1,282.3,95.1,288.2,97,291.9z"/>
<path class="st185" d="M255.9,288.9c-3.6,8.2-3.6,8.2-12.9,7.2c-2.1-0.2-4.3,0.5-6.1-1.2c0.9-3.2,2.3-6.3,2.7-9.5
	c0.6-4.7,2.8-6.2,7.2-5.3c1.8,1,3.8,0.8,5.7,1c3.6,0.3,5.9,1.2,3.5,5.4C255.8,287.2,256,288.1,255.9,288.9z"/>
<path class="st186" d="M178.5,301.9c2.7-0.5,3.5,2.3,5.5,3.1c1,1.2,2,2.5,3.1,3.7c0,0.4,0,0.8,0,1.3
	C183.8,307.7,181.1,304.9,178.5,301.9z"/>
<path class="st187" d="M154,303.9c2.1-1.2,3.6-3,5-4.9c0.8-0.6,1.6-1.2,2.3-1.9c7.2-7,9.6-6.6,14.6,2.3c-0.1-0.1-0.3-0.1-0.4-0.2
	c-7.5-6.3-7.5-6.3-14.6,0.4c-3.4,3.2-6.7,6.3-10.1,9.5c-0.4-0.1-0.8-0.1-1.2-0.2c-0.2-0.4-0.2-0.8,0-1.2c0.6-0.9,1.3-1.7,2.4-1.9
	C152.7,305.2,153.4,304.5,154,303.9z"/>
<path class="st188" d="M152,305.8c-0.6,0.7-1.3,1.4-1.9,2c-4.7-1-9.3-2-14.1-1.9c-4.3-0.4-8.4-1.4-11.9-4c4.5-0.3,8.8,0.4,13.1,1.4
	c4.1,1,8.3-1.3,12.5,0.5C150.7,304.3,151.8,304.4,152,305.8z"/>
<path class="st189" d="M136,305.9c5-1.3,9.8-1.7,14.1,1.9c-0.1,0.4-0.3,0.7-0.4,1.1C145,308.2,140.4,307.7,136,305.9z"/>
<path class="st190" d="M167,318.7c-2.4-2.5-4.7-5-7.1-7.6c2-2.2,4.5-1.6,6.9-1.2c2,4,5.8,0.2,8.3,2C173.2,315,171.9,319,167,318.7z"
	/>
<path class="st191" d="M168,311c-2.7,0-5.4,0.1-8.1,0.1c-0.3-0.5-0.7-0.9-1-1.4c2.3-2.3,4.5-4.5,6.8-6.8c2-0.7,2.1,1,2.2,2.1
	c0.1,2,0.6,3.8,1.2,5.7C168.9,311.1,168.5,311.2,168,311z"/>
<path class="st192" d="M167,318.7c4.1-0.6,5.6-4.3,8.2-6.7c-0.1-0.6,0.2-1.1,0.5-1.5c0.4-0.4,0.8-0.7,1.3-0.9
	c1.2,0.6,1.1,1.4,0.5,2.4c-3.8,2.6-5.7,7.5-10.5,9C167,320.2,167,319.4,167,318.7z"/>
<path class="st193" d="M177,309.6c-0.3,0.5-0.6,0.9-0.8,1.4c-2.5,0.3-4.9,1.7-7.3-0.2c-1.1-0.9-2.9-1.1-2.1-3.4
	c0.5-1.3,0.9-3.3-1-4.3c1.1-1.1,1.8-3.7,3.8-0.9c-0.6,0.9-0.4,1.9-0.2,2.9c0.1,0.7,0.1,1.6,0.8,1.6c1,0.1,1-1.1,1.6-1.7
	C174.2,305.6,175.3,308,177,309.6z"/>
<path class="st194" d="M171.7,305c0.5,1.6,1.7,3.5-1.4,3.8c-2.6,0.2-2.3-1.6-2.3-3.2c0.1-1.3-0.7-3.1,1.5-3.5
	C170.2,303.1,171,304,171.7,305z"/>
<path class="st195" d="M169.1,48.1c-1.1-2.7-2.2-5.5,0.5-8c1.3,0.6,1.6,1.9,2,3c2.2,2,0.9,3.5-0.6,5
	C170.3,48.1,169.7,48.1,169.1,48.1z"/>
<path class="st196" d="M164.7,42c3,3,0.9,4.6-1.6,6c-1.1,0-2.2,0-3.2,0C160.5,45.3,162.9,43.9,164.7,42z"/>
<path class="st197" d="M168.6,53.6c-0.6-4.9-0.6-4.9,6.3-4.1C171.8,50.2,170.5,52.2,168.6,53.6z"/>
<path class="st198" d="M170.9,48.1c0-1.7,1.7-3.2,0.6-5c2.3,0.3,3.2,2,3.8,4C174.2,48.7,172.5,48,170.9,48.1z"/>
<path class="st199" d="M90.1,291.2c1.1,1.3,3.5,1.1,4.2,3.5c-3.6,0.6-7.1-0.3-11.2,1.2c1-1.4,1.4-2,1.8-2.7
	C86.3,291.5,87.2,288.8,90.1,291.2z"/>
<path class="st200" d="M81,284.9c3.4-2.3,7.1-2.6,11-1.9C87.5,288.7,87.5,288.7,81,284.9z"/>
<path class="st201" d="M81,284.9c4.3,3,8,2.2,11-1.9c-0.2,2.9-4.2,4.8-1.9,8.3c-2.5-1.2-3.6,0.9-5.1,2
	C87.7,288.5,82.8,287.5,81,284.9z"/>
<path class="st202" d="M243.3,282.1c3.5,0.9,7,0.3,10.1,2.2C248.6,289.9,246.5,289.5,243.3,282.1z"/>
<path class="st203" d="M240.3,295c5-6.6,7.6-6.5,10.3,0C247.3,295,244.2,295,240.3,295z"/>
<path class="st204" d="M168.9,310.7c2.4,0.1,4.9,0.1,7.3,0.2c-0.3,0.3-0.7,0.7-1,1c-1.5-0.2-2.8,0.1-4,1.2c-3.8,3.5-3-0.1-3.2-2.2
	C168.3,310.9,168.6,310.8,168.9,310.7z"/>
</svg>
