<?xml version="1.0" encoding="utf-8"?>
<!-- Generator: Adobe Illustrator 26.2.1, SVG Export Plug-In . SVG Version: 6.00 Build 0)  -->
<svg version="1.1" id="图层_3_xA0_图像_00000059277196175717090580000012262248620197312421_"
	 xmlns="http://www.w3.org/2000/svg" xmlns:xlink="http://www.w3.org/1999/xlink" x="0px" y="0px" viewBox="0 0 334 334"
	 style="enable-background:new 0 0 334 334;" xml:space="preserve">
<style type="text/css">
	.st0{fill:#FB800C;}
	.st1{fill:#EBBD35;}
	.st2{fill:#DF8C15;}
	.st3{fill:#EEBF36;}
	.st4{fill:#FB9011;}
	.st5{fill:#7818AC;}
	.st6{fill:#9F24CD;}
	.st7{fill:#E5A929;}
	.st8{fill:#EABC34;}
	.st9{fill:#FCA425;}
	.st10{fill:#9D2AD9;}
	.st11{fill:#6D199D;}
	.st12{fill:#E29B20;}
	.st13{fill:#5D1284;}
	.st14{fill:#60148C;}
	.st15{fill:#DF8B15;}
	.st16{fill:#F96A0E;}
	.st17{fill:#E6AC2B;}
	.st18{fill:#921EC5;}
	.st19{fill:#EE8CF5;}
	.st20{fill:#E9C8FA;}
	.st21{fill:#E55FDA;}
	.st22{fill:#C237DE;}
	.st23{fill:#E5C5F7;}
	.st24{fill:#FB810C;}
	.st25{fill:#B42EE0;}
	.st26{fill:#C830E1;}
	.st27{fill:#E5C6F6;}
	.st28{fill:#E99F23;}
	.st29{fill:#8313C9;}
	.st30{fill:#DD47DC;}
	.st31{fill:#FBB93C;}
	.st32{fill:#FCC94E;}
	.st33{fill:#DE2EDC;}
	.st34{fill:#EDC8F3;}
	.st35{fill:#EFA6A2;}
	.st36{fill:#C16AA0;}
	.st37{fill:#DA8013;}
	.st38{fill:#8416A8;}
	.st39{fill:#DA7F11;}
	.st40{fill:#D860E7;}
	.st41{fill:#DF6CEA;}
	.st42{fill:#DBDDF4;}
	.st43{fill:#F46BF6;}
	.st44{fill:#CEEDF9;}
	.st45{fill:#E634DD;}
	.st46{fill:#F269F6;}
	.st47{fill:#D4EFF6;}
	.st48{fill:#C95DEC;}
	.st49{fill:#D547DB;}
	.st50{fill:#C490F8;}
	.st51{fill:#F4E86B;}
	.st52{fill:#F5E96B;}
	.st53{fill:#F7EC67;}
	.st54{fill:#F7ED6A;}
	.st55{fill:#E3AD31;}
	.st56{fill:#E4AA2A;}
	.st57{fill:#FBD35F;}
	.st58{fill:#F2E464;}
	.st59{fill:#E5C2B1;}
	.st60{fill:#D37B0F;}
	.st61{fill:#EA7516;}
	.st62{fill:#E7BD5C;}
	.st63{fill:#D287D7;}
	.st64{fill:#CDA3C9;}
	.st65{fill:#BE41BA;}
	.st66{fill:#AE30C3;}
	.st67{fill:#E5EDFA;}
	.st68{fill:#A745EF;}
	.st69{fill:#E4570F;}
	.st70{fill:#B958E2;}
	.st71{fill:#E5A526;}
	.st72{fill:#EDD749;}
	.st73{fill:#DB7606;}
	.st74{fill:#D27308;}
	.st75{fill:#E3AD3A;}
	.st76{fill:#E6B64B;}
	.st77{fill:#E6AB29;}
	.st78{fill:#E8A526;}
	.st79{fill:#FDCF4C;}
	.st80{fill:#D2770D;}
	.st81{fill:#D44B13;}
	.st82{fill:#D68EF5;}
	.st83{fill:#E9C8F1;}
	.st84{fill:#BC62EF;}
	.st85{fill:#7012B5;}
	.st86{fill:#6612A6;}
	.st87{fill:#A14ACB;}
	.st88{fill:#851CBB;}
	.st89{fill:#601290;}
	.st90{fill:#EDD648;}
	.st91{fill:#A920D5;}
	.st92{fill:#6F15A1;}
	.st93{fill:#DE8A15;}
	.st94{fill:#DA5EE3;}
	.st95{fill:#E27AEC;}
	.st96{fill:#9323AD;}
	.st97{fill:#F0D69D;}
	.st98{fill:#D37E0F;}
	.st99{fill:#F5E864;}
	.st100{fill:#C3D6F3;}
	.st101{fill:#EDAAF3;}
	.st102{fill:#E689EF;}
	.st103{fill:#EBA7F2;}
	.st104{fill:#E25EDC;}
	.st105{fill:#8D25C3;}
	.st106{fill:#7C10A4;}
	.st107{fill:#F5ECF8;}
	.st108{fill:#EA7EDD;}
	.st109{fill:#EE90D3;}
	.st110{fill:#9012A3;}
	.st111{fill:#FAF2FA;}
	.st112{fill:#9C1EDA;}
	.st113{fill:#F1ABBF;}
	.st114{fill:#F1A5D7;}
	.st115{fill:#C06FF1;}
	.st116{fill:#37074E;}
	.st117{fill:#5A0C94;}
	.st118{fill:#DE70F7;}
	.st119{fill:#3D065C;}
	.st120{fill:#D048C6;}
	.st121{fill:#D661B5;}
	.st122{fill:#F6ED9F;}
	.st123{fill:#F1BE61;}
	.st124{fill:#8C45D9;}
	.st125{fill:#391416;}
	.st126{fill:#81425C;}
	.st127{fill:#5C0FE8;}
	.st128{fill:#5C13D6;}
	.st129{fill:#F7AF36;}
	.st130{fill:#34070B;}
	.st131{fill:#A323CE;}
	.st132{fill:#5D14C9;}
	.st133{fill:#B63DF9;}
	.st134{fill:#B62FAF;}
	.st135{fill:#8F32D0;}
	.st136{fill:#7C2DA3;}
	.st137{fill:#CF5EE7;}
	.st138{fill:#7F2646;}
	.st139{fill:#B03CCF;}
	.st140{fill:#E575D3;}
	.st141{fill:#BD224B;}
	.st142{fill:#A8EAF1;}
	.st143{fill:#4F0A79;}
	.st144{fill:#D062EF;}
	.st145{fill:#6F11A8;}
	.st146{fill:#580B8E;}
	.st147{fill:#8943F4;}
	.st148{fill:#B633E8;}
	.st149{fill:#540A79;}
	.st150{fill:#EFDB9E;}
	.st151{fill:#C34BEA;}
	.st152{fill:#A96CE7;}
	.st153{fill:#640B94;}
	.st154{fill:#EECF72;}
	.st155{fill:#F0DD97;}
	.st156{fill:#EDCD6D;}
	.st157{fill:#F0CF75;}
	.st158{fill:#F0D372;}
	.st159{fill:#EAC251;}
	.st160{fill:#9937C4;}
	.st161{fill:#E3A92F;}
	.st162{fill:#DAE7F0;}
	.st163{fill:#E7540E;}
	.st164{fill:#451323;}
	.st165{fill:#86479B;}
	.st166{fill:#E4AE40;}
	.st167{fill:#E3611A;}
	.st168{fill:#E5A52F;}
	.st169{fill:#D27625;}
	.st170{fill:#F3E272;}
	.st171{fill:#FCF6D8;}
	.st172{fill:#D47E0C;}
	.st173{fill:#460D68;}
	.st174{fill:#CE49DB;}
	.st175{fill:#FCF5D6;}
	.st176{fill:#F3CEF6;}
	.st177{fill:#EC7604;}
	.st178{fill:#C63B09;}
	.st179{fill:#FA8003;}
	.st180{fill:#F13301;}
	.st181{fill:#EB6B0C;}
	.st182{fill:#3F0B15;}
	.st183{fill:#FCF5CA;}
	.st184{fill:#F38D19;}
	.st185{fill:#F9DC6E;}
	.st186{fill:#F16A03;}
	.st187{fill:#F07807;}
	.st188{fill:#FCC810;}
	.st189{fill:#F79806;}
	.st190{fill:#F5E197;}
	.st191{fill:#EE6710;}
	.st192{fill:#260A04;}
	.st193{fill:#D9521A;}
	.st194{fill:#FAB027;}
	.st195{fill:#F4930C;}
	.st196{fill:#ED1604;}
	.st197{fill:#F9672B;}
	.st198{fill:#F9C947;}
	.st199{fill:#FBDAA6;}
	.st200{fill:#FAA64E;}
	.st201{fill:#FEF4F4;}
	.st202{fill:#FEFBFE;}
	.st203{fill:#F27305;}
	.st204{fill:#FDD95F;}
	.st205{fill:#450F14;}
	.st206{fill:#D96D16;}
	.st207{fill:#F3C861;}
	.st208{fill:#861CDD;}
	.st209{fill:#A44270;}
	.st210{fill:#721D84;}
	.st211{fill:#73247F;}
	.st212{fill:#B398EA;}
	.st213{fill:#F9AA11;}
	.st214{fill:#FCDC26;}
	.st215{fill:#EF6702;}
	.st216{fill:#FAA72F;}
	.st217{fill:#F54109;}
	.st218{fill:#301006;}
	.st219{fill:#560603;}
	.st220{fill:#670F04;}
	.st221{fill:#F9B579;}
	.st222{fill:#F31E0D;}
	.st223{fill:#FDBF23;}
	.st224{fill:#D34C06;}
	.st225{fill:#DA0A05;}
	.st226{fill:#F2DD78;}
	.st227{fill:#F4B410;}
	.st228{fill:#F1DB6A;}
	.st229{fill:#D7670E;}
	.st230{fill:#F5B60E;}
	.st231{fill:#F1B80B;}
	.st232{fill:#FC5934;}
</style>
<path class="st0" d="M247.9,306.6c-22,13.6-45.8,21.3-71.6,22.8c-0.9-5.1,2.7-8.1,5.5-11.4c2.2-2.5,4.3-4.9,3.8-8.6
	c0.1-0.5,0.4-0.9,0.8-1.2c3-1.5,6.3-1.4,9.4-2.5c7.5-1.2,14.6-3.6,21.3-7.1c4.3-1.6,8.1-4.5,12.8-5.1
	C237,296.3,242.5,301.3,247.9,306.6z"/>
<path class="st1" d="M301.9,261.9c-0.6,10.4-7.9,15.8-15.5,21c-4.4,4.2-9.7,4.9-15.4,3.7c-0.4-0.1-0.9-0.1-1.2-0.3
	c0.4,0.5,1.2,0.3,1.4,1c-0.5,1.9,1,1.1,1.7,1.2c8.2,0.2,16.4,0.2,24.5-1.1c1.8,2.1-0.1,3.2-1.2,4.4c-1.8,1.9-4.1,3.4-6.2,5
	c-3.7,2.2-7.4,4.4-11.4,6.1c-8.5,3.5-16.5,2-24.4-2.1c-0.9-0.4-1.7-1-2.4-1.8c-1.4-1.6-3.8-2.9-3.1-5.2c0.8-2.6,3.4-0.9,5.2-1.1
	c1.3-0.1,2.8,0,3.4-1.4c0.6-1.3-0.6-2.1-1.3-3c-0.6-0.8-1.3-1.5-1.5-2.5c0.5-3.3,3.3-3.8,5.6-4.8c4.8-2.1,10.1-3.1,13.7-7.5
	c1.8-1,3.9-0.6,5.8-1.3c5.8-1.5,11.3-3.7,16.2-7.2C297.7,263.6,299.2,261.4,301.9,261.9z"/>
<path class="st2" d="M314.6,215.9c0.5,5.4,0.1,10.8-0.9,16.1c-0.3,2-1.8,2.9-3.4,3.9c-5.1,3.2-9.7,6.9-13.1,12
	c-4.9,7.1-10.4,13.8-17.8,18.5c-1.5,0.9-1.4,2-1.2,3.4c-3.9,2.9-8.7,1.4-13,2.3c-4,0.9-7.6,2.2-10.6,4.9c-2.3,3-4.2,6.2-6.9,8.9
	c-0.4,0.2-0.9,0.3-1.3,0.2c-1.2-1.4-2.1-2.8-4.4-1.2c-2.5,1.8-5.4,3.2-7.2,5.9c-0.9,1.4-2,2.7-4,2.4c-2.7-1.1-4-2.9-3.1-5.9
	c1.3-4.5,2.2-9.1,4.7-13.2c3.9-0.9,4.4,1.5,4.1,4.5c0,0.1-0.3,0.4-0.2,0.4c0.4,0.6,0.4-0.3,0.6-0.2c1.9-2.2,4.5-3.5,7-4.7
	c9.8-4.6,19-10.2,28.5-15.3c8-4.4,13.4-11.2,18.6-18.4c3.7-3.2,8.3-5.2,11.4-9.1c3.6-3.4,6.2-7.7,8.6-11.9
	C311.8,217.9,312.3,215.9,314.6,215.9z"/>
<path class="st3" d="M90.1,307c-0.7-0.4-1.4-0.8-2.1-1.2c-0.4-1.1,0.3-1.9,0.8-2.7c2-3.4,0.7-4.9-2.9-5.1
	c-12.3,9.5-23.7,8.9-39.2-1.3c-2.1-1.7-4.5-3.2-6.2-5.4c-0.9-1.1-2.8-2.2-0.9-4c7.1,1.2,14.3,1.4,21.5,1c1.3-0.1,3,0.7,3.8-1.2
	c1.1-1.9,3.2-1.5,4.8-2.1c3-0.4,6.2-1.3,5.3,3.9c-0.2,1.2,1.5,1.5,2.4,2.2c1.2,0.7,2.3,1.4,3.7,1.4c2.1,0.1,3.4-0.5,2.1-2.9
	c-0.7-1.4-2-2.7-1.3-4.6c2.3-2.1,4.7-1.5,7.2-0.3c4.8,3,5.7,8.9,9.5,12.7c0.3,0.7,0.4,1.4,0.3,2.2c-0.6,1.9-1.7,3.4-3.2,4.6
	C93.7,305.3,92.5,307.3,90.1,307z"/>
<path class="st4" d="M162.7,329.5c-4.9-0.2-9.9-0.4-14.7-1.6c-7.6-8-17.5-12.4-27.1-17.2c-4.9-2.5-9.6-5.3-13.5-9.2
	c-2.4-2.4-3.2-5-0.5-7.8c4.9-0.7,8.1,3.1,12.3,4.4c4.2,2.2,8.4,4.6,13.1,5.8c1.4,0.5,2.8,0.8,4.2,0.9c3.6,1,7.4,1.2,10.8,3.1
	C150.9,316.2,158.7,321.5,162.7,329.5z"/>
<path class="st5" d="M265.1,63.9c2.3,0.7,4.6,1.4,7,2.1c0.9,1.1,2.4,0.1,3.3,1.1c1.3,2.4,0.1,4.5-0.9,6.6c-1.7,3.8-3.8,7.4-5.7,11
	c-0.2,0.3-0.3,0.5-0.6,0.7c-0.4,0.5-1,0.7-1.6,0.9c0.7,0,1.4-0.1,2,0.1c5.3,2.1,10.6,1.1,15.8,0.1c1.5,0.6,3.1,1.2,4.4,2.4
	c0.6,1,1.2,2.1,1.9,3.1c-1,10.9-1,10.9-14.2,12.3c-2.2,0.1-3.1-1.6-4.2-3c-3.8-4.9-7.7-9.7-12.1-14.1c-0.6-0.9-0.9-1.9-0.9-3
	c0-6.3,3.3-12.1,3.5-18.4C262.9,64.9,263.4,63.6,265.1,63.9z"/>
<path class="st6" d="M317.9,163.9c2.2,16.9,0.6,33.5-3,50.1c-3,3.1-3.6,8.2-8.5,9.6c-0.9,0-1.6-0.3-1.9-1.2c1.1-7.9,3.5-15.5,6-23.1
	c1.5-4.5,3.1-9.2,1.8-13.6c-3.4-11.1-1-22.4-1.6-33.6c-0.2-3.6-1.6-7.2-0.1-10.8c3.1-0.8,2.9,1.7,3.4,3.4
	C315.6,151,316.8,157.5,317.9,163.9z"/>
<path class="st7" d="M277.9,268.9c-0.8-0.2-1.9-0.1-2.3-0.6c-0.8-0.9,0.3-1.4,1-1.7c9.4-5.2,15.4-13.7,21.5-22.1
	c3.4-4.6,8-7.7,13-10.4c1.1-0.6,1.7-1.4,2.6-2.1c-0.4,7.7-4.3,14-7.9,20.4c-1,1.9-2,3.8-3,5.7c-1.7,3.2-4.5,5.2-7.8,6.5
	c-5,1-9.3,4.2-14.4,5.2C279.6,269.9,278.7,269.7,277.9,268.9z"/>
<path class="st8" d="M77,291.9c-3.2-0.7-6.3-1.5-2.3-5.9c-1.9,0-3.4,0-4.8,0c-6.5,2-12.8,1-19.2-0.6c-0.2-0.1-0.5-0.3-0.7-0.4
	c0.4-2.6-1.9-3.2-3.3-4.3c-5.6-4.5-10.8-9.2-11.9-16.8c1.8-2.6,3.6-0.5,4.8,0.4c5.1,4.2,11.3,5.8,17.3,8c0.4,0.2,0.8,0.6,1.2,0.9
	c4.3,4,10,5.1,15.1,7.3c2.8,1.2,6.2,1.7,7.4,5.2C80.3,288.2,78.7,290.1,77,291.9z"/>
<path class="st9" d="M107,294c-1.3,2.9-0.7,5.2,1.8,7.3c3.6,3,7.3,5.6,11.4,7.7c7.2,3.7,14.5,7,21.3,11.6c2.8,1.9,5.2,4.1,6.4,7.3
	c-3.8,0.1-7.4-0.8-11-2.1c-11.7-7.5-24.9-12.6-35.5-21.8c-1.4-1.2-3.1-2.1-3.4-4.1c0-0.7,0-1.3,0-2c1.7-2.9,4.7-3.8,7.7-4.6
	C106.3,293.4,106.7,293.6,107,294z"/>
<path class="st10" d="M218,38.2c5.1-0.3,9.2,2.6,13.6,4.5c6.5,2.8,12.7,6.2,18.3,10.7c2,5.4-2.6,6.5-5.7,8.6
	c-3.7,0.7-6.5-1.3-8.9-3.5c-5.5-5-11.1-9.8-17.4-13.9c-0.8-0.5-1.5-1.3-1.8-2.3C216,40.4,216.7,39.1,218,38.2z"/>
<path class="st11" d="M275.9,104c1.3-1.5,2.8-1.7,4.8-1.3c6.2,1.1,7.6,0,8.2-6.2c0.1-1.7,0.6-3.2,1.8-4.5c2,2.5,4.5,4.4,7.4,5.9
	c5.5,3.7,5.7,4.7,1.3,9.7c-3.2,3.6-6.9,6.5-11.5,8.3c-0.6,0-1.2,0.1-1.8,0.1c-1.8,1.4-3.5,1.5-4.7-0.8c-0.7-1.3-1.6-2.4-2.3-3.7
	C278.2,109,275.1,107.3,275.9,104z"/>
<path class="st12" d="M23.8,237.1c-1-3.3-1.8-6.6-1.5-10.1c10.5,7.1,19.4,15.6,26.6,26.1c4,5.8,9.9,9.6,16.4,12.6
	c2,0.9,5.7,1.5,3.5,5.5c-4.8,0.7-9.6-1.1-14.4-0.6c-6.1-1-11.7-3-15.6-8.2c0.5-3.1,2.5-2,4-1.1c2.8,1.7,5.8,3.1,9.1,4.4
	C41.7,256.7,36.1,243.7,23.8,237.1z"/>
<path class="st13" d="M285.2,117.8c12.7-0.8,23.8-6.1,34.8-12c2.3-1.3,4.6-2.6,6.9-3.9c0.9-0.3,1.3,0.3,1.6,1
	c-4.9,9-12,15.8-20.6,21.3c-4.8,2.1-9.1-0.4-13.4-1.7c-3.2-1-6.3-1.9-9.6-2.2C284,119.4,282.7,118.4,285.2,117.8z"/>
<path class="st14" d="M285,87.1c-5.7,2.4-11.3,3.1-17.1,0.2c4.6-4.8,10.5-7.7,16.1-11.2c6.5-5.3,11.8-11.7,17-18.1
	c1.1-0.1,1.4,0.6,1.3,1.5c-2.1,10.4-7.4,19.1-14.6,26.7C287,86.9,286.1,87.5,285,87.1z"/>
<path class="st15" d="M69,270.8c0-1.8-1.2-2.7-2.6-3.2c-12.1-4.4-19.2-14.2-26.5-24c-3.4-4.5-7.4-8.7-12.6-11
	c-2.7-1.2-4.2-2.9-4.9-5.6c-0.4-4.3-0.4-8.7,0-13c0.4-0.3,0.7-0.4,1.1-0.1c0.6,0.6,1,1.4,1.4,2.3c0.2,0.4,0.3,0.9,0.4,1.3
	c2.1,7,7.6,11.5,12,16.8c0.2,0.2,0.1-1.2,0.8-1.6c3.1-0.9,4.9,1.1,6.9,2.8c0.8,1.4-0.3,2.1-1.1,2.8c-0.5,0.4-1,0.7-1.5,1.1
	c6.4,11.6,15.2,20.6,27.2,26.3c1.8,0.9,3.6,1.7,4.9,3.3c0.9,1,1.1,2.1-0.4,2.8C72.3,272.3,70.5,272.5,69,270.8z"/>
<path class="st16" d="M162.7,329.5c-3-0.7-3.7-3.6-5.1-5.7c-3.4-5.2-9.6-8.4-10.5-15.2c0.9-0.7,1.8-0.6,2.8-0.3
	c4.2,2.7,7.1,6.8,10.8,10.1c0.5,0.4,0.9,0.9,1.4,1.4c5.6,5.2,5.9,4.9,11.5-0.5c3.8-3.6,7.1-8,12.6-9.4c2.2,3.4-0.2,5.6-2.3,7.6
	c-3.5,3.4-6.2,7.2-7.6,11.9C171.7,330,167.2,330,162.7,329.5z"/>
<path class="st17" d="M23.8,237.1c6.3,0.9,9.8,5.9,13.8,10c3.1,3.2,5.7,6.8,8.2,10.5c2.4,3.6,6.1,6,9.1,10.1
	c-4.7-1-8.3-2.7-11.8-4.7c-1.1-0.6-2.1-3.2-4.1-1.1c-3,0.7-3.4-2.4-5.1-3.6C30.5,251.3,25.6,244.9,23.8,237.1z"/>
<path class="st18" d="M265.1,63.9c-1.4,6.2-2.8,12.3-4.1,18.5c-0.2,1-0.1,2-1,2.7c-6.1-1.5-9.6-6.3-13.5-10.7
	c0.5-4.5,7-12.6,11-13.7c2.7-0.8,4.2,1.6,6.3,2.3C264.2,63.3,264.6,63.6,265.1,63.9z"/>
<path class="st19" d="M19.1,164c0.3-2.7-0.9-5.5,1-8c2.2,0.8,2.4-0.9,2.7-2.3c0.5-1.9,0.7-3.8,2.3-5.2c2-0.7,3.7-3.1,6.2-1.2
	c0,0.7,0,1.4-0.4,1.9c-5.6,8.2-7.4,17.3-6.4,27c-0.1,3.3,0.2,6.5,1.3,9.7c1.8,5.2,2.1,10.6,1.8,16.1c-0.4,6.1,0.5,6.6,6.4,5.8
	c5.3-0.7,6.8,0.2,7.2,4.2c-3.8,0.9-7.7,0.8-11.6,1.7c-3.8,0.8-6.4-1.9-6.8-5.9c-0.3-2.6,0.2-5.3-0.7-7.8c-1.2-6.3-0.8-12.9-3.5-18.9
	C18.9,175.4,18,169.7,19.1,164z"/>
<path class="st20" d="M5,100.1c-0.8-0.7-1.6-1.6-1.1-2.5c0.6-1.1,1.7-0.3,2.6,0.1c9,4.4,18.2,5.6,27.9,2.5
	c4.6,6.1,10.3,11.1,16.2,15.9c0.3,0.7,0.2,1.4-0.2,2.1c-0.4,0.3-0.8,0.5-1.3,0.6c-2.2-0.1-4.4-0.2-6-2.1c-0.1-0.4,0-0.7,0.3-0.8
	c0.1,0,0.2-0.1,0.2-0.2c-8.5-1.5-16.2-5.8-24.4-8.1c-3.5-0.7-6-3.1-9.1-4.7C8.3,102.1,6.9,100.6,5,100.1z"/>
<path class="st21" d="M86,54c0.2-0.4,0.5-0.7,0.7-1.1c0.8-0.2,1.6-0.5,2.4-0.8c1.9-0.4,3.8-0.6,5.7,0c6,3.3,6.7,6.2,2.2,11.1
	c-3.2,3.6-6.7,6.9-9.7,10.7c-2.1,2.5-4.8,4.2-8.1,4.3c-3.6,0.1-4.9,1.8-4.9,5.3c0,3.3-0.6,6.5-5.2,5.7c-0.6-0.6-0.7-1.3-0.5-2.1
	c1.5-1.3,2.5-2.6,2.2-4.9c-0.3-2.7,0.3-5.5,1.3-8.1c0.9-3.4,3.1-4.9,6.6-5.7c5.1-1.1,7.5-5.6,10.1-9.6C90.4,56.4,87.2,55.5,86,54z"
	/>
<path class="st22" d="M50,116.1c-6.7-3.9-12.6-8.6-15.7-15.9c4.6-1.8,8.2-4.9,11.7-8.2c3.3,0.3,3.1,3,3.4,5.1
	c0.4,3.9,0.9,7.8,1.8,11.7C51.6,111.4,54,114.3,50,116.1z"/>
<path class="st23" d="M287.8,116c3.5-3,7.2-5.8,10.4-9.1c4.6-4.6,4.4-4.7-0.2-8.9c8.7,3.7,17.5,5.9,27,2.3
	C313.4,107.6,301.6,114.1,287.8,116z"/>
<path class="st24" d="M255,285.8c1.8,1.7,5.4,2.9,4.2,5.9c-1.4,3.5-5,2.3-7.9,1.8c-0.6-0.1-1.2-0.2-2.2-0.3c0.8,3.2,3.6,4.3,4.9,6.5
	c0.4,0.7,1.7,1.1,0.8,2.3c-1.6,1.1-3.1,2.1-4.7,3.2c-4.4-0.4-7.5-3-8.3-7c-1.1-5.3,0.5-9.3,5.1-12.2l0,0
	C249.6,284,252.3,282.2,255,285.8z"/>
<path class="st25" d="M263.7,63c-3.8-1.4-7.3-2.1-10.3,2c-2.2,3-5.7,5-6.4,9.1c-4.8-0.6-8-3.7-11.1-7c1.6-3.5,5.7-3.5,8.1-6
	c2.6-2.2,6.2-3.5,6-7.8C255.2,55.6,259.6,59.1,263.7,63z"/>
<path class="st26" d="M73.1,74.1c-0.4,3.2-1.6,6.4-1,9.7c0.5,2.8-1.6,2.6-3.1,3.2c-1.1-0.2-1.8-1-2.6-1.7c-0.6-0.7-1.1-1.4-1.5-2.2
	c-0.5-1-0.9-2.1-1.2-3.3c-0.8-3.1-2.7-5.7-3.7-8.7c-0.9-3-0.3-4.7,3.1-5c3.5-0.3,6.6-2.1,9.8-3.2c3.3,0.9,2.5,3.5,1.9,5.5
	C74.3,70.3,73.7,72.2,73.1,74.1z"/>
<path class="st27" d="M284,76.1c-4.4,5.1-10.2,8.1-16.1,11.2c-0.5-0.2-1-0.4-1.5-0.6c0.5-0.6,1-1.1,1.5-1.7
	c3.6-3.8,5.3-8.7,7.5-13.3c0.8-1.6,1-3.2-0.4-4.6c-1-0.4-2.2,0-2.9-1c5.6-0.3,11.3,0.8,16.6-1.8c1.2-0.6,2.4,0,3.2,0.9
	c1.2,1.4-0.6,1.9-1.2,2.7C288.7,70.8,284.6,72,284,76.1z"/>
<path class="st28" d="M247,285.9c-1.3,2.4-3.6,4.3-4,7.3c-0.7,5.9,1.3,9.2,7.2,11.9c-0.8,0.5-1.5,1-2.3,1.5
	c-6.6-3.4-11.7-8.8-17.9-12.7c-0.2-0.8,0.1-1.2,1-1c3.7-2.9,6.2-6.9,10.6-9.2C245.1,281.7,246.4,281.9,247,285.9z"/>
<path class="st29" d="M285.2,117.8c-1.2,0.6-0.5,1.4-0.2,2.1c3.8,3.6,5.8,8,6.3,13.1c-1.5,2.3-3.8,3.4-6.5,3.5
	c-1.2-0.3-2-1.2-2.4-2.3c-2.8-6.4-5.9-12.6-9.4-18.6c-0.6-1-0.9-2.1-0.5-3.3c2.3-1.4,4.7-2.5,7.4-1.3c2.1,1.6,1.6,6.2,6.1,5.1
	C285.7,116.7,285.5,117.3,285.2,117.8z"/>
<path class="st30" d="M73.1,74.1c-0.9-3.7,2.9-7.4-0.1-11.1c4.2-3.2,7.9-7.2,13-8.9c5.1,0.6,6.7,3.5,3.3,6.9
	c-3.7,3.8-5.8,10-12.9,9.3C74,70,74.5,73.1,73.1,74.1z"/>
<path class="st31" d="M98,299.9c8.9,7.2,18.3,13.5,28.7,18.4c3.9,1.8,7.3,4.4,10.3,7.5c-4.1-0.5-8.1-1.6-12-3.1
	c-10.9-4.8-20.1-12.3-29.9-18.9C96,302.6,97,301.2,98,299.9z"/>
<path class="st32" d="M95,303.9c1.9-0.1,3.6,0.6,5.1,1.7c7.7,5.9,15.5,11.6,24.4,15.8c0.3,0.1,0.4,0.9,0.5,1.3
	c-12.5-3.3-24.1-8.6-34.9-15.7C91.8,306.1,92.7,303.9,95,303.9z"/>
<path class="st33" d="M308,123.1c8.1-5.3,14.4-12.3,20-20c0.6-0.8,1.1-1.8,2.3-0.8c-4.5,8.2-10.5,15-18,20.4c-2.6,1.9-3.1,3.3-2,6.3
	c4.1,11.3,6.9,22.9,7.6,34.9c-1.3-5.4-2.6-10.8-4-16.2c-0.6-2.3-0.9-4.9-2.9-6.7c-3.9-4.4-5.4-9.7-5.7-15.4
	C305.7,124.3,307,123.8,308,123.1z"/>
<path class="st34" d="M64.9,79.9c0.4,1,0.7,2.1,1.1,3.1c-0.7,0.6-1.6,0.7-2.3,0.2c-6.8-4.4-13.5-9.1-18.8-15.4
	c-0.7-0.9-1.5-1.8-0.7-3.1c0.7-0.4,1.4-0.3,2,0.3c2,0.3,3.9,0.7,5.9,1c5.3-0.3,8.6,1.7,9.5,7.4C62,75.8,63.6,77.9,64.9,79.9z"/>
<path class="st35" d="M89.1,52.9c-0.8,0-1.7,0-2.5,0c10.8-7.6,22.5-13.5,35.3-16.8c0.2,2.2-1.9,3.1-2.7,4.7
	c-3.5,3.9-8.3,5.5-12.9,7.3c-4.5,1.7-9,3.3-13.8,4.2C91.5,52.8,90.2,52.2,89.1,52.9z"/>
<path class="st36" d="M119,40.1c-0.3-2.3,2-2.7,3-4c4.9-1.8,9.9-3.3,15-4.1c0.4,2.7-2,3-3.5,4.1c-2.2,1.4-5,1.8-6.5,4.3
	c0.4,2.8,2.6,4.5,4,6.7c1.2,1.9,3.2,3.5,2.4,6.1c-0.7,1.1-1.8,1.6-3.1,1.4c-3.8-1.8-5.5-5.7-8.1-8.7C121.2,44,119,42.6,119,40.1z"/>
<path class="st37" d="M47.1,295.9c5.4,3.2,10.9,5.9,17.2,7.1c7.7,1.5,14.3-0.1,19.9-5.7c0.5-0.5,1.1-1.4,2-0.4c0.1,2.8-1.8,4-4,4.8
	c-12.8,7.5-24.7,5.6-36.1-3.1C45.1,297.3,45.8,296.5,47.1,295.9z"/>
<path class="st38" d="M218,38.2c-0.4,1.3-0.7,2.6-1.1,3.9c-2,4.7-6,8.1-8.8,12.3c-0.4,0.3-0.9,0.4-1.3,0.5c-1.5,0.1-2.9-0.4-3.9-1.5
	c-0.8-3.4,2.1-5.2,3.4-7.7c1-1.9,3.6-3.1,2.9-5.8c-1.7-2-5.8-1.6-5.5-5.5c3.7-0.8,6.9,1.6,10.4,1.6C215.8,36,217,36.9,218,38.2z"/>
<path class="st39" d="M254.8,302c-0.3-0.7-0.6-1.5-0.8-2.2c11.5,6.2,22.3,4.5,32.7-2.6c0.9-0.6,2.1-0.8,3.2-1.2
	c1,0.4,1.7,1.1,1.3,2.3c-2,1.4-4,2.8-6.1,4C275,308.1,264.9,307.8,254.8,302z"/>
<path class="st40" d="M48.1,89.1c-7.5-8.6-11.8-18.8-13.9-29.9c2.4-0.4,3.7,1,4.7,2.9c0.4,7.2,5.3,12.1,8.9,17.7
	c1.6,2.7,3.2,5.3,6,7.1c1,0.7,2.6,1.5,0.6,2.9C52.1,90.5,50,90.7,48.1,89.1z"/>
<path class="st41" d="M26.1,131.1c0.6-2,1.3-4,1.9-6c2.1-1.1,4.4-1.3,6.7-1.5c0.5,0.1,0.9,0.4,1.3,0.8c3.4,8.4-0.6,14.7-9.2,14.7
	C24.9,136.6,26.7,133.7,26.1,131.1z"/>
<path class="st42" d="M125,40.2c1.6-3,5-3.2,7.5-4.9c1.6-1.1,3.7-1.3,4.6-3.3c2.9-1.4,5.8-2.7,8.7-4.1c1.7-0.8,2.6,0.6,3.6,1.4
	c1.7,1.9,3.7,3.5,5.3,5.5c1,1.9,0.5,3.2-1.6,3.8c-0.9,0-1.8-0.2-2.2-0.9c-4.4-6.2-9.1-3.9-14-0.8c-0.7,0.5-1.4,0.9-2,1.4
	c-0.5,0.4-1.1,0.9-1.7,1.2c-1,0.6-2,1-3.1,1.4C128.2,41.9,126.6,41.2,125,40.2z"/>
<path class="st43" d="M26.1,131.1c2,2.4,0.5,5.3,1,8c1.6,3.8,0.6,7-2,10c-0.7,2.7-1.3,5.3-2.1,7.9c-0.3,0.9-1,1.9-2.1,1.5
	c-1.1-0.4-0.7-1.7-0.9-2.6C20.9,147.4,22.9,139.1,26.1,131.1z"/>
<path class="st44" d="M152,22.8c5.1-5.9,10.2-11.9,15.3-17.8c2.2,0.5,1.7,2.2,1.6,3.7c-0.3,1-0.7,1.9-1.3,2.7c-1.6,2.1-3.4,4-5.1,6
	c-3.7,4.4-7.6,8.5-4.5,14.9c0.4,0.8,0,2-0.7,2.8c-1.1,0.5-1.9-0.1-2.6-0.9c-1.2-2.2-1.8-4.6-2.5-7C151.7,25.8,151.7,24.3,152,22.8z"
	/>
<path class="st45" d="M285,87.1c7.3-7.7,14-15.7,16.3-26.4c0.2-1,0.7-1.9-0.3-2.7c-0.3-1.9,1.1-2.2,2.8-2.9
	c-2.5,12.7-6.3,24.3-14.9,33.9C287.4,88.7,285.2,89.9,285,87.1z"/>
<path class="st46" d="M19.1,181.9c5.1,3.6,2,9.6,3.9,14.1c0.5,1.1,0.1,2.6,0.1,3.9c1.2,4.4-0.3,9,1.2,13.4c0.2,0.5-0.8,0.9-1.5,0.7
	l-0.3,0c0,0-0.3,0-0.3,0c-1.9-6.5-3.2-13.1-3.3-19.9C18.4,190.1,18.3,186,19.1,181.9z"/>
<path class="st47" d="M203.9,35.3c2.4,1.3,4.7,2.6,7.1,3.9c0.2,1.4-0.9,1.6-1.9,1.8c-2.3,0.1-4.2-1.2-6.2-2.1c-4-2-7.3-5.4-12.2-5.4
	c-3.6,1-4.7,5.5-8.6,6c-1.2-0.3-2.2-0.9-2.6-2.1c-0.1-0.5,0-0.9,0.2-1.4c2.1-1.9,4.2-4,6.5-5.7c1.5-0.8,2.5-2.5,4.5-2.4
	c3.1,1.3,6.2,2.7,9.2,4C200.7,33.6,203.6,32.9,203.9,35.3z"/>
<path class="st48" d="M34.1,124.1c-1.9,1.2-3.9,1.6-6.1,0.9c-10.3-6-17-15.1-23.1-25c2.5-1.3,3.5,1.1,5.1,2
	C15.7,112,24.5,118.6,34.1,124.1z"/>
<path class="st49" d="M48.1,89.1c2.3,0,4.6,0,7,0c1.2-1.1,2.4-1.1,3.8-0.4c1.3,2.4-0.3,4.2-1.8,5.5c-3.8,3.5-6.4,7.3-5.9,12.7
	c0.1,0.8-0.4,1.6-1.1,2.1c-1.6-3.6-1.7-7.5-2-11.3C48,95.5,47.8,93.4,46,92C46.7,91,47.4,90,48.1,89.1z"/>
<path class="st50" d="M180.1,36.3c0.2,0.3,0.2,0.6,0.1,0.9c-0.9,0.4-1.4-0.1-1.9-0.7c-0.4-0.9-0.6-2-0.2-2.9
	c3.5-7.2-0.5-12.1-5-16.9c-2.1-2.3-4.4-4.5-5.3-7.6c0-1.4,0.6-2.8-0.6-4c1.8-1.6,2.1,0.3,2.8,1.1c4.6,5.6,9.2,11.2,13.9,16.8
	c0.9,1.5,0.3,2.9,0.1,4.4C183.2,30.6,182.7,33.9,180.1,36.3z"/>
<path class="st51" d="M65,287.8c0.5,0.1,1.2,0,1.4,0.2c1.3,1.6-0.7,0.8-0.9,0.9c-8.9,1.7-17.8,1.7-26.5-0.9
	c-2.7,0.7-4.1-0.2-3.8-3.1c4.9-0.3,9.9,2.6,14.8,0c0,0,0.3,0,0.3,0C55.1,286.4,60.2,286.5,65,287.8z"/>
<path class="st52" d="M297.9,288c-9.1,2.5-18.3,2.6-27.6,1.1c-0.4-0.1-1.5,0.4-1.2-0.8c0-0.1,0.3-0.2,0.4-0.2c0.5-0.1,1-0.1,1.5-0.2
	c5.4-0.9,10.7-2.5,16.2-1.9c4.6-0.3,9.1-0.6,13.7-0.9C301.1,287.2,300.1,288.2,297.9,288z"/>
<path class="st53" d="M294.8,263.8c2.7-1.9,5.3-3.8,8-5.7c0,1.3,0.4,2.8-0.9,3.8c-6.5,5.2-13.4,9.9-22,11.1
	c-1.1,0.6-1.9,0.6-2.3-0.8c0.7-2.4,3.3-2,4.9-3.1C286.9,267.9,290.4,264.7,294.8,263.8z"/>
<path class="st54" d="M33.9,258.3c2.3,0.4,3.1,2.9,5.1,3.6c4.2,4.1,9.4,6.3,15,8c2.2-0.3,3.9,0.5,5.2,2.2c-0.3,1.3-1.2,1.5-2.3,0.9
	c-5.5-1.1-10.8-2.7-15.5-6c-2-1.4-3.6-4.1-6.7-3.2C33.5,262.1,34.3,260.2,33.9,258.3z"/>
<path class="st55" d="M297.9,288c1.3-0.7,2.4-1.6,3-3c1-0.7,2-1.2,3.8-0.8c-3.1,6.3-8,10.5-13.5,14c-0.4-0.8-0.8-1.5-1.3-2.3
	C291.9,292.6,296.1,291.5,297.9,288z"/>
<path class="st56" d="M35.2,284.9c0.7,1.7,2,2.8,3.8,3.1c2,3.3,5.6,5,8,7.9c-0.3,0.9-0.7,1.9-1,2.8c-4.7-2.6-8.3-6.4-11.7-10.5
	C33.8,287.5,30.8,284.8,35.2,284.9z"/>
<path class="st57" d="M82.1,301.8c1.3-1.6,2.7-3.2,4-4.8c3.1-1.4,3.9,1.6,5.2,3.1c1.4,1.5-0.7,2.5-1.5,3.6c-0.6,0.8-1.3,1.5-1.9,2.2
	C85.7,304.9,83.8,303.6,82.1,301.8z"/>
<path class="st58" d="M306.9,223c3.4-2.4,4.7-6.6,8-9.1c-0.1,0.6-0.2,1.3-0.2,1.9c-3.1,3-4,7.4-6.7,10.7c-1.5,1.9-2.9,4-4.9,5.4
	c-1,0.7-1.8,0.5-2.4-0.6C300.8,227.2,304.5,225.7,306.9,223z"/>
<path class="st59" d="M38,62.1c-1.3-1-2.6-2-3.8-3c-0.8-1.4-1.8-2.8-0.3-5.1c3,5.1,9.4,5.9,12.3,11c-0.7,0-1.3,0-2,0
	c-1.2,0.8-2.2-0.5-3.4-0.3c-0.4,0-0.8-0.1-1.2-0.2C38.4,64.2,38.9,62.7,38,62.1z"/>
<path class="st60" d="M287.2,285.9c-5.3,1.7-10.7,2.1-16.2,1.9c-0.9-1.4-2.8-0.4-4.5-1.9c7.2,0.3,13.8,0.1,19.9-3
	C285.7,284.2,286.5,285.1,287.2,285.9z"/>
<path class="st61" d="M182.9,27.4c0.3-1.5,0.7-2.9,1-4.4c3.9-0.6,6.5,0.5,6.8,4.8c-1.1,0.9-2.3,1.8-3.4,2.7
	C185.4,30,184,29,182.9,27.4z"/>
<path class="st62" d="M152,22.8c1.3,1.4,1.4,3.1,1.2,4.8c-1.2,1.1-2.1,2.8-4.2,2.7c-1.1-0.8-2.1-1.6-3.2-2.4
	C146.4,24.5,148.2,22.5,152,22.8z"/>
<path class="st63" d="M19.1,181.9c0,4.1,0,8.2,0,12.2c-2.1-8.4-0.5-17-0.9-25.5c-0.1-1.6-0.4-3.3,1-4.7
	C19.1,169.9,19.1,175.9,19.1,181.9z"/>
<path class="st64" d="M64.9,79.9c-2.2-1-2.9-3.3-3.4-5.2c-1.3-5.1-3.9-8.4-9.5-8.7c3.7,0,7.4,0.1,11,0.1c-3,1-2.5,3.1-1.8,5.3
	C62.3,74.4,64.5,76.8,64.9,79.9z"/>
<path class="st65" d="M203.9,35.3c-1.3-1.2-3.9-0.8-3.9-3.4c4.8,1.3,9.7,2,14.2,4.1C210.6,37.5,207.5,33.8,203.9,35.3z"/>
<path class="st66" d="M330.3,102.2c-0.8,0.3-1.5,0.5-2.3,0.8c-0.4-0.4-0.7-0.8-1.1-1.1c1.4-1,2.8-2.1,4.2-3.2
	C332.4,100.6,330.8,101.2,330.3,102.2z"/>
<path class="st67" d="M186.1,309.9c-4.1,4.5-9.8,7.2-13.5,12.1c-2.9,3.8-5.9,4.3-9.1,0.4c-1-1.3-2.2-2.4-3.4-3.6
	c0.6-1.1,0.6-2.7,2-3.4c2,0.1,3,1.8,4.5,2.8c4,1.6,4.6-2.7,6.9-4c4.8-4.8,4.8-4.8,0-9.7c-6.6-6.5-5.4-6.4-11.8-0.1
	c-1.9,1.9-3.6,3.9-5.5,5.8c-2.1,0.8-3.7,0.1-5.2-1.3c-0.2-0.4-0.2-0.9,0-1.3c2.1-2.2,4.9-3.8,6.1-6.9c0.4-0.8,0.8-1.6,1.5-2.3
	c1.7-1.5,3.7-2.6,5.1-4.3c2.7-3.3,5.5-3.5,8.6-0.3c1.2,1.3,2.9,2.1,4.2,3.3c2.1,2.1,4.2,4.2,6.3,6.3c1.3,1.8,3.9,2.8,3.6,5.6
	C186.1,309.3,186.1,309.6,186.1,309.9z"/>
<path class="st68" d="M218,299.8c-7,3.4-14.1,6.3-21.9,7.1c-4.3-0.8-8.9-0.5-13-2.6c-1.5-2.4,0.2-3.7,1.8-4.8
	c1.6-1.1,3.5-1.9,5.1-3.1c4.5-1.4,8.7,1.7,13.1,0.9c3.7,1.1,7.5,1.5,11.3,0.9C215.8,298,217.5,297.5,218,299.8z"/>
<path class="st69" d="M218,299.8c-3-1.6-6,0.6-9,0c-2.1-0.4-4.3-0.3-6.2-1.4c0.2-0.7,0.5-1.3,1.2-1.5c7.7-2.9,15.4-6,22.9-9.4
	c0.6-0.3,1.3-0.1,1.9,0.1c-1.6,2.7,1.2,3.7,2.1,5.4c-0.3,0.3-0.7,0.7-1,1C225.9,295.8,221.9,297.8,218,299.8z"/>
<path class="st70" d="M183.1,303.8c4.4,0.8,9.1,0.1,12.9,3c-3.3,0.7-6.5,1.4-9.8,2.2c-1.5-1.7-3-3.3-4.5-5
	C182.1,303.6,182.6,303.5,183.1,303.8z"/>
<path class="st71" d="M255,285.8c-2.7-1.6-5.4-0.7-8.1,0.1c2-2.9,4-5.9,6-8.8c0.3-0.5,0.7-0.7,1.3-0.7c4.7-2.6,9.6-4.4,15.1-3.8
	c1.6,0.2,3.3-0.1,4.5,1.4c-0.4,3.3-3.2,3.8-5.5,5C264,281.3,258.3,281.3,255,285.8z"/>
<path class="st72" d="M273.9,274c-6.5-0.2-13.1-0.7-18.7,3.6c-0.1,0.1-0.7-0.4-1.1-0.6c0.3-0.6,0.6-1.3,1.1-1.6
	c7.1-4.2,14.7-5.5,22.8-3.5c0.4,0.9,1.2,1,2,1.1C278.2,274.7,275.9,273.6,273.9,274z"/>
<path class="st73" d="M291.9,240.8c-6.3,11.3-16.7,17.9-27.6,24.1c-9.1,5.1-19,8.6-27.4,15c-1.1-1.1,0.1-2.2,0.1-3.3
	c2-5.3,5.2-9.9,8.8-14.2c0.5-0.8,1.1-1.5,1.8-2.2c5.2-3.8,10.4-7.5,16.1-10.6c7.9-3.8,16.3-6.2,24.5-9
	C289.5,240.4,290.7,239.9,291.9,240.8z"/>
<path class="st74" d="M277.9,271.9c-8.2,0.6-16.8-0.8-23.9,5.1c-0.3,0-0.7,0.1-1,0.1c2.5-4.1,6.7-5.3,11.1-6.3
	c4.6-1,9.4-0.1,13.9-1.9c1,0,2,0,3,0c1.1-0.6,2-0.8,1.9,0.9C281.2,270.5,279.6,271.2,277.9,271.9z"/>
<path class="st75" d="M237.9,276.9c-0.3,1-0.6,2-0.9,3.1c-0.7,0.8-1.5,1.6-2.9,3.1c0.8-3.7,3.6-7-0.8-9c1.1-3.3,2.7-6.3,4.9-9.1
	c3.4,0.5,3.7,2.5,2.4,5.2C239.5,272.4,237.4,274.1,237.9,276.9z"/>
<path class="st76" d="M291.9,240.8c-1.1,0.3-2.1,0.6-3.2,0.9c-0.7-0.3-1.2-0.7-1-1.5c1.9-3.1,6.7-2.8,8-6.6c1.3-1.7,2.7-3.4,5.2-2.7
	c0.4,1,1.2,1.1,2.1,1.1C300.3,236.3,295.7,238,291.9,240.8z"/>
<path class="st77" d="M80.1,286c-3.8-4.6-9.8-4.5-14.5-7c-2.9-1.5-6.3-2.1-8.4-5c10-3,19.3-2.2,27.7,4.6c2.5,1.2,4.4,3,4.9,6
	c0,0.6-0.2,1-0.6,1.4c-2.3-1.1-4.6-1.8-7,0C81.4,286.5,80.7,286.5,80.1,286z"/>
<path class="st78" d="M89,285.9c0-0.3,0-0.7,0-1c0.6-0.8,0.1-1.8,0.7-2.6c5.7-1.3,9.2,2.4,12.9,5.6c1.4,1.3,2.7,2.9,3.7,4.7
	c0.2,0.5,0.1,0.9-0.2,1.4c-2.7,1.3-5.4,2.7-8.1,4C93,295.5,93.4,288.9,89,285.9z"/>
<path class="st79" d="M80.1,286c0.7,0,1.3,0,2-0.1c0.4,0.5,0.9,1,1.1,1.6c0.6,1.9,4.4,3.6,1.7,5.6c-2.2,1.6-5.6,1.9-7.8-1.2
	C76.5,289.1,79,287.9,80.1,286z"/>
<path class="st80" d="M65,287.8c-4,0.3-7.9-0.4-11.8-0.9c-1.2-0.2-2.8,0-2.8-2c0.9-0.7,1.9-1.3,3.1-0.7c5.3,2.5,10.9,1.6,16.4,1.8
	C68.7,287.7,66.2,286.1,65,287.8z"/>
<path class="st81" d="M106.1,293.9c0-0.3,0-0.6-0.1-1c-1-2.9,0.6-4.3,2.9-5.2c8.2,4.1,16.7,7.6,25.4,10.5c-2.4,3.8-6.1,3.3-9.8,2.7
	c-2.1-0.3-4-1.5-6.1-2c-4-1.2-7.3-4.1-11.5-4.9C106.7,293.9,106.4,293.9,106.1,293.9z"/>
<path class="st82" d="M137.1,298.9c2.7-0.6,5.3-1.2,8-1.8c1.6,1.9,4,1.3,6,1.9c2.3,0.6,4.7,1,4.4,4.3c-0.5,1.1-1.2,2-2.6,2
	c-5.7-1.7-11.3-3.4-16.9,0.5c-1.4,0.1-2.7-0.3-3.9-1c-3-2.9-0.3-4.1,1.7-5.4C134.8,298.9,136.1,299.9,137.1,298.9z"/>
<path class="st83" d="M136.1,305.8c0.5-3.7,4.1-3.3,6-3.5c3.7-0.4,7.8-0.2,10.9,2.7c0.5,1.8-1.3,2-2.1,2.9l0,0c-0.3,0.4-0.4,1-1.1,1
	c-0.9-0.1-1.9-0.2-2.8-0.3C143.4,307.7,139.7,306.7,136.1,305.8z"/>
<path class="st84" d="M137.1,298.9c-2,1.7-6.4,1.3-4.9,5.9c-5-1-9.4-3.2-13.6-5.9c5.3,0.3,10.7,2.2,15.9-0.7
	C135.3,298.4,136.2,298.6,137.1,298.9z"/>
<path class="st85" d="M272.8,112.1c-6.2-8.4-12.7-16.6-20.2-23.9c2.5-2.6,5.3-2.9,8.4-1.2c6.3,4.5,9.9,11.4,15,17
	c1.3,2.3,2.7,4.7,4,7C277.5,111.2,275.4,113.2,272.8,112.1z"/>
<path class="st86" d="M260.9,87c-2.9-0.5-5.6,1-8.4,1.2C245,82,237.4,76,228.9,71.1c0.4-4,3.4-4.2,6.4-4.3c0.2,0,0.5,0.1,0.7,0.1
	c3.6,2.4,7.3,4.8,10.9,7.2c4.2,3.8,8.3,7.8,13,11C260.3,85.7,260.6,86.4,260.9,87z"/>
<path class="st87" d="M275,67.1c1.1,0,2.8-0.4,2.2,1.5c-1.8,6.2-3.4,12.6-9.3,16.4c0.8-4.3,3.8-7.5,5.4-11.3
	C274.1,71.4,275.2,69.4,275,67.1z"/>
<path class="st88" d="M306,125c0.5,5.7,3.2,10.7,5,16c1.1,11,1.9,21.9,0.2,33c-0.4,2.5,1.3,5.4,2,8.1c1.6,6.3,0.8,12.2-1.7,18.3
	c-2,4.9-3.5,10-4.3,15.2c-0.4,2.7-1.8,4.9-2.2,7.4c0,2.6-1.3,3.6-3.7,3.2c-2-1.7-1.6-4-1-6c2.3-7.6,3.2-15.5,6.2-23
	c2.9-7.3,2.2-15.1-1.5-22.3c-2.2-4.3-2.2-8.2-0.9-12.9c2.6-9.4,2.2-19,0.2-28.6C303.5,130.5,301.5,127,306,125z"/>
<path class="st89" d="M301.9,226c1.3-0.7,2.4-1.6,3-3c0.6,0,1.3,0,1.9,0c-0.5,3.8-4.4,4.9-6,7.8c-1.6,1-3.3,2-4.9,3.1
	c-0.2-0.2-0.3-0.3-0.5-0.5c-1-1.7,2-2.4,1.1-4.1C297.7,227.1,299.8,226.6,301.9,226z"/>
<path class="st2" d="M282.9,269.8c-0.6-0.3-1.3-0.6-1.9-0.9c4.7-1.5,8.7-5.1,13.9-5.1C290.9,265.9,287.1,268.4,282.9,269.8z"/>
<path class="st90" d="M85.2,279.9c-0.2,0-0.4,0-0.5,0c-8.1-7.3-18-6.1-27.7-5.9c0-0.3,0-0.6-0.1-0.9c0.7-0.3,1.4-0.7,2-1
	c0.1-0.1,0.2-0.3,0.4-0.3c7.8-1.1,15.4-0.8,22.4,3.2C83.7,275.9,85.5,277.3,85.2,279.9z"/>
<path class="st91" d="M207.9,54.2c1.9-4.9,5.5-8.5,9.1-12.1c7.5,5,14.3,10.9,21.2,16.7c1.7,1.4,3.5,2.4,5.8,2.3
	c-1.3,3.8-5.2,4.1-7.9,5.8c0,0-0.1,0.3-0.1,0.3c-1.2,0.1-2.4,0-3.4-0.6c-7.2-4.4-15-7.5-23-10.3C208.7,56,207.8,55.4,207.9,54.2z"/>
<path class="st74" d="M85.2,279.9c-4.6-6.7-11.7-7.2-18.8-7.8c-2.5-0.2-4.9-0.1-7.4-0.1c-2,0.2-3.4-1.2-5-2c5.1-1.7,10,0.2,15,0.9
	c2,0,4,0.1,6,0.1c7.3,1.1,12.2,5.2,15,12c0,0.8-0.1,1.6-1,2C88.1,283,87.2,281,85.2,279.9z"/>
<path class="st92" d="M301.9,226c-1.7,1.3-3.3,2.6-5,3.9c-0.6,0.3-1,0.3-1.4-0.3c-1.6-4.2,0.2-8.2,1-12.2c0.8-4.4,2.4-8.7,2-13.3
	c-0.1-0.8,0-1.8,0.5-2.4c6-7.7,3-16.2,2.2-24.5c-0.1-1-0.3-2.1-0.7-3c1.1,3.1,1.1,6.3,0.8,9.4c-0.2,1.4,0.2,3.7-2.5,3.3
	c-1.2-1.5-1-3.3-1.2-5c0-3.8,0-7.6,0-11.4c0.1-6.5-1.8-12.6-2.8-18.9c-0.5-4.4-1.9-8.6-3.3-12.8c-0.6-1.8-1.6-3.7-0.5-5.7
	c-1.9-4.4-3.9-8.8-5.8-13.2c5.5-2.3,9.6,2.1,14.4,3c2.9,0.6,5.7,1.2,8.6,0.2c-0.7,0.7-1.4,1.3-2,2c-2,2.3-1.4,4.8-0.8,7.4
	c2.6,10.9,3.3,21.8-0.7,32.6c-1,2.7-0.5,5.1,0.9,7.6c5,9.6,4.7,18.7,1,29.2C303.6,209.3,299.8,217.3,301.9,226z"/>
<path class="st93" d="M90,282.9c-3.9-5.3-8.9-9.3-15-12c-2.2-3.4-6.1-4.4-9.3-6c-11.9-5.8-18.6-16.3-26.5-26.9
	c1.6,0.5,2.3,0.7,3.1,0.9c2.3-0.3,4.1,0.6,5.3,2.7c4,8.5,11.1,13.8,19,18.3c10.5,6,21.1,11.8,32.1,16.9c0.4,0,0.8-0.1,1.2-0.2
	c1.3-0.4,2.5-1.9,4-0.6c2.4,3.6,1.9,8.5,5.1,11.8c-1,1.7-2,3.5-3,5.2c-3.6-2.1-5-6.6-9.2-8.1C94.6,284,92.7,282.1,90,282.9z"/>
<path class="st94" d="M24,216.7c0-0.2,0-0.4,0-0.5c-0.1-0.1-0.2-0.3-0.3-0.4c5.5,0.8,10.7-3.1,16.3-1c0.8,0.3,1.5,0.9,2.2,1
	c1,0.1,0.5,2.9,2.2,1.1c2.3,1.3,2.4,3.6,2.6,5.8c-0.4,3.4-2.6,2.7-4.7,2.1c-3.3-0.9-6.6-2.4-10-0.1c-3.3-0.1-4.6-3-6.8-4.8
	C24.5,219,24.7,217.6,24,216.7z"/>
<path class="st95" d="M44.1,216.8c-0.2,0.4-0.4,0.8-0.6,1.2c-4.2-3.6-8.7-4-13.2-1.1c-2.6,1.7-4.1-1.2-6.2-0.9
	c-0.4-0.7-0.8-1.4-1.2-2.1c1.2-4.7-0.3-9.4,0.2-14.1c1.9,2.3,0.7,5.1,0.9,7.6c0.3,4.2,3.2,6.5,7,4.7c3.5-1.7,6.7-1.4,10-0.4
	c0.8-0.5,0.1-2.2,1.7-2.2C44.8,211.8,45.6,214.1,44.1,216.8z"/>
<path class="st96" d="M25.9,219.1c2.6,0.9,3.7,3.8,6.1,4.9c2.7,0.5,4.6,2.6,6.8,4c3.6,2.3,7.3,4.7,12,3.8c1.9,1.8,2.4,3.9,1.5,6.3
	c-3,1.2-5.2,0-7.2-2.1c-2.3-1.1-4.6-2.3-6.9-3.4C31.5,230.4,28.1,225.2,25.9,219.1z"/>
<path class="st97" d="M47.3,241.7c-1.7-0.9-3.4-1.9-5.1-2.8c0.3-0.3,0.5-0.6,0.8-0.9c5,0,9.1,3.1,13.8,4.1c2,0.8,4,1.4,6,2
	c1.7,0.6,3.5,1.1,5.1,2c2.1,1.2,3.6,0.7,4.9-1c1.9,0.6,4.1,0.8,5.2,2.8c-0.2,0.4-0.5,0.8-0.9,1c-1.6,1-2.9,2.4-4.9,2.7
	c-7.6-2.3-14.9-5.2-22.5-7.7C48.7,243.6,47.8,242.9,47.3,241.7z"/>
<path class="st98" d="M57,243c-4.9-1.1-9.6-2.6-13.9-5.1c0.7-0.7,1.3-1.3,2-2c2.4,0.6,4.8,1.2,7.2,1.9c1.9-0.4,3.7-0.2,5,1.4
	C56.8,240.4,59.6,242,57,243z"/>
<path class="st99" d="M25.9,219.1c2.8,5.7,7.2,9.8,12.2,13.5c-0.5,1.5,1.1,2.6,1.1,4.7c-6.8-6.2-13.4-11.6-15.3-20.6
	C24.7,217.5,25.3,218.3,25.9,219.1z"/>
<path class="st100" d="M149.9,308.9c0.4-0.3,0.7-0.7,1.1-1c1.3,1.4,3.2,1.5,4.9,2c1.7-0.8,2.6,0.7,3.7,1.4c0.9,1.4,3.3,2.2,2.2,4.6
	c-0.2,1.2-0.7,2.2-1.7,2.9C156.4,315.8,152.5,313,149.9,308.9z"/>
<path class="st101" d="M49,118c0.3,0,0.6,0,0.9,0c0.6-0.6,1.3-0.8,2.2-0.7c0.5,0.1,1,0.4,1.3,0.8c0.5,1.2,0.2,2.3-0.2,3.3
	c-2.7,6.4-5.5,12.7-7.6,19.4c-0.3,0.9-0.8,1.8-1.7,2.3c-0.3,0.1-0.9,0-0.9,0c-2,7.6-7.6,12.6-13,17.7c-2.2,2.1-2.8,3.8-2.3,6.9
	c1,6.8,4.2,12.9,5.2,19.7c0.7,4.3,1,8.6-0.9,12.7c-1.6,3.3-0.4,3.9,3,3.5c2.4-0.3,6.2-1.1,5,3.8c-2.6,1-5.5,0.7-8.2,1.8
	c-2.5,1-4-0.7-4.8-3c-0.6-1.9-0.7-4,0-5.8c1.8-4.9,0.4-9.5-1.1-14c-1.1-3.4-1.8-7-2.8-10.4c-1-10.7,1-20.5,8-29c0.8-3.1,4-4.3,5.4-7
	c3.6-7.1,6.5-14.7,11.8-20.9C48.4,118.8,48.7,118.4,49,118z"/>
<path class="st102" d="M49,118.9c-0.1,1.3,0.5,3-0.7,3.7c-5.2,3.1-6.3,8.5-8.3,13.5c-1.8,4.6-5,8.1-8.9,10.9c-2.2,0-3.5,2.6-6,2
	c0.7-3.3,1.3-6.6,2-10c9.4-4.7,10.6-7,8-15c0.1-0.8,0.6-1.4,1.3-1.8C40.5,120.8,44.2,117.9,49,118.9z"/>
<path class="st103" d="M23.1,176c3,5.6,4.8,11.5,5.9,17.7c0.5,2.6-0.6,4.9-1.4,7.2c-1,2.6-0.5,4.9,1.1,7c1.8,2.1,3.7,0.4,5.5-0.2
	c2-0.6,3.9-0.8,5.9-0.7c0.8-0.1,0.9-2,2.2-0.9c0.9,1.2,1,2.5-0.1,3.6c-0.2,0.8-0.2,1.7-1.1,2.2c-1-4.6-4.6-3.1-7.2-2.7
	c-6.6,1-8.1,0.3-7.7-6.1c0.4-7-0.3-13.7-2.8-20.2C22.6,180.9,23.1,178.3,23.1,176z"/>
<path class="st104" d="M52.1,118c-0.7,0-1.4,0-2.1,0.1c0-0.6,0-1.3,0-1.9c2.4-2.3,0.2-4.7,0.1-7.1c-0.9-6.3,0.5-11.6,6-15.6
	c1.4-1,2.1-2.9,3.1-4.4c0.8-0.9,1.9-1.2,3-1.3c1.9-0.1,3.8-0.2,5.5,0.6c2.4,2.8,0.3,4.7-1.5,6.2c-3.2,2.9-6.2,6-9.3,9
	c-2.8,2.7-4.6,5.6-3.2,9.7C54.2,115.1,54.3,117,52.1,118z"/>
<path class="st105" d="M36.2,123.1c-0.4,0.3-0.7,0.6-1.1,1c-0.3,0-0.7,0-1,0.1c-1-0.1-2.2,0.2-2.9-0.3c-8.3-6-17.9-10.8-21.2-21.8
	c3,1.6,6.1,3.2,9.1,4.8c2.1,0.3,3.8,1.2,5.3,2.6c1.3,4.4,5.3,6.6,8,9.8C33.6,120.6,35.3,121.4,36.2,123.1z"/>
<path class="st106" d="M36.2,123.1c-5.1-2.3-11.8-9.7-11.9-13.2c6.5,1.2,12.4,4,18.6,6.2c2.1,0.6,4.1,1.2,6.2,1.9c0,0.3,0,0.6,0,0.9
	C44.8,120.3,40.5,121.7,36.2,123.1z"/>
<path class="st107" d="M42.9,116.2c-6.7-0.7-12.5-3.9-18.6-6.2c-1.7-1-3.4-2-5.1-3.1c0.5-0.6,1.1-0.8,1.7-0.4
	c7.1,3.7,14.7,5.9,22.2,8.5C45.4,115.7,43.7,115.8,42.9,116.2z"/>
<path class="st108" d="M52.1,118c1-1.5,1-3,0.3-4.7c-1.8-3.9-0.2-7,2.6-9.6c3.5-3.3,6.4-7.2,10.5-9.8c1.6-1.1,2.3-2.8,2.7-4.6
	c0.2-0.4,0.5-0.5,0.9-0.2c3.9-0.2,4.4-2.9,4-6c-0.5-4.4,1-6.6,5.8-6.1c3.5,0.4,6.1-1.7,7.9-4.3c2.5-3.5,5.7-6.5,8.7-9.5
	c4.7-4.9,4.7-6-0.4-10.1c3.4-2.3,6.5-1.3,8.8,1.4c2.5,3,0.4,5.6-1.8,7.8c-3.7,3.8-7.5,7.5-10.3,12.1c-2.1,3.1-5.4,5-8.1,7.4
	c-4.4,4.3-8.8,8.5-12.9,13.1c-5.1,6.4-9.9,12.9-13.9,20.1c-0.8,1.4-1.5,3-3.5,3.2C52.9,118,52.5,118,52.1,118z"/>
<path class="st109" d="M91,74c1.6-4.5,5.3-7.5,8.4-10.9c1.9-2.1,5.7-3.6,4.3-7.1c-1.5-3.8-5.4-2.9-8.7-3c-2,0-3.9-0.1-5.9-0.1
	c0.8-1,1.9-0.8,3-0.9c6.5-1.7,13.1-3.3,19.9-3.9c2.2,0.5,4.9,0.8,5.2,3.6c0.3,2.6-1.9,3.9-3.8,5.3c-2.8,1.9-6.3,3.1-6.7,7.2
	c-0.7,2-2.5,2.8-4.1,3.9C98.4,69.6,95.8,74,91,74z"/>
<path class="st110" d="M69,89c-0.3,0-0.6,0.1-0.9,0.2c-2-0.1-4-0.2-6-0.3c-0.3-0.3-0.7-0.6-1-0.9c-1.1-1.9-2.7-3.3-4-5
	c-0.8-1-2.5-2.3-0.1-3.5c4.3,0.4,6.4,4.7,10.4,5.6c0.5,0.6,1,1.2,1.5,1.8C69,87.7,69,88.4,69,89z"/>
<path class="st111" d="M67.5,85.1c-4.5,0.5-6.7-3.9-10.3-5.2c-7.1-3.6-12.5-8.8-16.2-15.9c1.6-1.4,2.1,0.9,3.2,1
	c5.9,7.6,13.5,13.3,21.8,18C66.5,83.8,67,84.4,67.5,85.1z"/>
<path class="st112" d="M290.8,133.1c1.7,6,4.5,11.6,5.1,17.9c-1.4,2-2.1,5.2-5.8,3.9c-1.8-6.3-3.6-12.5-5.4-18.8
	C286.7,135.2,288.8,134.2,290.8,133.1z"/>
<path class="st113" d="M113,49.1c-6.9,1.3-13.9,2.6-20.9,2.9c6-3.5,13.2-4,19.3-7.4c2.6-1.4,5.1-3.1,7.6-4.5c1.3,1.7,2.6,3.3,3.9,5
	C120.2,47.9,117,49.4,113,49.1z"/>
<path class="st114" d="M113,49.1c3.3-1.3,6.6-2.7,9.9-4c2.3,2.9,4.7,5.9,7,8.8c0,0.8-0.4,1.4-1.1,1.8c-4.4,1.8-8.9,3.3-13.2,5.4
	c-3.1,1.2-5.9,3.2-9.4,3.1c-2.2-3,0.5-4.3,2.2-5.8c1.4-1.2,3.1-1.8,4.6-2.9C117.5,52.6,117.5,51.6,113,49.1z"/>
<path class="st115" d="M125,40.2c1.7,0,3.4-0.1,5.1-0.1c0.3,0.3,0.5,0.7,0.7,1.1c1.5,2.4,3.7,4.3,5.1,6.8c2.6,4.7,5.9,6.9,11.2,4.2
	c1,0.1,1.9,0.4,2.3,1.4c0.6,2.9-1.1,4.4-3.5,5.2c-1.9,0.7-3.8,1.2-5.7,1.9c-1.9,0-2.9-1.3-3.9-2.7c-0.9-1.8-2.9-2.8-3.2-5
	C131.3,48.2,127.1,44.9,125,40.2z"/>
<path class="st116" d="M133.1,53c1.9,0.7,2.5,2.5,3.7,3.9c-0.3,0.8,0.2,1.7-0.1,2.5c-0.3,0.8-0.8,1.5-1.8,1.7
	c-1.3,0-2.6-0.1-3.9-0.1c-0.3-2.2-2.1-3.8-2.1-6.1c0.3-0.4,0.7-0.7,1-1.1C131.2,54.2,132.2,53.7,133.1,53z"/>
<path class="st117" d="M207.9,54.2c9.7,3.7,19.4,7.3,28.1,13.1c-2.4,1.1-5.6,0.9-7,3.9c-7.4-4-15.2-7-22.9-10.1
	c-2.3-2.7-2.2-5,0.9-6.9C207.2,54.1,207.6,54.1,207.9,54.2z"/>
<path class="st118" d="M208.7,40.4c0.9-0.3,1.8-0.3,2.3-1.2c1.8,1.1,0.2,1.9-0.3,2.6c-2.6,3.7-5.2,7.4-7.9,11.1c0,2-1.3,3.3-2.4,4.9
	c-1.1,1.2-2,2.8-3.8,3.1c-4.2-1-8.5-1.7-11.1-5.7c-0.2-1.1,0-2,1.1-2.6c3.1-0.9,5.3,1.8,8.1,2c3.3-0.8,4-4,6-6.1
	c1.2-1.3,2.2-2.9,3.5-4.1C205.9,43.3,206.8,41.3,208.7,40.4z"/>
<path class="st119" d="M199.8,56.9c1-1.3,2-2.7,3-4c1.4,0.4,2.8,0.8,4.1,1.2c-1.3,2.2-2.2,4.4-1,6.9c-1.4-0.5-2.8-1.1-4.4-0.7
	C199.9,59.8,199.4,58.6,199.8,56.9z"/>
<path class="st120" d="M38,62.1c0.7,0.7,1.4,1.4,2.1,2.1c3.7,3.8,6.4,8.3,9.3,12.8c0.8,1.3,2.5,2.4,1.5,4.4
	c-1.7,0.9-2.8-0.2-3.9-1.3C42.7,74.8,37.8,69.7,38,62.1z"/>
<path class="st121" d="M47.1,80.1c1.3,0.3,2.7,0.7,4,1c4.7,0.8,7.3,4.7,10.9,7.1c0,0.3,0.1,0.6,0.1,0.8c-1,0-2,0.1-3.1,0.1
	c-1.3,0-2.7,0-4,0C51.1,87.2,48.3,84.3,47.1,80.1z"/>
<path class="st122" d="M129.8,41c0.1-0.3,0.2-0.6,0.3-0.9c0.9-0.4,1.8-0.7,2.7-1.1c3.1-1,6.3-1.5,9.6-1.1c4.3,0.6,6.5,3,6.8,7.3
	c-0.9,0.8-2,0.9-3.2,0.8C140.6,44.4,134.6,44.9,129.8,41z"/>
<path class="st123" d="M149,44.8c-1.5-4.4-4.6-5.9-9.1-5.9c-2.3,0-4.7,1.8-7.1,0c0.3-0.3,0.7-0.7,1-1c1.4-0.7,2.8-1.6,4.4-1.8
	c7.2-0.7,11,1.5,13.6,7.7c0.2,1.4,0.3,2.7-1.2,3.5C149.2,47,149,45.9,149,44.8z"/>
<path class="st124" d="M137.6,37c-1.3,0.1-2.3,1.6-3.8,1c2.8-2.7,6.6-3.8,9.8-5.8c1.7-1.1,2.7-0.2,3.8,0.9c1.8,1.7,3.7,3.3,5.6,5
	c0.4,0.9-0.1,1.3-0.9,1.5c-0.7,0-1.5,0-1.8-0.5C146.7,34.4,142.3,35,137.6,37z"/>
<path class="st125" d="M149,30.3c1.1-1.3,1.8-3.3,4.2-2.7c0.7,2.1,1.3,4.2,2,6.2c0.2,1.1-0.2,1.5-1.2,1.3
	C152.3,33.6,150.6,32,149,30.3z"/>
<path class="st126" d="M153.9,35.2c0.4-0.4,0.8-0.9,1.2-1.3c0.7,0.3,1,1.4,2,0.9c0.5-0.8,1.1-1.4,2.1-1.3c0.4,0.1,0.8,0.4,1,0.8
	c0.1,0.5,0,0.9-0.2,1.3c-2.3,1.8-4,4.5-7.2,4.9c-0.7-0.2-1.2-0.7-1.1-1.5c0.4-0.3,0.9-0.7,1.3-1C154.3,37.4,154.6,36.5,153.9,35.2z"
	/>
<path class="st127" d="M167.9,9c4.8,4.1,8.1,9.6,12.4,14.2c1.4,1.4,0.9,3.1,0.5,4.7c-0.7,2.7-1.8,5.4-1.7,8.2
	c-1,0.8-1.8,0.4-2.5-0.4c-0.2-0.4-0.5-1-0.3-1.4c4.2-8.1-1.1-13.2-5.8-18.5c-0.5-0.6-1.1-1.2-1.6-1.9c-0.5-0.7-1-1.3-1.6-2
	c-0.3-0.3-0.5-0.7-0.7-1.1C167,10.3,167.4,9.7,167.9,9z"/>
<path class="st128" d="M166.6,11c0.6,0.1,1.2,0.3,1.7,0.4c-0.4,2.6-2.4,4.2-3.7,6.2c-1.6,1.6-3.1,3.2-4.2,5.1c-1.7,1.9-2,4-1.4,6.5
	c0.4,1.5,1.3,3.1,0,4.7c-0.6,0.3-1.2,0.6-1.8,1c-3.7-7.8-0.6-13.8,5.1-19.1C163.8,14.3,165.1,12.6,166.6,11z"/>
<path class="st129" d="M177,35.5c0.7,0.2,1.4,0.5,2.1,0.7c0.4,0.3,0.8,0.7,1.2,1c0.7,0.4,1.4,0.9,2.1,1.3c0.2,0.3,0.5,0.7,0.6,1.1
	c0.3,0.8,0.5,1.6,0.5,2.4c-0.4,1.7-1.9,1.3-3.1,1.5c-1.5-0.3-2.4-1.8-4-1.9c-1.9-0.6-3.5-1.9-5.2-3c-0.7-0.8-2.1-1.4-1-2.9
	c1.8-1.1,3.8-0.9,5.8-1.1C176.5,34.6,176.9,34.9,177,35.5z"/>
<path class="st130" d="M182.9,27.4c2.1,0.2,3.9,0.8,4.4,3.2c-2.4,1.9-3.8,5.1-7.2,5.8C181.1,33.3,182,30.4,182.9,27.4z"/>
<path class="st131" d="M190.1,32.3c5.3-0.5,8.8,3.3,13,5.6c0.3,0.4,0.3,0.9,0,1.3c-4.8,0.3-7.7-4-12-4.9c-0.4-0.2-0.8-0.5-1.2-0.8
	C189.7,33,189.7,32.6,190.1,32.3z"/>
<path class="st132" d="M202.8,38.7c0.1-0.3,0.3-0.6,0.3-0.9c1.8,0.9,3.7,1.7,5.5,2.6c-1,2-1.7,4.3-4.4,4.8c-0.3-0.6-0.4-1.2-0.4-1.9
	c0-0.4,0-0.8,0.1-1.2C204.1,40.8,202.7,40,202.8,38.7z"/>
<path class="st133" d="M190.1,32.3c0,0.5-0.1,0.9-0.1,1.4c-0.5,2.9-3,4.3-4.9,6.2c-1.1,0.6-2.3,1.4-3.2-0.3c0.1-0.4,0.3-0.7,0.4-1.1
	C185.7,37.3,187.1,33.8,190.1,32.3z"/>
<path class="st134" d="M62,88.1c-4.8-0.5-7.2-4.9-10.9-7.1c-4.1-5.3-7.6-11-10.9-16.9c0.3-0.1,0.5-0.1,0.8-0.1
	C45.8,70,51.6,74.9,57.2,80c-1.3,2.3,1.3,2.5,2.1,3.7C60.2,85.1,62.1,86,62,88.1z"/>
<path class="st135" d="M178,293c4,1.3,8.1,2.6,12.1,3.9c-0.2,2-1.8,2.5-3.4,3c-2,0.6-3.5,1.7-3.6,4c-0.4,0.1-0.9,0.2-1.3,0.3
	c-2-2-4.1-3.9-6.1-5.9C175.8,296.2,176.2,294.3,178,293z"/>
<path class="st136" d="M178,293c-0.5,1.8-0.6,3.9-2.3,5.2c-1.1-1-2.5-1.8-3.4-2.9c-2.7-3.4-5.4-3.9-8.3-0.3c-2.4,0-2.8-1.3-2.2-3.3
	C167.6,286.6,172.8,289.8,178,293z"/>
<path class="st137" d="M155.1,303c-1.2-2.9-3.8-2.8-6.4-3.2c-1.5-0.2-4.4,0.8-3.7-2.7c3.7-1.1,7.3-2.1,11-3.2
	c1.5,1.5,3.6,2.7,3.1,5.4c-0.3,0.5-0.7,1-1,1.6C157.1,301.7,156.9,303.4,155.1,303z"/>
<path class="st138" d="M158.9,312.3c-1-0.8-2-1.6-3-2.4c2.4-4.7,6.9-7.4,10.2-11.3c1.4-1.6,2.5-0.9,3.7,0.3c2.1,2.1,4.1,4.4,6.3,6.2
	c3.4,2.8,3.9,5.3,0.1,8.1c-0.8,0.6-1.5,1.3-2.2,2c-0.3-0.3-0.5-0.7-0.6-1.1c0-1.8,1.5-3,1.9-4.7c0.2-1.1-0.5-1.7-1.2-2.4
	c-1.1-1.2-2.3-2.3-3.6-3.3c-0.8-0.6-1.4-1.5-2.2-2.2c-1.3-0.7-2,0.3-2.7,0.9c-1.8,1.9-4.1,3.4-5.1,6c-0.1,0.7-0.2,1.3-0.4,2
	C159.9,311.2,159.6,311.9,158.9,312.3z"/>
<path class="st139" d="M159.1,299.4c-1-1.8-3.2-3-3.1-5.4c1.9-0.8,3.8-1.6,5.7-2.3c0.3,1.4,0.8,2.7,2.2,3.3
	C162.9,297,160.6,297.7,159.1,299.4z"/>
<path class="st140" d="M158.9,312.3c0-1-0.1-1.9-0.1-2.9c5.1,1.9,8.3,5.6,8.2,9.7c-0.5,0.2-1,0.1-1.5-0.2c-1.3-1-2.6-2-3.9-3
	C160.8,314.7,159.9,313.5,158.9,312.3z"/>
<path class="st141" d="M165.6,318.9c0.4-0.1,0.8-0.1,1.2-0.2c2.2-1.8,3.7-4.9,7.1-4.9c0,0.5,0.1,1,0.1,1.5c-1.3,1.4-2.6,2.8-3.9,4.2
	C168.4,321.4,166.9,321,165.6,318.9z"/>
<path class="st142" d="M155.1,303c1-0.7,2-1.4,3-2.1c-1.3,3.4-3.6,5.8-7.1,7c0.7-1,1.4-1.9,2.1-2.9
	C153.7,304.3,154.4,303.7,155.1,303z"/>
<path class="st143" d="M53.4,118.1c5.1-8.3,10.1-16.8,16.6-24.1c3.4,2.4,1,5.6,1.2,8.4c-3.4,5.8-7.5,11.1-10.7,17
	c-7.7,14-12.4,28.9-14.3,44.8c-3.3,26.6,1.8,51.5,14,75.2c0.1,0.3,0,0.6,0,1c-1.1,0.6-2.1,0.5-3-0.5c-1.7-0.7-3.3-1.4-5-2
	c-1-1.9-0.6-4.2-2.2-5.9c-3.6-2.1-3.2-5.9-3.9-9.1c-0.3-2.1-0.9-4.1-2-6c-0.6-2.4-1.3-4.7-1.9-7.1c-0.1-1.4-0.1-2.8-1-4.1
	c-3.3-3.7-1.8-8.6-3.2-12.9c-0.3-1.4-0.3-2.9-0.4-4.4c0-6.3,0-12.6,0-19c0-1.8,0-3.5,0.3-5.3c1.4-6,1-12.3,3.5-18
	c0.5-1.1,0.8-2.1,1.7-2.9C46.3,134.8,49.4,126.3,53.4,118.1z"/>
<path class="st144" d="M298.8,182c0.1,1.6,0.2,3.3,0.2,4.9c1.4,1.5,1.2,3.4,0.9,5.1c-1.7,13.8-4.9,27.3-10.7,40
	c-0.8,1.5-1.6,2.9-3.3,3.7c-2.4,0.4-4.7,1.6-7.1,0.1c6.8-14.6,11.1-29.9,13.1-46C294.3,187.3,294.5,182.9,298.8,182z"/>
<path class="st145" d="M91,74c3.7-2.3,7.4-4.6,11.1-6.9c3.1-0.1,5,1.8,6.8,3.9c-7.2,5.1-14.5,10.1-21.7,15.2
	c-1.8-1.4-3.4-2.9-4.1-5.2C85.7,78.7,88.3,76.4,91,74z"/>
<path class="st146" d="M83.1,81.1c1.9,1.3,3.8,2.6,4.1,5.2c-5.3,5.4-10.6,10.8-15.9,16.2C69,99.9,71.2,96.7,70,94
	C74.1,89.4,78.2,84.8,83.1,81.1z"/>
<path class="st147" d="M164.6,83c-8.1,0.6-15.7,3.4-23.7,4.6c2-6.2,0.9-12.5,1-18.7c0.1-3.8,0.2-7,5-7.4c0.4,0,2-0.1,1-1.4
	c-0.2-0.3-0.9-0.3-1.4-0.4c0.4-2.4,2-1.7,3.4-1.4c1,0.6,1.6,1.4,1.5,2.6c-1,3-4.5,2.9-6.3,5c-1.4,5.4-0.5,10.9-0.5,16.3
	c1.4,2.2,3.3,0.6,4.8,0.4c3.4-0.4,6.7-1.5,9.9-2.4c1.4-0.6,2.9-1,3.3-2.8c0.4-2.7-0.7-5.8,2.3-7.7c0.6-0.1,1.1,0,1.5,0.4
	c1.5,3.4,2.3,6.9,1.5,10.7C167.4,82.5,166.2,83.1,164.6,83z"/>
<path class="st148" d="M290.1,155c2.7-0.1,3.6-3.1,5.8-3.9c1.2,6.3,3,12.4,2.9,18.9c-0.6,1.2-1.1-2.8-2.1,0
	c-0.7,1.9-2.3,4.2-4.6,1.1C291.4,165.7,290.7,160.3,290.1,155z"/>
<path class="st149" d="M129,55c1.9,1.6,4.2,3.1,2.1,6.1c-4.3,1.7-8.7,3.4-13,5.1c-1.2-1.9-2.6-3.6-2.9-5.9C119.5,58,124.1,56,129,55
	z"/>
<path class="st150" d="M287.9,240.7c0.3,0.3,0.6,0.7,0.9,1c-8.3,3-16.6,6.1-24.9,9.1c-7.5-0.8-12.8,2.8-15.9,10.7
	c-0.4,0.5-0.8,0.9-1.2,1.4c-3.1-0.4-2.8-2.9-3-5c5.3-5.9,11.9-9.8,19.2-12.7c4,3.6,7.3-0.4,10.9-1.1c1.9-1,4.1-1.2,6-2.1
	C282.6,241.2,285,239.2,287.9,240.7z"/>
<path class="st151" d="M292.1,171c4.1,1.7,3.7-2.6,5.4-4.2c0.5,1.1,0.9,2.1,1.3,3.1c0,4,0,8.1,0,12.1c-2.9,2.1-3.2,6.4-6.8,7.9
	c0-0.7,0.1-1.3,0.1-2c0.6-4.6,0.6-9.3,0-13.9C292.1,173,292.1,172,292.1,171z"/>
<path class="st152" d="M197.1,65.4c-0.1,5.6-0.1,11.2-0.2,16.7c0,5.9,0,5.9-5,3.1c0.1-0.3,0.1-0.5,0.2-0.8
	c1.1-5.9,0.3-11.9,0.5-17.8c0.1-3.3-2.8-3.1-4.7-4.2c-1.7-1-5.1-1.8-1.2-4.4c3.9,0.5,7.7,1.3,10.7,4C198,63.3,197.7,64.4,197.1,65.4
	z"/>
<path class="st153" d="M115.1,60.3c2.3,1.3,3.4,3.2,2.9,5.9c-3.1,1.6-6.1,3.2-9.2,4.9c-3,0.1-4.1-3.3-6.8-3.9c1.4-1,2.8-2,4.2-3
	C109,62.3,112.1,61.5,115.1,60.3z"/>
<path class="st154" d="M243.9,257.8c1.7,1.2,1.1,3.9,3,5c-3.6,4.3-6.6,8.9-9,14c-2.1-2.4,0.2-4,1.2-5.6c1.7-2.6,1.7-4.6-1-6.3
	C239.5,262.1,241.4,259.8,243.9,257.8z"/>
<path class="st155" d="M76.9,248c0.4,0,0.8-0.1,1.2-0.1c6,1.8,10.6,5.7,14.8,10.1c-0.2,2.2,0,4.6-2.8,5.4c-1.4-0.1-2.2-0.9-2.5-2.2
	c0.9-4.3-2.3-6.1-5.1-8.2C80.4,251.6,77.4,251.2,76.9,248z"/>
<path class="st156" d="M72.9,245.1c-0.3,3.3-1.8,4.1-4.7,2.4c-1.7-1-3.4-1.7-5.2-2.6c-1.6-1-2.3-2.1-1-3.8
	C65.9,241.8,69.4,243.5,72.9,245.1z"/>
<path class="st157" d="M89.9,263c2-1.1,1.5-3.6,3-5c0.7,0.9,1.4,1.8,2.2,2.7c0.9,3.8,1.1,7.8,3.9,10.9c1.2,2,2.5,3.9,1.1,6.3
	c-0.4,0-0.7,0-1.1,0C95.1,273.5,92.2,268.5,89.9,263z"/>
<path class="st158" d="M273.9,244.9c-2.3,2-5.3,2.2-7.9,3.3c-2.6,1.1-1.5-2.4-2.9-3.1c3-1,5.6-2.9,8.9-3.1
	C273.3,242.5,274,243.5,273.9,244.9z"/>
<path class="st159" d="M98.1,271.9c-3-3.2-4.5-6.7-3-11.1c2.7,2.2,4.5,5,5.8,8.2C100,269.9,99.7,271.5,98.1,271.9z"/>
<path class="st160" d="M278.9,235.9c2.3-0.4,4.6-1.4,7-1c1.1,1.4,0.3,2.4-0.7,3.5c-2.2,1.4-4.6,2.4-7.3,2.4c-0.5-0.1-1-0.3-1.4-0.7
	C277.4,238.7,278.2,237.3,278.9,235.9z"/>
<path class="st161" d="M98.1,271.9c0.6-1.2,0.9-2.8,2.7-2.9c0.6,2.5,3.1,4.2,3.1,7c-1.7-0.1-2.5,1.4-3.8,2
	C100.1,275.7,98.9,273.9,98.1,271.9z"/>
<path class="st162" d="M180.1,83c-2.6,1.5-5.5,0.4-8.2,1c-1.4-0.8-2.6-1.9-3-3.6c-0.4-2.4-0.7-4.8,0.6-7.1c4,0,2,3.6,3.2,5.3
	c0.6,1.1,1.7,1.4,2.8,1.7C177.1,81.1,179.6,80.3,180.1,83z"/>
<path class="st163" d="M197.1,65.4c-0.1-1.2-0.3-2.3-0.4-3.5c-0.2-0.6-0.3-1.3,0.4-1.7c0.9-1.1,1.8-2.2,2.7-3.3
	c0.6,1.1,1.2,2.3,1.8,3.4C202.2,63.9,198.8,64,197.1,65.4z"/>
<path class="st164" d="M150,59.2c-1.3-0.2-2.5-0.3-3.5,0.6c-2,0.5-4.1,1.1-6.1,1.6c-0.3-0.3-0.5-0.7-0.6-1.2c3.4-2,8-2,9.7-6.4
	c0.5,0,1,0.2,1.3,0.6C151.5,56.2,153.3,58.2,150,59.2z"/>
<path class="st165" d="M180.1,83c-1.7-0.6-3.5-1.2-5.2-1.9c0.2-0.8,0.7-1.3,1.5-1.5c2-0.1,3.9,0.3,5.8,0.6c3.2,1.1,6.9,0.6,9.7,3.1
	c0.3,0.4,0.4,0.9,0.1,1.4c-0.1,0.2-0.1,0.3-0.1,0.5C188,84.5,184,83.8,180.1,83z"/>
<path class="st166" d="M276.6,240.1c0.5,0,0.9,0.1,1.4,0.1c0.9,0.8,1.9,1.5,2,2.9c-1.8,1.3-4,1.3-6.1,1.9c-0.7-1-1.3-1.9-2-2.9
	C273.5,241.4,275.1,240.7,276.6,240.1z"/>
<path class="st167" d="M169.6,81.2c0.4,1.2,2.7,0.9,2.3,2.8c-2.8,2.3-5.3,2.6-7.3-1c0.8-0.6,1.6-1.3,2.5-1.9
	C167.9,80.5,168.8,80.7,169.6,81.2z"/>
<path class="st168" d="M62.1,241.1c-0.2,1.4,0.3,2.6,1,3.8c-2.2-0.1-4.2-0.7-6.1-1.9c1.8-0.9-1.7-2.3,0.3-3.2c1,0.2,2,0.3,3,0.5
	C60.9,240.6,61.5,240.8,62.1,241.1z"/>
<path class="st169" d="M139.7,60.3c0.2,0.4,0.4,0.8,0.6,1.2c-1.1,0.6,1.6,4.5-2.3,2.6c-1.2-1.5-1.3-3.5-2-5.2c0.3-0.6,0.6-1.3,0.8-2
	C137.8,58.1,138.7,59.2,139.7,60.3z"/>
<path class="st144" d="M292.1,174.1c1.2,4.6,1.4,9.3,0,13.9C292.1,183.3,292.1,178.7,292.1,174.1z"/>
<path class="st170" d="M136,58.9c2.3,1.1,2.4,3.1,2,5.2c-1.5-0.5-2.9-1.1-3.1-2.9C135.3,60.4,135.6,59.6,136,58.9z"/>
<path class="st171" d="M248,261.5c0-4.6,7.6-13.3,11.8-13c1.4,0.1,2.7,1.5,4.1,2.3C258.6,254.4,253.3,257.9,248,261.5z"/>
<path class="st172" d="M280,243c-1.2-0.5-2-1.4-2-2.9c2.4-0.8,4.7-1.6,7.1-2.4c3.4-1.9,6.6-4.6,10.9-4.2c0,0,0,0.4,0,0.4
	c1.1,2.6-1.2,2.9-2.6,3.7c-1.8,1.1-3.7,2-5.6,3C285.2,241.5,282.6,242.2,280,243z"/>
<path class="st173" d="M296,233.5c-3.5,1.9-7,3.5-10.9,4.2c0.3-0.9,0.6-1.8,0.8-2.8c0.7-1,1.4-1.9,2.1-2.9c2.7-0.4,5.2-1.8,7.9-2
	c0.3,0,0.7-0.1,1-0.1C298.3,231.5,295.4,232.1,296,233.5z"/>
<path class="st89" d="M295.9,230c-2.4,1.7-4.6,3.9-7.9,2c6.1-14.4,9.6-29.5,11-45.1c2-4.5,0.1-9.3,1.3-14.5
	c3.7,7.8,3.7,15.4,3.4,23.2c0,0.6-0.4,1.3-0.7,1.9C297.9,207.7,298.1,219.1,295.9,230z"/>
<path class="st73" d="M89.9,263c3.8,4.5,6.7,9.6,9.1,14.9c-9.5-3.8-18.6-8.6-27.4-13.9c-6.8-4-14.4-7.1-19.4-13.6
	c-2-2.6-5.9-4.4-4.9-8.7c8.6,3.1,17.1,6.1,25.7,9.2c6.3,1.5,11.1,4.9,14.9,10.1C88.6,261.7,89.3,262.3,89.9,263z"/>
<path class="st174" d="M46.2,222.8c1.3,3,2.6,6.1,3.9,9.1c-0.4,2.9-2,1.8-3.6,1.2c-5.5-1.9-10.3-5-14.5-9.1
	c3.4-4.8,7.3-0.8,10.9-0.6C44.1,223.5,45.6,225.7,46.2,222.8z"/>
<path class="st175" d="M88,261c-5-3.4-10-6.7-14.9-10.1c1.3-1,2-2.7,3.9-2.9c3.3,2.3,6.7,4.6,10,6.9C89.4,256.6,89.8,258.6,88,261z"
	/>
<path class="st176" d="M43.3,143.3c-2.5,6.8-2.2,14-4,20.9c-0.1-0.1-0.4-0.2-0.4-0.3c0.1-0.5-0.1-0.6-0.2-0.3
	c-0.2,1.8-0.7,3.5-0.6,5.3c0.2,7.8-0.4,15.6,0.5,23.3c0,0.2,0,0.3,0,0.5c0.2,1,0.4,0,0.6,0c0.7,4.3,1.4,8.6,2,12.9
	c-0.5,0.3,0.4,2-1.2,1.3c-1.4-3.3-3.8-3.1-6.4-1.8c-1.2,0.6-2.5,1.1-3.7,0c-1-1-1-2.1-0.3-3.2c5.1-8.7,1.7-17.1-1.4-25.3
	c-1.5-3.9-0.8-8.2-2.9-11.9c-0.8-1.4,1-2.7,2.2-3.6c6.3-5.1,11.6-10.9,14.7-18.6C42.8,141,42.8,143.1,43.3,143.3z"/>
<path class="st177" d="M129.8,41c5.3,1.9,11.1,1.7,16.2,4.1c4.1,2.4,4.4,4.6,0.8,7.8c-6.4,3.1-6.5,3.2-10.6-2.7
	C134,47.1,131.3,44.5,129.8,41z"/>
<path class="st178" d="M146.8,52.9c1.9-2.8,1.9-5.4-0.8-7.8c1-0.1,2-0.2,3-0.3c1.1,0.4,1.1,1.3,1.3,2.2c1.2,1.5,1,3.2,0.8,4.9
	c-0.2,0.8-0.5,1.6-1.4,1.9c0,0-0.2,0.1-0.2,0.1C148.6,53.5,147.7,53.2,146.8,52.9z"/>
<path class="st179" d="M165.9,70.2c-0.3,0-0.5-0.1-0.8-0.2c-3.3,0.2-5.9-1-7.9-3.7c-0.5-4.5-0.3-4.5,4.6-2.4
	c11.9,3.3,21.8-4.2,19.6-14.9c-0.4-1.9-1.7-3.7-0.6-5.7c0.2-1.3,1.9-0.1,2.2-1.3c2.4,0,2.6,2.1,3.3,3.7c0.6,2.4,1.8,4.9,0.3,7.4
	c-0.2,0.6-0.5,1.3-0.7,1.9c0.8,1.2,0.2,2.2-0.4,3.1c-1.4,1-0.9,3-2,4.2c-1.9,1.7-2.7,3.8-2.5,6.3c-2,2.4-4.8,2.8-7.7,2.9
	c-1.2-0.4-2.3-1.3-3.6-1.2C168.5,70.3,167.2,70.4,165.9,70.2z"/>
<path class="st180" d="M186.7,53.1c-0.5-2.3-1.1-4.6-1.6-6.9c0.7-0.9,1.6-1.2,2.7-1.3c4.6,1.8,9.2,1.7,13.8-0.2
	c1.6,1.6,0.2,2.7-0.6,3.8c-1.9,2.5-3.5,5.2-5.9,7.3C191.9,56,189.8,53,186.7,53.1z"/>
<path class="st181" d="M195.1,55.8c1.2-4.3,5.4-6.6,6.9-10.7c0.5-1.4,1.2-2.5,3-2c-0.2,0.7-0.4,1.4-0.6,2.2
	C201.4,48.9,199.9,53.8,195.1,55.8z"/>
<path class="st182" d="M184.9,58.1c0.4-1.1,0.7-2.1,1.1-3.2c3.3,2.6,7.3,3.7,11.2,5.3c-0.1,0.6-0.3,1.1-0.4,1.7
	c-3-1.7-6.3-2.2-9.5-3.1C186.4,58.5,185.5,58.8,184.9,58.1z"/>
<path class="st183" d="M150.1,52.2c0.1-1.7,0.2-3.4,0.2-5.2c0.9-0.8,0.7-1.9,0.7-2.9c-0.6-2,0.7-2.8,2.1-3.6
	c1.9-2.3,3.9-4.4,6.8-5.4c1.7-0.8,2.1,0.4,2.4,1.7c-3.5,3.8-7.6,7.2-8.6,12.6C152.9,50.9,152.7,53.2,150.1,52.2z"/>
<path class="st184" d="M153.1,40.6c-0.7,1.2-1.4,2.4-2.1,3.6c-2.6-5.9-7.5-7.5-13.4-7.1c7.2-4.4,7.2-4.4,14.1,2
	C152.2,39.6,152.6,40.1,153.1,40.6z"/>
<path class="st185" d="M161.9,36.9c-0.4-0.9-1.1-1.5-2-1.7c0.1-0.2,0.2-0.5,0.4-0.7c0.6-2.9,5.4-1.4,5.3-5c0-3-0.2-6,0.1-9
	c0.1-1.8-0.2-3.8,2.1-4.6c1.7,1.1,1.5,2.9,1.6,4.6c0.1,1.5,0.1,3-0.1,4.4c-0.6,4.4,0.9,7.3,5.4,8.4c0.7,0.5,1.2,1.1,1.2,1.9
	c-1.8,1.7-4,0.3-6,0.9C167.4,37.7,164.8,38.4,161.9,36.9z"/>
<path class="st186" d="M166.9,31.1c-0.9,3.6-4.6,2-6.6,3.4c-0.4-0.2-0.9-0.4-1.3-0.6c-0.3-4.1-4.6-8.5,0.9-12.1
	c1.9,0.7,2.1,2.4,2.4,4c0.4,2.2,2,3.3,3.6,4.4C166.2,30.4,166.6,30.8,166.9,31.1z"/>
<path class="st187" d="M168.4,20.8c-0.1-1.6-0.3-3.2-0.4-4.9c-0.9-1.5-1.1-2.8,1.2-3.1c3.1,3.6,6.1,7.3,9.4,10.8
	c1.9,2.1,0.3,4-0.1,6c-0.4,1.9-1,3.8-1.4,5.8c-0.4-0.1-0.7-0.1-1.1-0.2c-0.4-0.3-0.7-0.6-1.1-0.8c-0.3-3-0.8-5.9-1.6-8.7
	c-0.8-2.6-3.9-4.2-3.6-7.4C169,19,170.3,20.7,168.4,20.8z"/>
<path class="st188" d="M169.2,12.9c-1.1,0.8-1.1,2-1.2,3.1c-2,4.9-0.6,10.1-1.1,15.1c-0.3,0-0.6,0-0.9,0c-4.2-2.3-4.7-5.8-3.3-9.9
	c0.5-1.4,1.2-2.7,1.1-4.2c1.5-1.9,3-3.7,4.5-5.6C168.6,11.9,168.9,12.4,169.2,12.9z"/>
<path class="st189" d="M163.8,16.9c1.7,1.2,1,2.6,0.4,3.9c-1.8,3.8-1.4,7.3,1.8,10.2c-5.6-0.7-4.4-6-6.2-9.3
	C160.9,19.9,162.2,18.3,163.8,16.9z"/>
<path class="st190" d="M180.8,43.3c3.4,6.7,3,13-2.3,18.7c-4.3,4.5-10.9,5.6-17.3,3c-0.4-1,0.3-1.3,1-1.5c5.9,1,11.4,0.5,15.1-5.1
	c3.6-4.3,2.7-8.8,0.8-13.4c-0.5-1.3-2-2.3-1.4-4C179.1,40,179.3,42.8,180.8,43.3z"/>
<path class="st191" d="M161.9,36.9c2.7-0.5,5.3-1.2,8-0.8c0.7,0.6,1.4,1.3,2,1.9c-3.2,2.6-7.8,0.3-10.9,3c-4.2,2.8-5.6,6.8-5.4,11.6
	c0.1,1.6,0.7,3.3-0.8,4.7c-0.6,0.1-1.1,0-1.5-0.3c-2.7-2.5-0.7-5.3-0.6-8C154,43.6,157,39.5,161.9,36.9z"/>
<path class="st192" d="M160,40.1c3.7-2.7,7.8-2.5,12-2c1.6,0.9,3.2,1.9,4.8,2.8c5.6,6.9,5.9,12.3,1.3,18.6c-0.4-0.3-0.7-0.7-0.8-1.2
	c0.1-3.5,1.8-7,0.4-10.6c-2.4-5.9-5.8-7.6-13.3-6.6c-1.1,0.1-2.2,0.7-3.4,0.5C160.3,41.4,159.7,41,160,40.1z"/>
<path class="st193" d="M187.9,46.1c-0.9,0-1.9,0.1-2.8,0.1c-0.3-1.6-0.8-3.1-2.1-4.2c-0.3-0.8-0.7-1.6-1-2.4
	c1.3,0.7,2.1-0.2,3.1-0.8c1.8,1,2.2,2.7,2.4,4.5c-1.1,1.2,0.5,1.2,0.8,1.7C188.4,45.5,188.3,45.8,187.9,46.1z"/>
<path class="st194" d="M202.8,38.7c0.5,1.3,4.5,0.5,2.2,3.6c-1.5,0.7-3,1.2-4.7,1.2c-2.6-0.2-5.2,0.3-7.8,0.4
	c-2.7-0.6-3.2-2.4-2.7-4.8c0.4-1.9,0.5-3.9,1.3-5.7C195.6,33.9,198.7,37.3,202.8,38.7z"/>
<path class="st195" d="M191.1,33.3c1,1.6,0.6,3.1,0.1,4.7c-0.5,1.6-1.4,3.5,0.7,4.9c-1.4,1.7-3,2.3-4.9,1c-0.6-1.7-1.3-3.4-1.9-5.2
	c1.7-1.7,3.3-3.4,5-5.1C190.4,33.6,190.8,33.4,191.1,33.3z"/>
<path class="st196" d="M200.4,42.1c1.5,0.1,3.1,0.1,4.6,0.2c0,0.3,0,0.5-0.1,0.8c-1,0.7-2,1.3-3,2c-4.4,3.8-9.2,3.1-14.1,1
	c0-0.2,0.1-0.5,0.1-0.7C191.8,43.1,196.2,43.1,200.4,42.1z"/>
<path class="st197" d="M173.9,313.8c-2.5,1.5-3.8,4.6-7.1,4.9c-1.1-4.4-5.3-6.2-7.9-9.4c0.1-0.4,0.2-0.9,0.3-1.3
	c2-0.9,4.1-0.3,6.1-0.5c1.1,0,2.2,0,3.3,0c2.8,0.1,5.7-0.4,8.3,1.4C175.9,310.5,174.9,312.2,173.9,313.8z"/>
<path class="st198" d="M165,309c-2,0-4.1,0.5-5.8-0.9c1.2-2.7,3.7-4.2,5.8-6.1C168.6,304.3,167.7,306.6,165,309z"/>
<path class="st199" d="M165,309c0.8-2.3,2.1-4.6,0-6.9c1.3-1.8,2.5-4.6,4.8-0.8c-1.2,2,0.1,4.3-0.9,6.3c-0.2,0.4-0.5,0.8-0.8,1.2
	C167,308.8,166,308.9,165,309z"/>
<path class="st200" d="M168,307.7c0.7-2.1-1.9-5.2,1.7-6.5c0.3,0.6,0.6,1.1,0.8,1.7c3,2.6,1.7,4.1-1.3,5.2
	C168.7,308.3,168.3,308.2,168,307.7z"/>
<path class="st199" d="M168.9,307.8c2-1.1,3.3-2.5,1.7-4.8c2.2,0.2,3.1,2.2,4.4,3.6C173.7,308.8,173.4,308.9,168.9,307.8z"/>
<path class="st201" d="M168.9,307.8c2.1-0.2,4.5,1.1,6.1-1.2c0.8,0.7,1.9,1.1,1.9,2.4c-2.9,0-5.8-0.1-8.8-0.1c0-0.4,0-0.7,0-1.1
	C168.3,307.8,168.6,307.8,168.9,307.8z"/>
<path class="st202" d="M39.2,192.8c-0.5,1,0.3,2.3-0.8,3.3c-1.7-11.7-2-23.4,0.2-36.3c0.4,2.3,0.5,3.4,0.7,4.5
	c-0.1,1.6-0.2,3.1-0.3,4.7c-0.5,6.7-0.6,13.3,0.1,20C39,190.2,39.1,191.5,39.2,192.8z"/>
<path class="st176" d="M38.9,189c-1.6-6.7-1.5-13.3-0.1-20C38.9,175.7,38.9,182.3,38.9,189z"/>
<path class="st203" d="M163.7,79c-0.7,1.7-2.2,1.9-3.7,2.1c-5.1,1.1-10.1,2.2-15.1,3.4c-0.5,0-1-0.2-1.2-0.7c0.1-3.3,2.8-5,4.4-7.5
	c2.7-2.8,4.3-6.7,8.1-8.4c6.8,0.7,7.3,1.3,7.3,7.7C163.5,76.7,163.4,77.9,163.7,79z"/>
<path class="st204" d="M155.6,69c-2.2,2.7-4.4,5.3-6.7,8c-5.3-1.5-4.4-6.3-5.3-10.1c0-1-0.5-2.1,0.7-2.8c2.4-0.6,5-0.9,6.7-3.1
	c0.4-0.3,0.8-0.3,1.3-0.1C153.6,63.5,155.7,65.8,155.6,69z"/>
<path class="st205" d="M165.9,70.2c1.2-1.3,2.6-0.9,4-0.5c0.4,0.2,0.7,0.6,0.8,1c0.2,0.9,0.1,1.8-0.7,2.4c-0.1,2.7-0.3,5.4-0.4,8.1
	c-0.9,0.5-1.7,0.6-2.6-0.1C166.7,77.5,166.3,73.8,165.9,70.2z"/>
<path class="st206" d="M155.6,69c-2.1-2.3-2.8-5.2-4.1-7.9c0.4-0.3,0.8-0.5,1.3-0.5c2.7,0.8,3.6,3.5,5.2,5.4c1.8,2.4,5,2.2,7.1,4
	c-2.3,2.7-0.8,6-1.3,9c-1.1-1.1-0.7-2.4-0.8-3.7C162.8,69.9,161.4,68.7,155.6,69z"/>
<path class="st207" d="M153,61.2c-0.5-0.1-1-0.1-1.5-0.2c0,0-0.3,0-0.3,0S151,61,151,61c-0.3-0.6-0.7-1.2-1-1.8
	c2.5-1.9-0.6-3.6-0.3-5.4c0.1-0.5,0.3-1.1,0.4-1.6c2.1-0.1,1.6-2.3,2.7-3.2c0.4,2.7-0.3,5.5,1.2,8.1C155.2,58.8,154.4,60.1,153,61.2
	z"/>
<path class="st208" d="M144.2,83.9c5.3-0.7,10.4-2.9,15.8-2.8c-4.7,2.2-9.9,2.6-14.9,3.8c-0.8,0.2-1.6-0.1-2-1
	C143.4,83.6,143.8,83.5,144.2,83.9z"/>
<path class="st209" d="M144.2,83.9c-0.4,0-0.7,0.1-1.1,0.1c0-5.3-0.1-10.6,0-15.9c0-1.4-0.5-3.1,1.2-4c-0.1,1-0.2,2-0.3,3
	c0.5,5.3,2.7,10.5,0.1,15.8C144.2,83.2,144.2,83.6,144.2,83.9z"/>
<path class="st210" d="M184.9,58.1c0.8,0.2,1.5,0.5,2.3,0.7c-2.7,1-1.2,2,0.2,2.1c7,0.6,7.2,5.2,6.8,10.5c-0.3,3.6,0,7.3,0,11
	c0,1.4-0.1,2.8-2.1,2.3c0-0.2,0-0.5,0-0.7c-0.6-3.5-0.3-7-0.3-10.5c-0.1-8-0.1-8-7.4-10.5c-0.5-0.3-0.9-0.6-1.1-1.1
	C183.2,60.4,184,59.2,184.9,58.1z"/>
<path class="st211" d="M170.1,70.2c-0.1-0.1-0.2-0.3-0.2-0.5c1.5-0.6,3.1-1.2,3.3,1.3c0.4,0.4,0.6,0.8,0.8,1.2
	c0.3,2.8,0.5,5.7,2.1,8.2c-0.4,0.2-0.8,0.5-1.2,0.7c-1.1-0.1-2.3,0.1-3-1.1C170.9,76.8,172.3,73.2,170.1,70.2z"/>
<path class="st212" d="M170.1,70.2c3.4,2.8,1.4,6.6,1.8,9.9c-1.9-2,0.3-5-1.9-6.9C170.1,72.1,170.1,71.2,170.1,70.2z"/>
<path class="st213" d="M173.2,72.1c0-0.3,0-0.7,0-1c2.5-1.2,5.5-1.1,7.7-3c2.6,0.5,3.5,2.8,5,4.5c1.4,1.7,2.6,3.4,3.9,5.2
	c-0.3-6.1-0.3-6.1-4-10.8c-1.1-1.4-2.6-2.7-1.6-4.8c0.3,0,0.7,0,1,0c7.9,1.8,8.1,1.8,7.8,9.8c-0.1,4,1.2,8.2-1,12
	c-3.5-0.9-6.9-1.8-10.4-2.8C180.8,75.1,179.5,73.7,173.2,72.1z"/>
<path class="st214" d="M173.2,72.1c3-1.4,5.6-0.9,7.1,2.1c1.1,2.1,4.7,4.1,1.3,7.1c-1.8-0.3-3.7-0.5-5.5-0.8
	C170.6,79.2,173.8,75,173.2,72.1z"/>
<path class="st215" d="M184.1,62.1c0.4,0.9,0.6,2.1,1.3,2.6c5.2,4,5.8,9.6,6,16.3c-4.5-4-7.1-8.9-10.6-13c-2.8-3.4,0.3-4.6,2.3-6.1
	C183.5,61.9,183.8,61.9,184.1,62.1z"/>
<path class="st216" d="M153,61.2c0.3-1.4,0.7-2.8,1-4.2c0.4,0,0.8,0.1,1.1,0.1c3,1.5,5.5,3.6,7,6.6c-0.3,0.4-0.6,0.8-0.9,1.1
	c-1.4,0.2-2-2-3.4-1.2c-0.3,0.1,0.1,1.5,0.1,2.3C155.9,64.8,154.4,63.1,153,61.2z"/>
<path class="st217" d="M168.4,20.8c0.3-1.2,0.7-2.5,1-3.7c2.5,5.5,8.7,9.9,5.4,17.2C167.8,32.5,167.8,32.5,168.4,20.8z"/>
<path class="st218" d="M162.1,63.8c-2.6-1.9-5.3-3.8-7-6.6c-1.3-6.5-1.2-12.7,4.9-17.1c0.3,0.3,0.7,0.7,1,1c0.6,2.7-2.8,3.7-2.8,6.1
	c0,0.4-0.1,0.9-0.2,1.3c-0.1,0.4-0.1,0.9-0.2,1.3c-1.3,4.7,0.8,8.1,4.6,10.3c3.7,2.2,7.7,2.7,11.3-0.6c0.3-0.4,0.6-0.7,0.9-1.1
	c1-0.8,2-1.5,3.2-0.6c0.1,0.5,0.1,1,0.2,1.5C173.8,64.9,168.5,66.1,162.1,63.8z"/>
<path class="st219" d="M157.1,47.3c-0.2-3,2.9-3.9,3.9-6.1c8.5-3.7,16.1-0.5,17.8,6c-0.4,0.3-0.8,0.5-1.3,0.6
	c-2.2-0.1-4.2-0.6-6-1.8c-2.6-2.9-5.1-2-7.5,0.2C161.8,46.7,159.7,48.4,157.1,47.3z"/>
<path class="st220" d="M178.1,47.1c0.3,0,0.5,0,0.8,0c1.2,3.8,0.9,7.4-1,10.9c-0.9,0.4-1.8,0.7-2.7,1.1c-0.2-0.1-0.4-0.3-0.6-0.4
	c-0.9-1.3-0.8-2.8-0.6-4.3c0.7-2.3,2.2-4.1,3.1-6.3C177.4,47.7,177.7,47.4,178.1,47.1z"/>
<path class="st221" d="M200.4,42.1c-3.9,1.9-8.3,2.2-12.4,3.2c-0.5-0.4-2.2,0.3-1.1-1.4c1.6-0.3,3.3-0.7,4.9-1
	C194.7,42.5,197.5,41.8,200.4,42.1z"/>
<path class="st222" d="M173.9,310c-1.8,1-3.7,1.6-5.3,2.9C168.2,308.3,171.9,310.7,173.9,310z"/>
<path class="st223" d="M144.1,82.9c0-5.3-0.1-10.5-0.1-15.8c1.5,3.4,1.7,7.3,4.9,9.9C147.3,79,145.7,80.9,144.1,82.9z"/>
<path class="st220" d="M174.8,59.9c-3.3,3.7-8.3,4.4-12.9,1.7c-4.9-2.9-6.7-7.5-4.8-12.5c4.1,0.9,3.6,4.7,4.6,7.5
	c0.3,0.6,0.6,1.2,1,1.7C166.8,58.7,171.1,57.3,174.8,59.9z"/>
<path class="st224" d="M174.8,59.9c-4.5-0.8-9.2,0.5-13.7-0.8c1.2-2.1,1.9-4.5,3.8-6.2c1.9-0.2,3.9-0.2,5.8-1.1
	c0.7,0.1,1.2,0.6,1.6,1.2c0.7,2.1,1.2,4.3,2.4,6.2c0,0,0.4,0,0.4,0C175.1,59.3,174.9,59.6,174.8,59.9z"/>
<path class="st225" d="M170.9,52c-1.6,2.4-3.5,2.6-5.8,1c-1.8,0.9-2.5,3.2-4.6,3.9c-0.3-3-1.3-5.8-3.4-8c0-0.3,0-0.5,0.1-0.7
	c1.2-1.2,2.7-0.8,4-0.4c1.7,0.5,3.2,0.4,4.3-1.1c1.7-1.2,3-1.3,3.6,1.1c-0.4,0.5,0.1-0.2-0.3,0.4c-0.2,0.2-0.5,0.5-0.6,0.7
	c0,0.4,0.1,0.4,0.1-0.1c0-0.7,0,0.2,0.3-0.4c0.3-0.3,0.6-0.5,1.1-0.6c0.7,0.2,1.2,0.5,1.7,1C172.4,50,172.9,51.2,170.9,52z"/>
<path class="st226" d="M166,47.3c-0.6,2.2-1.7,2.9-4,2c-1.5-0.6-3.2-0.8-4.8-1.1c-0.1-0.3-0.1-0.6-0.2-1c2.2-0.9,4.4-2,6.9-2.1
	C164.8,45.8,165.8,46.1,166,47.3z"/>
<path class="st227" d="M166,47.3c-1.2-0.2-2-0.8-2-2.1c2.9-4.7,4.1-4.7,7.9-0.2c0.1,1.4-0.3,2.6-1.9,3l-0.5-0.1L169,48l0,0
	C168.5,46,167.2,46.7,166,47.3z"/>
<path class="st228" d="M170,48c0.6-1,1.3-2,1.9-3c2.1,0.7,4.2,1.4,6.2,2.1c0,0.4,0,0.8,0,1.3c-2.1,1.8-4.4,2.4-6.9,1.1
	C170.8,48.9,170.4,48.5,170,48z"/>
<path class="st229" d="M171.2,49.4c2.3-0.4,4.6-0.7,6.9-1.1c-0.3,2.3-2,3.9-3.1,5.8c-1.5,1.1-2.4,0.1-3.2-1.1
	c-0.3-0.3-0.6-0.7-0.9-1C171.5,51.2,171.8,50.3,171.2,49.4z"/>
<path class="st230" d="M171.8,53c1.1,0.4,2.2,0.7,3.2,1.1c-0.1,1.7-0.2,3.3-0.3,5C172.4,57.7,170.9,56,171.8,53z"/>
<path class="st231" d="M160.6,56.9c0.3-2.8,1.1-4.8,4.6-3.9c-0.6,2.5-1.7,4.6-4,6C160.9,58.3,160.7,57.6,160.6,56.9z"/>
<path class="st232" d="M169,48c-0.3,1.2,1.5,3-0.8,3.7c-0.4,0.1-1.4-0.5-1.5-0.8C166.4,49.1,167.2,48.1,169,48
	C169.1,48.1,169,48,169,48z"/>
</svg>
