<?xml version="1.0" encoding="utf-8"?>
<!-- Generator: Adobe Illustrator 26.2.1, SVG Export Plug-In . SVG Version: 6.00 Build 0)  -->
<svg version="1.1" id="图层_1" xmlns="http://www.w3.org/2000/svg" xmlns:xlink="http://www.w3.org/1999/xlink" x="0px" y="0px"
	 viewBox="0 0 64 64" style="enable-background:new 0 0 64 64;" xml:space="preserve">
<style type="text/css">
	.st0{fill:#FFFFFF;}
	.st1{fill:#6DC781;}
</style>
<path class="st0" d="M0,32c0,17.7,14.3,32,32,32c17.7,0,32-14.3,32-32c0-17.7-14.3-32-32-32S0,14.4,0,32L0,32z"/>
<path class="st1" d="M5.8,32c0,14.5,11.7,26.2,26.2,26.2S58.2,46.5,58.2,32c0,0,0,0,0,0C58.2,17.5,46.5,5.8,32,5.8S5.8,17.5,5.8,32
	C5.8,32,5.8,32,5.8,32z"/>
<g>
	<path class="st0" d="M31.8,37.4c0.2-0.3,0.5-0.4,0.8-0.4c0.8,0,1.2,0.6,1.2,1.7c0,1.5-0.3,2.8-1,4c-0.7,1.2-1.6,2.2-2.8,3.1
		c-1.4,1-2.9,1.8-4.6,2.4c-1.7,0.6-3.3,1-4.8,1.2c-0.6,0.1-1.1,0.1-1.5,0.2c-0.4,0-0.8,0-1,0c-0.8,0-1.3-0.5-1.3-1.5
		c0-0.6,0.2-1,0.7-1.2c0.2-0.1,0.6-0.2,0.9-0.3s0.8-0.1,1.4-0.2c1.7-0.2,3.2-0.5,4.5-1c1.3-0.4,2.6-1.1,3.9-1.9
		c0.8-0.6,1.5-1.3,2.1-2.1c0.5-0.8,0.9-1.8,1.1-2.8C31.5,38,31.6,37.7,31.8,37.4z M23.6,22.8v-3.2h-3.4c-0.5,1.3-1,1.9-1.5,1.9
		c-0.7,0-1.1-0.3-1.1-1c0-0.2,0.2-0.7,0.5-1.5c0.2-0.5,0.3-1,0.5-1.5c0.1-0.5,0.3-1,0.5-1.5c0.2-0.6,0.5-0.9,1.1-0.9
		c0.7,0,1.1,0.3,1.1,0.8l-0.3,1.5h2.7v-1.4c0-1,0.4-1.5,1.2-1.5c0.8,0,1.2,0.5,1.2,1.5v1.4h3.8c0.8,0,1.2,0.4,1.2,1.1
		c0,0.8-0.4,1.2-1.2,1.2H26v3.2h4.2c0.8,0,1.2,0.4,1.2,1.2s-0.4,1.2-1.2,1.2h-2.6v3.1c0,0.5,0.1,0.8,0.3,0.8c0.1,0,0.3-0.1,0.7-0.3
		c0.3-0.2,0.7-0.5,1.3-0.8c0.1-0.1,0.3-0.1,0.5-0.1c0.6,0,0.9,0.4,0.9,1.3c0,0.4-0.5,1-1.5,1.7c-1,0.7-1.9,1-2.9,1
		c-1,0-1.5-0.7-1.5-2.2v-4.5h-1.9c-0.1,1.2-0.2,2.2-0.4,3c-0.3,1-0.7,1.8-1.2,2.5c-0.7,0.9-1.3,1.5-1.8,1.9s-1.1,0.6-1.6,0.6
		c-0.4,0-0.7-0.1-0.9-0.2c-0.2-0.1-0.3-0.4-0.3-0.9c0-0.4,0.3-0.9,1-1.4c1-0.7,1.7-1.5,2.2-2.6c0.4-0.9,0.6-1.9,0.7-3h-2.6
		c-0.8,0-1.2-0.4-1.2-1.2s0.4-1.2,1.2-1.2H23.6z M40.5,42.9v-5.7c0-0.9-0.4-1.4-1.2-1.4H25.1c-0.8,0-1.2,0.5-1.2,1.4v5.7
		c0,1.2-0.4,1.7-1.3,1.7c-0.9,0-1.4-0.6-1.4-1.7v-6.4c0-2.2,0.9-3.2,2.8-3.2h16.4c1.9,0,2.8,1.1,2.8,3.2v6.4c0,1.2-0.5,1.7-1.4,1.7
		C41,44.6,40.5,44,40.5,42.9z M31.5,30.9c0-0.5,0.4-0.9,1.3-1.3c1.1-0.4,1.9-1.1,2.4-1.9c0.4-0.7,0.7-1.6,0.8-2.5h-3
		c-0.7,0-1.1-0.4-1.1-1.2s0.4-1.2,1.1-1.2h5.3v-3.2h-3.4l-0.3,0.9c-0.2,0.7-0.6,1.1-1.3,1.1c-0.7,0-1-0.3-1-0.9
		c0-0.3,0.1-0.7,0.3-1.3c0.2-0.5,0.4-1,0.5-1.6c0.2-0.6,0.3-1.1,0.4-1.7c0.2-0.8,0.6-1.2,1.2-1.2c0.7,0,1.1,0.3,1.1,0.9l-0.3,1.5
		h2.8v-1.4c0-1,0.4-1.5,1.2-1.5s1.2,0.5,1.2,1.5v1.4h4.8c0.8,0,1.1,0.4,1.1,1.1s-0.4,1.1-1.1,1.1h-4.8v3.2h5.5
		c0.8,0,1.2,0.4,1.2,1.2s-0.4,1.2-1.2,1.2h-3.5V29c0,0.7,0.5,1.1,1.4,1.1c0.5,0,0.8-0.1,1-0.4c0.2-0.3,0.3-0.7,0.3-1.4
		c0-1,0.4-1.4,1.1-1.4c0.8,0,1.2,0.5,1.2,1.5c0,1.6-0.2,2.7-0.7,3.3s-1.3,0.9-2.5,0.9c-1.7,0-2.8-0.1-3.2-0.3
		c-0.3-0.2-0.6-0.4-0.8-0.7c-0.2-0.3-0.3-0.7-0.3-1.1v-5.3h-2.1c-0.1,1.1-0.3,2-0.6,2.7c-0.3,1-0.9,1.8-1.6,2.4
		c-0.6,0.6-1.2,1-1.8,1.4c-0.6,0.3-1.1,0.5-1.7,0.5C31.9,32.2,31.5,31.8,31.5,30.9z M43.2,49.3c-0.9-0.2-1.8-0.4-2.8-0.7
		c-1-0.3-1.9-0.6-2.8-0.9c-0.9-0.3-1.8-0.7-2.6-1C33.7,46,33,45.4,33,44.8c0-0.4,0.1-0.8,0.3-1.1c0.2-0.3,0.6-0.4,1-0.4
		c0.2,0,0.3,0,0.5,0.1c0.2,0.1,0.3,0.1,0.5,0.2c1.6,0.7,3.2,1.4,4.9,1.9c1.6,0.5,3.4,0.9,5.3,1.3c0.6,0.1,1.1,0.3,1.4,0.4
		c0.3,0.2,0.4,0.5,0.4,0.9c0,0.5-0.2,0.8-0.5,1.1c-0.3,0.2-0.8,0.3-1.3,0.3C44.9,49.5,44.1,49.4,43.2,49.3z"/>
</g>
</svg>
